<svg width="62" height="62" viewBox="0 0 62 62" fill="none" xmlns="http://www.w3.org/2000/svg">
<rect x="15.0293" y="0.606445" width="48" height="48" rx="10" transform="rotate(15 15.0293 0.606445)" fill="#004EEB"/>
<g filter="url(#filter0_b_1103_42844)">
<rect y="14" width="48" height="48" rx="10" fill="white" fill-opacity="0.6"/>
<path d="M30.6875 38.6303V38.6305L24.2428 28.4165C24.4925 27.7991 24.9717 27.3023 25.5801 27.0306C26.1923 26.7571 26.887 26.7332 27.5165 26.9638C27.8397 27.0839 28.1353 27.268 28.3856 27.505C28.636 27.7421 28.8359 28.0272 28.9735 28.3434C29.1111 28.6595 29.1834 29.0002 29.1862 29.345C29.189 29.6898 29.1222 30.0316 28.9898 30.3499L28.9895 30.3506L26.9908 35.3194L26.9906 35.3199C26.9125 35.5196 26.9166 35.742 27.0018 35.9387C27.087 36.1354 27.2465 36.2905 27.4456 36.3701L27.4458 36.3702L29.7811 37.2945L29.7811 37.2946C30.049 37.4003 30.2788 37.5843 30.4405 37.8226C30.6022 38.0608 30.6883 38.3424 30.6875 38.6303ZM18.0004 32.8406C18.2783 32.782 18.5674 32.8077 18.8306 32.9144L34.0507 46.3817C34.1904 46.4498 34.3029 46.5632 34.3698 46.7035C34.4367 46.8437 34.4541 47.0025 34.4192 47.1539C34.3844 47.3053 34.2992 47.4405 34.1777 47.5373C34.0561 47.6341 33.9053 47.6869 33.75 47.6871H17.7188H17.7185C17.625 47.6875 17.5325 47.6689 17.4465 47.6324C17.3605 47.5959 17.2829 47.5423 17.2183 47.4748L17.2182 47.4746C15.3492 45.5343 14.3074 42.9437 14.3125 40.2497V40.2496C14.3125 37.6186 15.3066 35.262 17.2704 33.2431L17.2705 33.2431C17.4683 33.0393 17.7224 32.8991 18.0004 32.8406ZM18.3179 34.1916L18.279 34.1759L18.2497 34.2059C17.8575 34.6069 17.4988 35.0394 17.1772 35.499L17.1321 35.5636L17.2052 35.5929L29.2268 40.4013L29.3125 40.4356V40.3433V40.3431V40.3429V40.3427V40.3426V40.3424V40.3422V40.342V40.3418V40.3416V40.3414V40.3413V40.3411V40.3409V40.3407V40.3405V40.3403V40.3401V40.3399V40.3398V40.3396V40.3394V40.3392V40.339V40.3388V40.3386V40.3385V40.3383V40.3381V40.3379V40.3377V40.3375V40.3373V40.3372V40.337V40.3368V40.3366V40.3364V40.3362V40.336V40.3359V40.3357V40.3355V40.3353V40.3351V40.3349V40.3347V40.3346V40.3344V40.3342V40.334V40.3338V40.3336V40.3334V40.3333V40.3331V40.3329V40.3327V40.3325V40.3323V40.3321V40.332V40.3318V40.3316V40.3314V40.3312V40.331V40.3308V40.3307V40.3305V40.3303V40.3301V40.3299V40.3297V40.3295V40.3294V40.3292V40.329V40.3288V40.3286V40.3284V40.3282V40.3281V40.3279V40.3277V40.3275V40.3273V40.3271V40.327V40.3268V40.3266V40.3264V40.3262V40.326V40.3258V40.3257V40.3255V40.3253V40.3251V40.3249V40.3247V40.3245V40.3244V40.3242V40.324V40.3238V40.3236V40.3234V40.3233V40.3231V40.3229V40.3227V40.3225V40.3223V40.3221V40.322V40.3218V40.3216V40.3214V40.3212V40.321V40.3209V40.3207V40.3205V40.3203V40.3201V40.3199V40.3197V40.3196V40.3194V40.3192V40.319V40.3188V40.3186V40.3185V40.3183V40.3181V40.3179V40.3177V40.3175V40.3174V40.3172V40.317V40.3168V40.3166V40.3164V40.3162V40.3161V40.3159V40.3157V40.3155V40.3153V40.3151V40.315V40.3148V40.3146V40.3144V40.3142V40.314V40.3139V40.3137V40.3135V40.3133V40.3131V40.3129V40.3128V40.3126V40.3124V40.3122V40.312V40.3118V40.3116V40.3115V40.3113V40.3111V40.3109V40.3107V40.3105V40.3104V40.3102V40.31V40.3098V40.3096V40.3094V40.3093V40.3091V40.3089V40.3087V40.3085V40.3083V40.3082V40.308V40.3078V40.3076V40.3074V40.3072V40.3071V40.3069V40.3067V40.3065V40.3063V40.3061V40.306V40.3058V40.3056V40.3054V40.3052V40.305V40.3049V40.3047V40.3045V40.3043V40.3041V40.3039V40.3038V40.3036V40.3034V40.3032V40.303V40.3028V40.3027V40.3025V40.3023V40.3021V40.3019V40.3017V40.3016V40.3014V40.3012V40.301V40.3008V40.3007V40.3005V40.3003V40.3001V40.2999V40.2997V40.2996V40.2994V40.2992V40.299V40.2988V40.2986V40.2985V40.2983V40.2981V40.2979V40.2977V40.2975V40.2974V40.2972V40.297V40.2968V40.2966V40.2964V40.2963V40.2961V40.2959V40.2957V40.2955V40.2954V40.2952V40.295V40.2948V40.2946V40.2944V40.2943V40.2941V40.2939V40.2937V40.2935V40.2933V40.2932V40.293V40.2928V40.2926V40.2924V40.2922V40.2921V40.2919V40.2917V40.2915V40.2913V40.2912V40.291V40.2908V40.2906V40.2904V40.2902V40.2901V40.2899V40.2897V40.2895V40.2893V40.2891V40.289V40.2888V40.2886V40.2884V40.2882V40.2881V40.2879V40.2877V40.2875V40.2873V40.2871V40.287V40.2868V40.2866V40.2864V40.2862V40.2861V40.2859V40.2857V40.2855V40.2853V40.2851V40.285V40.2848V40.2846V40.2844V40.2842V40.284V40.2839V40.2837V40.2835V40.2833V40.2831V40.283V40.2828V40.2826V40.2824V40.2822V40.282V40.2819V40.2817V40.2815V40.2813V40.2811V40.281V40.2808V40.2806V40.2804V40.2802V40.28V40.2799V40.2797V40.2795V40.2793V40.2791V40.279V40.2788V40.2786V40.2784V40.2782V40.278V40.2779V40.2777V40.2775V40.2773V40.2771V40.277V40.2768V40.2766V40.2764V40.2762V40.276V40.2759V40.2757V40.2755V40.2753V40.2751V40.275V40.2748V40.2746V40.2744V40.2742V40.274V40.2739V40.2737V40.2735V40.2733V40.2731V40.273V40.2728V40.2726V40.2724V40.2722V40.272V40.2719V40.2717V40.2715V40.2713V40.2711V40.271V40.2708V40.2706V40.2704V40.2702V40.2701V40.2699V40.2697V40.2695V40.2693V40.2691V40.269V40.2688V40.2686V40.2684V40.2682V40.2681V40.2679V40.2677V40.2675V40.2673V40.2671V40.267V40.2668V40.2666V40.2664V40.2662V40.2661V40.2659V40.2657V40.2655V40.2653V40.2652V40.265V40.2648V40.2646V40.2644V40.2642V40.2641V40.2639V40.2637V40.2635V40.2633V40.2632V40.263V40.2628V40.2626V40.2624V40.2622V40.2621V40.2619V40.2617V40.2615V40.2613V40.2612V40.261V40.2608V40.2606V40.2604V40.2603V40.2601V40.2599V40.2597V40.2595V40.2593V40.2592V40.259V40.2588V40.2586V40.2584V40.2583V40.2581V40.2579V40.2577V40.2575V40.2574V40.2572V40.257V40.2568V40.2566V40.2564V40.2563V40.2561V40.2559V40.2557V40.2555V40.2554V40.2552V40.255V40.2548V40.2546V40.2545V40.2543V40.2541V40.2539V40.2537V40.2535V40.2534V40.2532V40.253V40.2528V40.2526V40.2525V40.2523V40.2521V40.2519V40.2517V40.2516V40.2514V40.2512V40.251V40.2508V40.2506V40.2505V40.2503V40.2501V40.2499V40.2497V40.2496V38.6305V38.588L29.273 38.5724L26.9406 37.6509C26.4023 37.4364 25.971 37.0171 25.7415 36.4849C25.512 35.9529 25.503 35.3516 25.7164 34.8129C25.7165 34.8128 25.7165 34.8127 25.7166 34.8126L27.7223 29.8461C27.7223 29.8459 27.7224 29.8457 27.7225 29.8456C27.7848 29.698 27.8165 29.5393 27.8159 29.3791C27.8152 29.2187 27.7821 29.0601 27.7184 28.9129C27.6548 28.7657 27.562 28.6329 27.4457 28.5225C27.3294 28.4122 27.192 28.3265 27.0417 28.2707C26.4492 28.0452 25.7675 28.3599 25.5155 28.9613L25.515 28.9625L23.5463 33.9312L23.5463 33.9312C23.4403 34.199 23.2825 34.4431 23.082 34.6498C22.8814 34.8564 22.642 35.0214 22.3776 35.1353C22.1131 35.2491 21.8288 35.3097 21.5409 35.3135C21.253 35.3172 20.9673 35.2641 20.7 35.1572C20.6999 35.1572 20.6999 35.1572 20.6998 35.1572L18.3179 34.1916ZM22.7511 46.2947L22.7693 46.3121L15.75 40.2496L15.6875 40.2494C15.6875 40.2495 15.6875 40.2496 15.6875 40.2497C15.6833 42.4796 16.5053 44.6319 17.9948 46.2913L18.0134 46.3121H18.0413H20.7816H20.9079L20.8313 46.2116C20.0279 45.1594 19.4461 43.9553 19.121 42.672C19.0787 42.4967 19.1069 42.3117 19.1997 42.157C19.2926 42.0022 19.4426 41.8901 19.6174 41.845C19.7922 41.7999 19.9777 41.8253 20.1339 41.9158C20.2899 42.0061 20.4041 42.1541 20.4521 42.3279C20.8292 43.8404 21.6262 45.2156 22.7511 46.2947Z" fill="#1570EF" stroke="white" stroke-width="0.125"/>
<rect x="0.5" y="14.5" width="47" height="47" rx="9.5" stroke="white" stroke-opacity="0.6"/>
</g>
<defs>
<filter id="filter0_b_1103_42844" x="-16" y="-2" width="80" height="80" filterUnits="userSpaceOnUse" color-interpolation-filters="sRGB">
<feFlood flood-opacity="0" result="BackgroundImageFix"/>
<feGaussianBlur in="BackgroundImageFix" stdDeviation="8"/>
<feComposite in2="SourceAlpha" operator="in" result="effect1_backgroundBlur_1103_42844"/>
<feBlend mode="normal" in="SourceGraphic" in2="effect1_backgroundBlur_1103_42844" result="shape"/>
</filter>
</defs>
</svg>
