<svg width="36" height="36" viewBox="0 0 36 36" fill="none" xmlns="http://www.w3.org/2000/svg">
<path d="M24.2887 22.962C24.4649 23.1381 24.5638 23.377 24.5638 23.626C24.5638 23.8751 24.4649 24.114 24.2887 24.2901C24.1126 24.4662 23.8737 24.5652 23.6247 24.5652C23.3756 24.5652 23.1367 24.4662 22.9606 24.2901L18.0005 19.3284L13.0387 24.2885C12.8626 24.4647 12.6237 24.5636 12.3747 24.5636C12.1256 24.5636 11.8867 24.4647 11.7106 24.2885C11.5345 24.1124 11.4355 23.8735 11.4355 23.6245C11.4355 23.3754 11.5345 23.1365 11.7106 22.9604L16.6723 18.0003L11.7122 13.0385C11.5361 12.8624 11.4371 12.6235 11.4371 12.3745C11.4371 12.1254 11.5361 11.8865 11.7122 11.7104C11.8883 11.5343 12.1272 11.4354 12.3762 11.4354C12.6253 11.4354 12.8642 11.5343 13.0403 11.7104L18.0005 16.6721L22.9622 11.7096C23.1383 11.5335 23.3772 11.4346 23.6262 11.4346C23.8753 11.4346 24.1142 11.5335 24.2903 11.7096C24.4664 11.8858 24.5654 12.1246 24.5654 12.3737C24.5654 12.6228 24.4664 12.8616 24.2903 13.0378L19.3286 18.0003L24.2887 22.962Z" fill="#667085"/>
</svg>
