<svg width="25" height="24" viewBox="0 0 25 24" fill="none" xmlns="http://www.w3.org/2000/svg">
<path d="M22.0934 13.2245C21.8482 13.0354 21.567 12.8983 21.2671 12.8215C20.9671 12.7446 20.6547 12.7295 20.3488 12.7773C22.1094 10.9998 23 9.23259 23 7.50009C23 5.01853 21.0041 3.00009 18.5506 3.00009C17.8996 2.996 17.2556 3.13445 16.6638 3.40573C16.0721 3.67701 15.5468 4.07454 15.125 4.5704C14.7032 4.07454 14.1779 3.67701 13.5862 3.40573C12.9944 3.13445 12.3504 2.996 11.6994 3.00009C9.24594 3.00009 7.25 5.01853 7.25 7.50009C7.25 8.53134 7.55375 9.53352 8.19312 10.5938C7.66947 10.7265 7.19158 10.9987 6.81031 11.3813L4.68969 13.5001H2C1.60218 13.5001 1.22064 13.6581 0.93934 13.9394C0.658035 14.2207 0.5 14.6023 0.5 15.0001L0.5 18.7501C0.5 19.1479 0.658035 19.5294 0.93934 19.8107C1.22064 20.0921 1.60218 20.2501 2 20.2501H11.75C11.8113 20.2501 11.8724 20.2426 11.9319 20.2276L17.9319 18.7276C17.9701 18.7185 18.0075 18.7059 18.0434 18.6901L21.6875 17.1395L21.7288 17.1207C22.079 16.9457 22.3789 16.6844 22.6002 16.3615C22.8215 16.0385 22.957 15.6646 22.9939 15.2748C23.0307 14.885 22.9678 14.4923 22.8109 14.1336C22.654 13.7749 22.4084 13.462 22.0972 13.2245H22.0934ZM11.6994 4.50009C12.2803 4.49159 12.8505 4.65653 13.3371 4.97384C13.8238 5.29114 14.2047 5.74638 14.4313 6.28134C14.4878 6.4189 14.5839 6.53655 14.7074 6.61935C14.8309 6.70215 14.9763 6.74636 15.125 6.74636C15.2737 6.74636 15.4191 6.70215 15.5426 6.61935C15.6661 6.53655 15.7622 6.4189 15.8187 6.28134C16.0453 5.74638 16.4262 5.29114 16.9129 4.97384C17.3995 4.65653 17.9697 4.49159 18.5506 4.50009C20.1491 4.50009 21.5 5.87353 21.5 7.50009C21.5 9.32915 20.0197 11.3982 17.2194 13.4907L16.1797 13.7298C16.2709 13.3443 16.2738 12.9431 16.1879 12.5564C16.1021 12.1696 15.9298 11.8073 15.6841 11.4966C15.4383 11.1859 15.1254 10.9348 14.7688 10.7622C14.4122 10.5897 14.0212 10.5 13.625 10.5001H9.93875C9.12969 9.40884 8.75 8.44884 8.75 7.50009C8.75 5.87353 10.1009 4.50009 11.6994 4.50009ZM2 15.0001H4.25V18.7501H2V15.0001ZM21.0716 15.7698L17.5091 17.2866L11.6562 18.7501H5.75V14.5604L7.87156 12.4398C8.01035 12.2999 8.17555 12.189 8.35758 12.1135C8.53961 12.038 8.73482 11.9995 8.93188 12.0001H13.625C13.9234 12.0001 14.2095 12.1186 14.4205 12.3296C14.6315 12.5406 14.75 12.8267 14.75 13.1251C14.75 13.4235 14.6315 13.7096 14.4205 13.9206C14.2095 14.1316 13.9234 14.2501 13.625 14.2501H11C10.8011 14.2501 10.6103 14.3291 10.4697 14.4698C10.329 14.6104 10.25 14.8012 10.25 15.0001C10.25 15.199 10.329 15.3898 10.4697 15.5304C10.6103 15.6711 10.8011 15.7501 11 15.7501H14C14.0565 15.7499 14.1127 15.7436 14.1678 15.7313L20.4491 14.2866L20.4781 14.2791C20.6699 14.2259 20.8745 14.2455 21.0527 14.3341C21.2309 14.4227 21.37 14.574 21.4433 14.759C21.5167 14.944 21.5189 15.1496 21.4498 15.3362C21.3806 15.5228 21.2449 15.6772 21.0687 15.7698H21.0716Z" fill="white"/>
</svg>
