<svg width="18" height="16" viewBox="0 0 18 16" fill="none" xmlns="http://www.w3.org/2000/svg">
<path d="M17.75 9.625V14.625C17.75 14.9565 17.6183 15.2745 17.3839 15.5089C17.1495 15.7433 16.8315 15.875 16.5 15.875H1.5C1.16848 15.875 0.850537 15.7433 0.616116 15.5089C0.381696 15.2745 0.25 14.9565 0.25 14.625V9.625C0.25 9.29348 0.381696 8.97554 0.616116 8.74112C0.850537 8.5067 1.16848 8.375 1.5 8.375H4.625C4.79076 8.375 4.94973 8.44085 5.06694 8.55806C5.18415 8.67527 5.25 8.83424 5.25 9C5.25 9.16576 5.18415 9.32473 5.06694 9.44194C4.94973 9.55915 4.79076 9.625 4.625 9.625H1.5V14.625H16.5V9.625H13.375C13.2092 9.625 13.0503 9.55915 12.9331 9.44194C12.8158 9.32473 12.75 9.16576 12.75 9C12.75 8.83424 12.8158 8.67527 12.9331 8.55806C13.0503 8.44085 13.2092 8.375 13.375 8.375H16.5C16.8315 8.375 17.1495 8.5067 17.3839 8.74112C17.6183 8.97554 17.75 9.29348 17.75 9.625ZM8.55781 9.44219C8.61586 9.5003 8.68479 9.5464 8.76066 9.57785C8.83654 9.6093 8.91787 9.62549 9 9.62549C9.08213 9.62549 9.16346 9.6093 9.23934 9.57785C9.31521 9.5464 9.38414 9.5003 9.44219 9.44219L13.1922 5.69219C13.3095 5.57491 13.3753 5.41585 13.3753 5.25C13.3753 5.08415 13.3095 4.92509 13.1922 4.80781C13.0749 4.69054 12.9159 4.62465 12.75 4.62465C12.5841 4.62465 12.4251 4.69054 12.3078 4.80781L9.625 7.49141V0.875C9.625 0.70924 9.55915 0.550268 9.44194 0.433058C9.32473 0.315848 9.16576 0.25 9 0.25C8.83424 0.25 8.67527 0.315848 8.55806 0.433058C8.44085 0.550268 8.375 0.70924 8.375 0.875V7.49141L5.69219 4.80781C5.57491 4.69054 5.41585 4.62465 5.25 4.62465C5.08415 4.62465 4.92509 4.69054 4.80781 4.80781C4.69054 4.92509 4.62465 5.08415 4.62465 5.25C4.62465 5.41585 4.69054 5.57491 4.80781 5.69219L8.55781 9.44219ZM14.625 12.125C14.625 11.9396 14.57 11.7583 14.467 11.6042C14.364 11.45 14.2176 11.3298 14.0463 11.2589C13.875 11.1879 13.6865 11.1693 13.5046 11.2055C13.3227 11.2417 13.1557 11.331 13.0246 11.4621C12.8935 11.5932 12.8042 11.7602 12.768 11.9421C12.7318 12.124 12.7504 12.3125 12.8214 12.4838C12.8923 12.6551 13.0125 12.8015 13.1667 12.9045C13.3208 13.0075 13.5021 13.0625 13.6875 13.0625C13.9361 13.0625 14.1746 12.9637 14.3504 12.7879C14.5262 12.6121 14.625 12.3736 14.625 12.125Z" fill="#344054"/>
</svg>
