<svg width="62" height="62" viewBox="0 0 62 62" fill="none" xmlns="http://www.w3.org/2000/svg">
<rect x="15.0293" y="0.606445" width="48" height="48" rx="10" transform="rotate(15 15.0293 0.606445)" fill="#12B76A"/>
<g filter="url(#filter0_b_1103_42865)">
<rect y="14" width="48" height="48" rx="10" fill="white" fill-opacity="0.6"/>
<path d="M21.0092 35.6876C20.5407 35.6871 20.0742 35.748 19.6216 35.8688C18.9484 36.0449 18.3168 36.3527 17.7632 36.7743C17.2096 37.1958 16.7449 37.7229 16.396 38.3249C15.8969 39.1779 15.651 40.1554 15.6873 41.143L15.6917 41.2635L21.0092 35.6876ZM21.0092 35.6876C21.0091 35.6876 21.0091 35.6876 21.0091 35.6876L21.0091 35.7501L21.0092 35.6876H21.0092ZM15.7498 41.1407C15.7488 41.1151 15.7481 41.0895 15.7475 41.0639L15.7119 41.091L15.7498 41.1407ZM15.7498 41.1407L15.8122 41.1385C15.8117 41.1237 15.8112 41.109 15.8108 41.0943L15.7498 41.1407ZM22.5307 35.9761L22.5125 36.0359C22.4981 36.0315 22.4837 36.0272 22.4692 36.0229L22.5307 35.9761ZM22.5307 35.9761L22.4928 35.9263L22.4564 35.9541C22.4812 35.9612 22.506 35.9685 22.5307 35.9761ZM34.2469 31.0331L34.2654 31.0529H34.2679C34.335 31.1291 34.3846 31.2194 34.4127 31.3172C34.4434 31.4234 34.4479 31.5355 34.426 31.6439C34.404 31.7522 34.3563 31.8537 34.2868 31.9397C34.2173 32.0257 34.1281 32.0937 34.0267 32.1378C34.0267 32.1378 34.0267 32.1378 34.0267 32.1378L28.7561 34.4319L28.5919 34.5033L28.7649 34.5496C30.4632 35.0033 31.9119 36.1127 32.7929 37.6339L32.793 37.6342C33.2348 38.3881 33.5216 39.2227 33.6364 40.089C33.7512 40.9552 33.6918 41.8357 33.4616 42.6787L33.4616 42.6788C33.4322 42.7877 33.3765 42.8876 33.2994 42.9699C33.2223 43.0521 33.1262 43.1141 33.0195 43.1505C32.9127 43.1868 32.7987 43.1963 32.6874 43.1782C32.5762 43.1601 32.4711 43.1149 32.3814 43.0466L24.7876 37.2641L24.6873 37.1877V37.3139V47.0001C24.6873 47.1825 24.6148 47.3573 24.4859 47.4863C24.357 47.6152 24.1821 47.6876 23.9998 47.6876C23.8174 47.6876 23.6425 47.6152 23.5136 47.4863C23.3847 47.3573 23.3123 47.1825 23.3123 47.0001V37.3139V37.1877L23.2119 37.2641L15.6182 43.0466C15.5285 43.1147 15.4235 43.1597 15.3123 43.1777C15.2012 43.1957 15.0873 43.1861 14.9807 43.1498C14.8741 43.1135 14.778 43.0515 14.701 42.9694C14.624 42.8873 14.5683 42.7875 14.5388 42.6788L14.5388 42.6787C14.3087 41.8357 14.2493 40.9552 14.3641 40.089C14.4789 39.2227 14.7656 38.3881 15.2074 37.6342L15.2076 37.6339C16.0883 36.1129 17.5367 35.0035 19.2346 34.5496L19.4075 34.5034L19.2435 34.4319L13.9804 32.1378L13.9803 32.1378C13.879 32.0937 13.7897 32.0257 13.7202 31.9397C13.6507 31.8537 13.603 31.7522 13.581 31.6439C13.5591 31.5355 13.5636 31.4234 13.5943 31.3172C13.6249 31.2109 13.6807 31.1136 13.7569 31.0335L13.7569 31.0335L13.7573 31.0331C14.3379 30.4112 15.0402 29.9154 15.8205 29.5764C16.6008 29.2374 17.4424 29.0625 18.2932 29.0625C19.1439 29.0625 19.9856 29.2374 20.7659 29.5764C21.5462 29.9154 22.2485 30.4112 22.8291 31.0331L22.8294 31.0335C23.2752 31.5032 23.6507 32.0351 23.944 32.6125L23.9996 32.7219L24.0554 32.6126C24.3502 32.0349 24.7272 31.503 25.1747 31.0336L25.1751 31.0331C25.7557 30.4112 26.458 29.9154 27.2383 29.5764C28.0186 29.2374 28.8602 29.0625 29.711 29.0625C30.5618 29.0625 31.4034 29.2374 32.1837 29.5764C32.964 29.9154 33.6663 30.4112 34.2469 31.0331ZM15.1535 37.6026C14.7075 38.3637 14.418 39.2062 14.3021 40.0808C14.1862 40.9553 14.2462 41.8441 14.4785 42.6951L15.1535 37.6026ZM19.1226 34.5156L19.1935 34.5465L19.2185 34.4892L19.2024 34.4288C19.1772 34.4355 19.1522 34.4424 19.1272 34.4494L19.1226 34.5156ZM18.2886 30.4376H18.2885C17.3388 30.4377 16.4105 30.7197 15.6212 31.2479L15.5262 31.3115L15.6311 31.3571L23.0954 34.6065L23.2074 34.6552L23.1815 34.5359C22.9729 33.5767 22.5051 32.6932 21.829 31.9817C21.3759 31.4958 20.828 31.1081 20.2191 30.8426C19.6101 30.5769 18.9531 30.4391 18.2886 30.4376ZM32.3122 41.143C32.3463 40.1912 32.1184 39.249 31.6544 38.4189H31.6586L31.6033 38.3247C30.997 37.2916 30.061 36.4923 28.9456 36.0553C27.8302 35.6183 26.6003 35.569 25.4536 35.9153L25.3364 35.9507L25.4337 36.0248L32.2119 41.1905L32.3079 41.2636L32.3122 41.143ZM24.8181 34.5359L24.7921 34.6552L24.9041 34.6065L32.3684 31.3571L32.4733 31.3115L32.3783 31.2479C31.589 30.7197 30.6607 30.4377 29.711 30.4376L29.7109 30.4376C29.0465 30.4391 28.3894 30.5769 27.7804 30.8426C27.1715 31.1081 26.6236 31.4958 26.1705 31.9817C25.4944 32.6932 25.0266 33.5768 24.8181 34.5359Z" fill="#1CAA5C" stroke="white" stroke-width="0.125"/>
<rect x="0.5" y="14.5" width="47" height="47" rx="9.5" stroke="white" stroke-opacity="0.6"/>
</g>
<defs>
<filter id="filter0_b_1103_42865" x="-16" y="-2" width="80" height="80" filterUnits="userSpaceOnUse" color-interpolation-filters="sRGB">
<feFlood flood-opacity="0" result="BackgroundImageFix"/>
<feGaussianBlur in="BackgroundImageFix" stdDeviation="8"/>
<feComposite in2="SourceAlpha" operator="in" result="effect1_backgroundBlur_1103_42865"/>
<feBlend mode="normal" in="SourceGraphic" in2="effect1_backgroundBlur_1103_42865" result="shape"/>
</filter>
</defs>
</svg>
