<svg width="210" height="136" viewBox="0 0 210 136" fill="none" xmlns="http://www.w3.org/2000/svg">
<path d="M44.5892 36.0718C49.0609 36.4438 45.0437 25.1282 44.5347 23.1008C44.44 22.7268 45.9035 22.3448 45.9947 22.7092C46.9613 26.555 51.2879 37.3449 43.6533 36.7099C42.9014 36.6469 44.25 36.0436 44.5892 36.0718ZM37.6733 27.8607C37.6733 28.9191 37.6733 29.9759 37.6733 31.0332C37.6733 31.2418 39.1337 31.0413 39.1337 30.6426C39.1337 29.5843 39.1337 28.5275 39.1337 27.4692C39.1342 27.2605 37.6733 27.4611 37.6733 27.8607ZM49.8057 29.0546C49.8057 27.9973 49.8057 26.9395 49.8057 25.8812C49.8057 25.6725 48.3452 25.8741 48.3452 26.2727C48.3452 27.3311 48.3452 28.3879 48.3452 29.4462C48.3452 29.6564 49.8057 29.4543 49.8057 29.0546ZM43.1136 41.7102C43.4799 41.7626 43.8942 41.5923 44.0615 41.2516C44.3332 40.6982 44.695 40.2457 45.1198 39.8037C45.3673 39.5447 45.2237 39.1677 44.9183 39.0498C44.5494 38.9072 44.1467 39.0538 43.8856 39.3265C43.3862 39.846 42.976 40.4024 42.657 41.051C42.4912 41.3862 42.8046 41.6659 43.1136 41.7102ZM80.9835 92.6747C82.2727 98.111 81.8201 104.899 78.0258 109.332C78.0711 109.582 77.8217 109.806 77.5097 109.917C77.2174 110.218 76.909 110.507 76.5804 110.78C74.9309 112.157 73.0607 113.203 71.0731 113.934C71.0826 113.946 71.0937 113.96 71.1023 113.969C71.3996 114.316 70.0107 114.822 69.735 114.501C69.7088 114.47 69.6801 114.436 69.6524 114.404C65.9089 115.475 61.8465 115.472 58.0828 114.452C58.6926 116.971 61.9236 124.819 58.3938 125.202C58.1781 125.374 57.7558 125.562 57.535 125.57C52.7847 125.766 48.7484 128.96 44.2097 130.116C40.4909 131.064 36.2934 130.919 32.5182 130.466C27.9926 129.924 23.6061 128.665 19.0895 128.058C14.1728 127.396 9.28791 127.328 4.35913 127.93C3.33356 128.055 3.98821 127.396 4.61212 127.32C4.82227 127.294 5.03242 127.273 5.24258 127.249C9.30907 126.789 13.4038 126.664 17.4814 127.102C22.2474 127.615 26.8405 128.931 31.5738 129.578C37.6712 130.41 43.3761 130.338 49.0442 127.719C51.7858 126.451 54.5022 125.236 57.5194 124.972C57.2841 124.635 57.5693 124.065 58.1821 124.074C59.2263 124.09 56.6692 115.395 56.5392 114.429C56.5175 114.272 56.5694 114.133 56.6596 114.016C56.64 114.009 56.6193 114.005 56.5997 113.996C49.9735 111.672 48.0056 104.094 47.7168 97.7118C46.4967 99.1905 45.2705 100.668 44.0031 102.117C39.351 107.434 33.1602 114.02 25.8724 115.382C20.5158 116.383 16.5087 114.106 13.3806 110.45C13.054 112.481 12.3596 114.283 11.4595 115.973C10.5035 117.769 9.31663 119.437 8.092 121.113C6.69652 123.025 5.25417 124.948 4.05574 127.088C4.02399 127.144 3.9615 127.192 3.88338 127.235C3.47064 127.454 2.55291 127.481 2.61944 127.362C3.00598 126.673 3.41873 126.007 3.8466 125.356C4.37828 124.548 4.93314 123.765 5.49506 122.993C8.52138 118.832 11.7064 114.997 12.0889 109.372C12.096 109.274 12.1872 109.192 12.3223 109.125C8.55212 104.038 6.15072 97.0275 4.13284 92.1188C4.06682 91.9586 4.12831 91.8109 4.2543 91.6925C3.99375 91.6607 3.73471 91.6275 3.47366 91.5882C3.10728 91.6885 2.69553 91.6355 2.60734 91.3261C0.0109112 82.2225 -2.1642 71.2305 4.20088 63.1207C10.0423 55.6771 20.4618 54.135 26.272 46.6405C26.2615 46.5941 26.2479 46.5498 26.2378 46.5039C26.2045 46.3583 26.3189 46.2222 26.4968 46.1169C26.8304 44.99 26.8758 43.7407 26.841 42.5574C20.7723 46.8844 9.58575 44.5143 10.9767 35.5412C7.17377 35.9801 3.88086 34.0242 3.95746 29.7138C4.02348 26.0278 6.02574 22.7626 9.54392 21.668C12.536 15.1517 13.4481 7.04899 20.4321 3.30403C26.08 0.275193 33.7559 -0.875362 39.2497 3.04398C39.355 2.98804 39.4764 2.94873 39.6145 2.94066C44.0293 2.65895 48.8406 4.3185 51.5076 8.02567C53.0467 10.1645 53.7069 12.4686 53.656 14.7929C53.8657 16.3975 53.8395 17.5501 53.8395 17.5501C53.8395 17.5501 52.769 24.1954 54.792 26.8251C56.8154 29.4563 57.473 30.5781 57.2699 34.4083C57.1152 37.3161 54.0405 38.9565 52.5695 39.5789C51.0414 44.4089 47.1191 46.6985 42.5441 47.5451C42.5043 47.9624 42.4846 48.3827 42.4947 48.807C42.5033 48.8151 42.5138 48.8196 42.5204 48.8287C46.3314 53.8724 54.6856 52.0249 58.1806 57.1845C59.2777 56.9002 60.4389 57.4057 61.3758 58.6077C61.3954 58.6334 61.4075 58.6591 61.4186 58.6843C64.2811 56.5344 71.0413 55.2649 69.668 59.6675C71.4919 59.5909 76.2553 59.5128 74.7586 62.27C73.3142 64.9314 70.4537 66.7346 68.5245 69.0246C68.4998 69.0544 68.4655 69.0806 68.4262 69.1063C68.965 69.8476 68.9065 70.8772 68.5789 71.9038C68.5235 72.0782 68.3154 72.2147 68.073 72.2994C68.5956 72.8417 68.8632 73.4933 68.8758 74.3243C68.8798 74.6086 68.6424 74.8066 68.3572 74.8933C68.4595 74.9251 68.5391 74.98 68.5779 75.0677C68.8647 75.7193 68.8632 76.4506 68.8637 77.1496C68.8637 77.3345 68.6903 77.4852 68.4655 77.5895C68.4827 77.6021 68.5023 77.6142 68.518 77.6298C68.646 77.7568 68.7553 77.8808 68.8526 78.0028C75.066 80.3986 79.4671 86.2779 80.9835 92.6747ZM58.7249 58.137C58.7687 58.2267 58.8161 58.3133 58.8574 58.4066C58.9678 58.6576 57.9357 59.0471 57.536 58.9095C57.5139 58.9519 57.4917 58.9902 57.4705 59.0365C57.028 59.9971 56.6808 61.2041 56.8658 62.273C57.2125 64.2742 58.2567 66.0064 58.8574 67.927C58.8756 67.9839 58.871 68.0414 58.8544 68.0943C60.0967 67.35 61.6202 66.8954 62.8146 67.87C62.8524 67.9008 62.8498 67.9411 62.8236 67.9855C64.3179 67.9678 65.9629 67.7768 67.3795 68.3362C67.4758 68.3745 67.567 68.4158 67.6532 68.4612C69.2739 66.6852 71.2061 65.1859 72.6928 63.2991C73.0617 62.8304 74.0404 61.6808 73.3701 61.0806C72.4358 60.245 70.6845 60.362 69.3601 60.4547C69.0879 60.879 67.7282 61.0091 68.021 60.362C68.7946 58.653 68.3521 57.2182 66.2637 57.4889C64.7745 57.6809 62.9144 58.2871 61.9543 59.5213C61.6504 59.9119 60.1723 60.0057 60.5891 59.4689C60.6294 59.4165 60.6773 59.3666 60.7226 59.3142C60.4389 59.3762 60.1506 59.3555 60.0241 59.1933C59.6119 58.6656 59.1618 58.2453 58.7249 58.137ZM57.8989 68.757C57.9901 68.685 58.0828 68.6144 58.1806 68.5433C58.1075 68.559 58.036 68.5711 57.9644 68.5751C57.6983 68.5907 57.4594 68.5212 57.3964 68.3191C57.1505 67.5304 56.8144 66.7205 56.4858 65.9005C56.1244 64.9949 55.7787 64.0747 55.5701 63.1544C55.2223 61.6179 55.2652 60.0777 56.323 58.593C56.5135 58.3264 56.7146 58.0982 56.9232 57.9041C53.9937 53.0998 46.9739 54.074 42.7048 50.8743C42.8616 51.8203 43.0843 52.7541 43.3252 53.6471C43.4144 53.9757 43.0727 54.2388 42.6958 54.33C42.5889 54.3557 42.4796 54.3673 42.3758 54.3633C41.6979 54.6873 41.0171 54.9458 40.3367 55.1459C34.4816 56.8559 28.749 54.012 26.6601 47.98C21.1089 54.206 12.2679 55.8978 6.65721 62.0074C-0.688592 70.0064 1.30308 81.1742 4.00131 90.6982C4.05624 90.6921 4.11017 90.6901 4.15704 90.6972C10.6143 91.7071 16.7829 90.2542 22.7347 87.812C21.8281 83.5146 20.8322 79.0576 18.9963 75.0621C18.8643 74.7769 20.2799 74.2855 20.4563 74.6716C22.3401 78.7723 23.3415 83.3599 24.2678 87.761C24.2758 87.7983 24.2648 87.8346 24.2466 87.8714C24.2698 88.011 24.1624 88.1718 23.8384 88.3074C23.528 88.4374 23.217 88.5634 22.9046 88.6883C23.0411 88.769 23.1328 88.903 23.1344 89.0971C23.1429 90.551 23.4524 92.1032 24.1156 93.4045C33.2867 86.2759 44.6527 82.3721 53.3693 74.5985C53.7901 73.7911 54.2709 72.9762 54.8076 72.191C53.3677 70.6897 51.9617 69.1733 50.8192 67.4276C50.6584 67.1816 52.0151 66.6313 52.2797 67.036C53.2428 68.5086 54.4125 69.8098 55.6205 71.0818C56.2872 70.2392 57.0185 69.4616 57.8142 68.822C57.8435 68.7994 57.8717 68.7777 57.8989 68.757ZM26.5729 41.8392C26.2398 42.1315 25.889 42.4218 25.5292 42.6934C25.8956 42.4445 26.2438 42.1577 26.5729 41.8392ZM28.2436 41.3252C28.2592 41.3418 28.2708 41.3615 28.2718 41.3852C28.3534 42.9933 28.3695 44.8549 27.7678 46.3825C29.383 52.8206 35.4432 57.0197 41.8118 53.8316C41.2973 51.8933 40.8825 49.7782 41.0594 47.7674C40.0968 47.8808 39.1176 47.9458 38.1319 47.9564C37.1446 47.9679 38.0724 47.0447 38.6751 47.0381C39.612 47.0275 40.5912 46.9812 41.5694 46.8708C41.771 46.7912 42.0013 46.7594 42.1918 46.7922C44.8296 46.4142 47.4099 45.5096 49.1511 43.4454C50.8026 41.4854 51.5363 38.9757 51.7152 36.4498C52.07 31.4238 50.791 26.5585 50.2598 21.5995C50.2568 21.5954 50.2537 21.5914 50.2512 21.5879C49.6329 21.4322 48.9787 21.283 48.2984 21.1323C47.5288 21.0784 46.539 21.0093 45.264 20.9206C43.2794 20.7831 41.395 19.8804 39.7788 18.7611C38.1248 18.0662 36.618 17.1792 35.4331 15.9944C35.3616 19.1568 34.7185 22.4552 33.6622 25.3147C32.7011 27.9172 31.2573 30.6063 28.1962 30.8059C27.9281 30.8225 27.8207 30.7772 27.8091 30.7026C27.8091 30.7026 27.8081 30.7026 27.8076 30.7016C27.7653 30.6759 27.7245 30.6562 27.6826 30.6346C26.8118 30.8513 25.7701 31.2106 24.7843 32.3228C24.4054 33.2315 24.2113 34.2676 24.2078 34.9757C24.2018 36.2407 24.547 37.3066 25.185 38.0676C26.1546 38.6668 27.2744 39.0845 28.0248 39.3224C28.3338 39.3275 28.6573 39.3078 28.998 39.2534C29.4032 39.1894 29.5428 39.2594 29.5287 39.3713C29.5791 39.3839 29.6043 39.4031 29.5917 39.4272C29.2288 40.1333 28.7687 40.7633 28.2436 41.3252ZM42.4811 102.337C48.3397 95.7141 53.4433 88.1204 60.4485 82.9154C60.5613 82.8318 60.7009 82.7844 60.8446 82.7647C60.895 82.7481 60.9454 82.733 61.0003 82.7234C61.9447 82.5611 63.9122 82.0904 65.1389 81.6172C66.6664 81.0276 68.9211 79.9793 67.1744 78.2517C66.9496 78.0295 67.1331 77.7851 67.4359 77.6319C67.4158 77.6051 67.4022 77.5779 67.4022 77.5411C67.4022 76.8411 67.4032 76.1099 67.1164 75.4583C67.0192 75.2375 67.3926 75.0016 67.7892 74.9069C67.5655 74.8429 67.3941 74.6862 67.3901 74.4156C67.3795 73.6556 67.0368 73.1607 66.4315 72.7273C65.8474 72.309 66.6099 71.6997 67.2117 71.737C67.5372 70.4645 67.3588 69.2595 65.8293 68.9611C64.6173 68.7238 63.3629 68.8452 62.1372 68.8508C61.6524 68.8538 61.6423 68.6461 61.8233 68.4345C61.6625 68.4521 61.5229 68.4395 61.4438 68.3755C59.5423 66.8238 56.5931 71.2063 55.1911 73.6692C55.5373 73.7488 55.7449 73.9675 55.4043 74.2865C45.6722 83.4219 32.3993 87.3317 22.5004 96.2206C21.9571 96.709 20.7965 96.2196 21.5328 95.5584C21.9994 95.1401 22.4747 94.7354 22.9549 94.3388C22.9232 94.3081 22.8955 94.2738 22.8733 94.2325C22.0594 92.7362 21.6855 91.0061 21.6598 89.3042C21.6593 89.2689 21.6562 89.2321 21.6562 89.1968C21.6562 89.1888 21.6592 89.1822 21.6592 89.1732C21.3503 89.2891 21.0399 89.4015 20.7284 89.5118C18.4344 90.3277 16.1146 90.9794 13.7606 91.3967C12.5758 91.6063 11.3819 91.754 10.1804 91.8386C8.68113 91.945 7.16773 91.947 5.6392 91.8306C9.2617 100.675 15.3688 119.436 28.4154 113.548C31.0814 112.345 33.4697 110.788 35.676 109.001C38.1273 107.015 40.3554 104.741 42.4811 102.337ZM74.0011 111.836C72.9589 111.499 71.7227 111.255 70.6407 111.474C69.6393 111.677 70.2733 112.838 70.7651 113.532C71.9147 113.094 73.0042 112.529 74.0011 111.836ZM76.4831 109.61C76.3677 109.445 76.2644 109.276 76.1767 109.102C75.956 109.169 75.7196 109.21 75.5342 109.155C75.0161 108.999 74.5207 109.048 74.0253 109.177C74.1039 109.981 74.5197 110.416 75.0907 110.994C75.5866 110.57 76.0537 110.11 76.4831 109.61ZM78.8341 105.618C77.5354 106.001 77.0823 107.145 77.4724 108.283C77.5974 108.09 77.7188 107.895 77.8343 107.694C78.2163 107.023 78.5464 106.329 78.8341 105.618ZM69.3692 79.3494C69.2749 81.7578 63.4859 83.2128 61.2513 83.6447C56.5578 87.1664 52.8214 91.5327 49.1415 95.9868C49.203 101.875 50.4533 109.458 56.1259 112.611C59.9747 114.749 64.9499 115.23 69.3258 114.006C68.9166 113.48 68.5295 112.833 68.6873 112.215C68.8531 111.567 69.4967 111.218 70.0853 111.014C71.0101 110.693 72.0306 110.641 73.036 110.746C72.7498 110.373 72.5618 109.967 72.5451 109.372C72.5396 109.184 72.8954 109.069 73.0269 109.025C73.9255 108.72 74.944 108.42 75.9217 108.471C75.7211 107.769 75.7685 107.033 76.1878 106.313C76.8193 105.23 78.055 104.723 79.2338 104.514C82.2475 95.3699 77.9628 83.8261 69.3692 79.3494ZM123.521 63.3842C123.838 63.5763 124.272 63.4578 124.562 63.2759C125.457 62.715 126.709 63.4069 127.361 64.0444C127.79 64.4637 129.174 63.8887 128.706 63.4311C127.352 62.1042 125.275 61.6672 123.62 62.7059C123.382 62.8561 123.222 63.2053 123.521 63.3842ZM34.7518 23.574C35.0698 23.636 35.4886 23.5236 35.7703 23.382C36.3876 23.0711 37.0599 22.9007 37.6763 22.5888C37.7766 22.5374 38.1918 22.2965 37.8617 22.2325C37.5437 22.1705 37.1244 22.2828 36.8427 22.4255C36.2264 22.7374 35.5541 22.9078 34.9372 23.2187C34.8369 23.2701 34.4217 23.51 34.7518 23.574ZM127.956 60.3352C128.231 60.4955 128.628 60.3962 128.906 60.2889C128.978 60.2612 129.586 59.9623 129.324 59.8096C128.233 59.1746 127.317 58.2297 126.725 57.1144C126.505 56.6991 125.107 57.2092 125.265 57.506C125.882 58.6697 126.815 59.6705 127.956 60.3352ZM122.714 75.3045C123.779 75.3181 124.786 75.5802 125.558 76.3442C125.868 76.6501 127.229 76.1149 126.926 75.8135C125.959 74.858 124.628 74.6272 123.319 74.6096C123.004 74.6045 122.561 74.7356 122.347 74.9795C122.118 75.2436 122.544 75.3015 122.714 75.3045ZM209.335 133.057C209.311 133.196 209.181 133.315 209.01 133.404C208.878 133.5 208.708 133.574 208.517 133.591C205.458 133.868 202.324 133.767 199.257 133.827C193.178 133.946 187.098 134.051 181.018 134.154C180.797 134.157 180.574 134.162 180.352 134.165C171.634 134.312 162.917 134.451 154.199 134.585C154.202 134.711 154.208 134.836 154.209 134.963C154.21 135.025 154.175 135.082 154.12 135.136C153.81 135.439 152.75 135.566 152.748 135.356C152.725 132.623 152.401 129.971 151.295 127.484C149.933 128.362 148.528 129.15 147.074 129.817C146.927 129.957 146.656 130.072 146.391 130.117C145.227 130.616 144.034 131.044 142.806 131.376C140.746 131.934 138.64 132.304 136.519 132.489C136.267 132.739 135.435 133.016 135.186 132.801C135.119 132.744 135.053 132.684 134.987 132.623C134.976 132.613 134.963 132.601 134.951 132.591C134.596 132.606 134.241 132.618 133.885 132.623C126.133 132.749 118.354 130.453 112.027 125.928C111.845 125.987 111.652 126 111.49 125.933C110.983 125.722 110.56 125.456 110.202 125.147C110.152 125.164 110.099 125.179 110.044 125.186C105.909 125.79 104.012 122.144 101.461 119.641C101.125 119.644 100.804 119.49 100.777 119.128C100.697 118.061 100.785 116.912 101.012 115.733C100.815 115.767 100.639 115.763 100.549 115.686C96.7168 112.401 86.5115 109.05 89.5832 102.33C89.6548 102.173 89.9289 102.062 90.2197 102C88.8262 99.8582 87.966 97.355 89.0651 95.0222C89.1175 94.9118 89.2224 94.8231 89.3499 94.7566C88.7527 93.1197 88.9845 91.6391 91.1515 90.8962C91.2357 90.8665 91.3113 90.8529 91.3839 90.8448C91.3284 90.2209 91.3783 89.5965 91.5633 88.9857C91.6797 88.5996 92.413 88.454 92.7461 88.516C93.8856 88.7297 94.9812 89.1636 96.0209 89.7436C95.9987 89.0351 96.1141 88.3194 96.4477 87.7384C96.8852 86.9764 97.5675 86.7204 98.2761 86.7829C98.1814 85.782 99.0633 85.1379 99.9992 84.8753C101.275 84.518 102.416 85.1903 103.378 85.9947C103.95 86.4719 104.506 86.99 105.012 87.5489C105.762 86.355 106.864 85.9266 108.339 87.6406C108.953 88.3532 109.516 89.1732 110.19 89.8248C111.078 90.683 112.166 91.2777 113.12 92.0533C113.585 92.4313 113.935 92.8617 114.217 93.3238C114.159 92.6505 114.216 91.9863 114.39 91.3609C114.335 90.2819 114.48 89.1797 114.727 88.1163C116.001 82.6428 119.079 77.6208 119.761 72.0081C117.264 70.8006 117.206 68.501 117.964 66.0664C119.251 61.9283 121.435 58.0689 121.562 53.6446C121.567 53.4672 121.669 53.3236 121.815 53.2193C121.138 53.0353 120.431 52.9053 119.688 52.8463C119.622 52.8413 119.433 52.8176 119.424 52.7163C119.294 51.4408 119.621 50.4228 120.256 49.5262C120.623 49.0096 121.09 48.5309 121.637 48.0692C121.655 48.0536 121.677 48.0385 121.704 48.0239C121.651 47.9992 121.609 47.9659 121.584 47.9216C121.558 47.8742 121.552 47.8152 121.572 47.7432C122.466 44.4664 125.056 43.6711 127.807 44.1615C127.842 44.1252 127.884 44.0879 127.935 44.0471C135.488 38.1845 148.62 34.062 156.307 42.1285C159.763 45.7555 164.508 51.0573 162.456 56.5505C161.416 59.3369 159.714 61.7202 157.929 64.0575C160.071 62.6006 162.46 61.5574 164.856 61.895C167.157 62.2181 168.901 63.9255 168.832 66.3471C168.787 67.8877 168.246 69.4762 167.495 71.0239C180.631 70.5345 191.668 80.5589 198.521 90.9078C198.67 91.1311 198.815 91.3594 198.962 91.5861C199.178 91.5801 199.33 91.6008 199.305 91.6431C199.255 91.7237 199.2 91.7958 199.148 91.8724C206.808 103.831 211.772 118.818 209.335 133.057ZM208.284 121.41C207.993 118.198 207.398 114.995 206.551 111.85C206.503 111.677 206.455 111.503 206.406 111.331C206.163 111.426 205.91 111.502 205.807 111.503C205.545 111.505 205.281 111.512 205.019 111.515C205.043 111.628 205.071 111.739 205.104 111.85C205.223 112.267 205.393 112.679 205.584 113.087C205.82 113.593 204.384 114.039 204.124 113.479C203.875 112.945 203.666 112.403 203.549 111.85C203.529 111.749 203.514 111.645 203.498 111.543C203.21 111.551 202.921 111.56 202.632 111.569C202.653 111.664 202.675 111.757 202.696 111.852C202.76 112.139 202.827 112.428 202.895 112.715C203.045 113.342 201.583 113.726 201.435 113.106C201.336 112.687 201.24 112.27 201.153 111.852C201.136 111.772 201.123 111.693 201.108 111.613C200.387 111.636 199.667 111.654 198.946 111.667C198.944 111.728 198.944 111.789 198.943 111.85C198.916 113.392 198.995 114.925 199.107 116.458C199.438 116.41 199.765 116.345 200.089 116.258C200.97 116.017 201.177 116.801 200.298 117.042C199.926 117.143 199.55 117.22 199.171 117.279C199.276 118.594 199.391 119.91 199.472 121.228C200.785 121.184 202.095 121.203 203.406 121.245C203.406 120.962 203.406 120.681 203.406 120.398C203.406 119.975 204.866 119.762 204.866 120.007C204.866 120.437 204.866 120.868 204.866 121.298C206.005 121.342 207.144 121.387 208.284 121.41ZM155.053 67.861C154.196 69.0639 153.395 70.3032 152.728 71.6251C152.726 71.6271 152.724 71.6301 152.722 71.6321C153.929 73.6596 153.762 75.2279 151.689 75.8665C151.692 75.8725 151.697 75.8765 151.698 75.8821C152.603 80.0705 148.45 79.8826 145.419 79.5046C144.802 81.3345 143.991 83.1906 143.005 84.9892C143.199 86.6528 143.238 90.0632 140.528 91.0358C139.212 91.5075 138.377 91.8074 137.842 91.9984C137.515 92.33 137.181 92.6551 136.838 92.966C136.708 93.9442 136.326 95.7958 135.243 96.5195C134.509 97.0098 133.553 97.1827 132.765 97.2341C131.55 100.29 132.169 103.515 133.283 106.624C133.325 106.62 133.366 106.618 133.409 106.614C134.376 106.536 135.424 106.442 136.291 106.843C141.216 101.223 146.669 91.2908 154.153 88.5099C154.045 88.3945 154.043 88.2292 154.239 88.0206C156.91 85.1752 159.186 81.903 161.316 78.6433C163.255 75.6755 165.326 72.5831 166.607 69.257C167.354 67.3177 167.987 64.5076 165.612 63.3213C162.077 61.5538 157.641 65.4193 155.053 67.861ZM123.016 79.0697C122.345 78.5284 121.639 78.1298 120.901 78.159C121.444 78.289 122.135 78.5576 123.016 79.0697ZM120.71 103.966C120.91 102.396 121.35 100.938 122.025 99.5695C120.975 99.8194 119.631 99.8718 118.235 99.1975C117.363 98.7762 116.607 98.1619 115.989 97.4407C115.204 98.8816 115.093 100.769 115.253 102.363C115.414 102.389 115.576 102.411 115.739 102.445C115.969 102.496 116.103 102.595 116.165 102.714C117.763 102.828 119.28 103.27 120.71 103.966ZM131.716 106.715C130.634 103.589 130.101 100.325 131.262 97.2563C131.053 97.5299 129.928 98.9138 128.034 99.4485C125.928 100.042 124.092 98.7006 124.092 98.7006C124.092 98.7006 123.937 98.807 123.669 98.9506C122.783 100.592 122.237 102.36 122.087 104.3C122.078 104.413 121.99 104.508 121.864 104.585C121.879 104.596 121.896 104.603 121.913 104.614C121.956 104.64 121.952 104.68 121.918 104.726C122.099 104.76 122.211 104.829 122.264 104.919C125.435 106.426 128.405 106.834 131.716 106.715ZM122.115 52.3691C123.432 52.6367 124.731 53.0484 125.888 53.7489C128.753 55.4831 130.917 58.0483 132.788 60.7898C135.106 64.1835 136.941 68.0238 139.533 71.2139C141.628 73.7947 143.974 76.0978 145.919 78.8116C145.93 78.8263 145.934 78.8424 145.939 78.857C146.842 78.9996 147.773 79.1856 148.685 79.1866C148.856 79.1866 149.025 79.1805 149.194 79.1669C150.108 79.0893 150.375 78.3767 150.39 77.5991C150.399 77.1415 150.321 76.6622 150.237 76.2752C150.226 76.2213 150.254 76.1678 150.305 76.1169C149.579 76.1013 150.058 75.3806 150.71 75.305C151.485 75.2123 151.892 74.9321 152.044 74.5315C152.141 74.2714 152.133 73.9625 152.043 73.6198C151.561 71.7783 148.775 69.0014 148.139 68.1381C145.7 64.8306 143.526 61.4067 141.996 57.5796C141.812 57.1189 143.253 56.679 143.456 57.188C144.729 60.3761 146.439 63.3419 148.443 66.1253C149.533 67.6382 150.834 68.9939 151.944 70.4882C152.331 69.8189 152.751 69.1713 153.192 68.5363C153.022 68.4249 152.981 68.2475 153.224 68.0152C153.568 67.6876 153.935 67.3399 154.32 66.9856C156.382 64.2632 158.66 61.6849 160.164 58.6172C162.827 53.181 160.202 48.418 156.439 44.3132C152.753 40.292 148.044 38.0156 142.481 38.6693C141.554 38.7786 140.643 38.9419 139.748 39.1546C139.658 39.1753 139.57 39.1989 139.481 39.2216C135.657 40.1736 132.13 42.0252 128.982 44.4452C131.448 45.1876 133.867 46.8164 135.16 48.4906C135.541 48.9839 134.134 49.4995 133.807 49.0772C131.603 46.2217 124.509 42.1663 123.031 47.5769C123.005 47.6731 122.933 47.7588 122.835 47.8319C123.003 47.8475 123.083 47.8999 122.965 47.9992C121.72 49.052 119.392 51.8142 122.115 52.3691ZM120.591 70.9886C120.683 71.0329 120.748 71.0838 120.799 71.1383C121.064 71.1292 121.277 71.1982 121.258 71.3872C121.051 73.4545 120.494 75.4366 119.814 77.3874C122.526 76.1678 124.293 79.0923 126.744 80.5216C130.793 82.8842 132.331 77.7498 132.65 74.795C132.897 72.4995 133.297 70.4453 134.91 68.7051C135.118 68.4818 135.606 68.4088 135.935 68.4844L135.945 68.4678C135.26 67.3752 134.598 66.2654 133.913 65.1673C131.143 60.7299 127.982 55.5889 123.036 53.629C122.925 56.8524 121.772 59.8419 120.609 62.8148C119.701 65.1315 117.437 69.4646 120.591 70.9886ZM105.89 88.6541C105.894 88.6611 105.899 88.6657 105.903 88.6727C106.05 88.894 105.934 89.1066 105.718 89.2573C105.682 89.3949 105.646 89.533 105.612 89.6726C105.564 89.8646 105.4 90.0143 105.199 90.1126C105.377 90.5792 105.49 91.0792 105.628 91.5645C106.036 92.9897 107.115 93.918 107.917 95.1406C109.462 97.4941 109.788 100.395 110.061 103.142C111.232 102.602 112.471 102.288 113.753 102.26C113.658 100.682 113.866 99.0574 114.572 97.7204C114.392 97.6781 114.241 97.5788 114.176 97.4004C113.643 95.9586 113.434 94.298 112.278 93.1797C111.353 92.2852 110.164 91.7409 109.243 90.8499C108.427 90.0617 107.763 89.1303 107.002 88.2887C106.669 87.9198 106.38 87.3624 106.209 87.7681C106.084 88.0594 105.981 88.3547 105.89 88.6541ZM100.235 87.4728C100.692 88.0554 101.226 88.5603 101.782 89.0467C101.818 89.0784 101.84 89.1107 101.856 89.1429C102.563 88.7453 103.609 88.5256 104.242 88.832C103.348 87.5978 101.956 86.1106 100.569 85.7558C99.2911 85.4292 99.8651 87.0021 100.235 87.4728ZM97.7207 90.8529C98.8325 91.6874 99.8565 92.6707 100.77 93.7063C100.562 92.2957 100.513 90.7985 101.182 89.7467C100.901 89.8147 100.604 89.8046 100.437 89.659C100.021 89.2956 99.5244 88.8763 99.1087 88.4061C98.9806 88.3991 98.8592 88.3678 98.7599 88.2958C98.6032 88.1834 98.0347 87.8125 97.9395 87.8649C97.7888 87.9475 97.6618 88.2978 97.6204 88.4918C97.4531 89.2704 97.4874 90.0773 97.7187 90.8403C97.7202 90.8438 97.7197 90.8478 97.7207 90.8529ZM101.252 114.656C102.337 110.519 105.082 106.217 108.639 103.925C108.424 101.733 108.255 99.4001 107.378 97.3591C106.856 96.1435 106.2 94.9809 105.294 94.0057C104.905 93.5864 104.591 93.284 104.409 92.7397C104.186 92.0725 104.06 91.3684 103.816 90.7093C103.479 89.7951 102.355 89.281 102.231 90.6452C102.083 92.2932 102.347 93.9417 102.635 95.5609C102.657 95.6799 102.592 95.7892 102.481 95.883C102.56 95.9953 102.641 96.1062 102.718 96.2176C103.021 96.6616 101.604 97.1313 101.355 96.7669C100.134 94.9814 98.4989 93.0451 96.5999 91.569C96.481 91.5297 96.3782 91.4597 96.3116 91.3543C95.2311 90.552 94.0725 89.9064 92.858 89.5194C92.4014 93.1701 96.4301 97.0728 99.1716 98.8115C99.5138 99.0292 98.2171 99.6204 97.8094 99.3608C95.4877 97.8882 92.3228 94.8912 91.5406 91.7736C91.4968 91.7953 91.4499 91.815 91.399 91.8326C88.2341 92.9181 94.0554 99.1038 95.0664 100.334C95.5169 100.881 94.1214 101.442 93.7248 100.959C92.8867 99.9394 91.1919 98.1231 90.0917 96.2826C89.5751 99.2333 92.0547 102.383 93.9652 104.356C94.4369 104.843 93.0495 105.418 92.6226 104.977C92.0007 104.334 91.3491 103.589 90.7519 102.779C88.8701 108.529 97.2616 111.713 101.252 114.656ZM109.405 124.23C107.557 121.327 109.363 116.343 110.79 113.622C112.354 110.638 114.984 106.697 118.408 105.242C118.894 105.035 119.396 104.878 119.913 104.781C119.917 104.781 119.921 104.78 119.924 104.779C118.646 104.089 117.298 103.619 115.87 103.425C115.696 103.543 115.473 103.608 115.246 103.559C107.914 101.971 102.028 112.264 102.241 118.636C102.36 118.655 102.467 118.695 102.545 118.769C104.62 120.701 106.328 124.131 109.405 124.23ZM145.594 129.665C145.383 129.162 145.149 128.671 144.894 128.192C144.674 128.254 144.441 128.279 144.241 128.199C143.925 128.072 144.205 127.782 144.385 127.688C144.444 127.656 144.503 127.626 144.563 127.594C144.238 127.016 143.901 126.444 143.567 125.869C143.398 125.993 143.233 126.122 143.073 126.259C142.769 126.52 141.314 126.631 141.926 126.107C142.323 125.766 142.751 125.473 143.191 125.201C142.873 124.631 142.577 124.048 142.316 123.447C141.341 123.865 140.334 124.178 139.316 124.457C139.491 124.84 139.663 125.224 139.826 125.613C139.978 125.977 138.547 126.439 138.366 126.004C138.202 125.614 138.029 125.227 137.853 124.842C137.173 125.016 136.495 125.189 135.823 125.384C136.085 125.986 136.416 126.55 136.905 127.009C137.332 127.41 135.953 127.973 135.553 127.598C135.026 127.105 134.671 126.495 134.388 125.842C134.262 125.888 134.136 125.932 134.011 125.979C133.799 126.059 133.588 126.143 133.379 126.233C133.383 126.31 133.389 126.388 133.396 126.465C133.556 128.391 134.575 130.292 135.927 131.689C136.04 131.804 136.154 131.916 136.271 132.024C136.343 132.018 136.414 132.015 136.486 132.011C139.008 131.812 141.479 131.291 143.817 130.404C144.419 130.178 145.011 129.929 145.594 129.665ZM199.41 132.933C202.237 132.878 205.119 132.959 207.948 132.757C208.231 130.97 208.399 129.167 208.459 127.356C208.513 125.688 208.479 124.015 208.358 122.342C208.328 122.342 208.298 122.341 208.267 122.341C207.133 122.326 205.999 122.281 204.866 122.233C204.866 122.799 204.866 123.365 204.866 123.931C204.866 124.354 203.406 124.567 203.406 124.323C203.406 123.606 203.406 122.889 203.406 122.174C201.889 122.117 200.372 122.082 198.854 122.152C198.656 122.161 198.515 122.132 198.42 122.079C198.203 122.079 198.038 122.023 198.031 121.891C197.944 120.397 197.81 118.909 197.692 117.419C197.002 117.456 196.307 117.458 195.617 117.458C195.367 117.458 195.026 117.282 195.21 116.992C195.405 116.688 195.837 116.583 196.172 116.583C196.656 116.583 197.143 116.586 197.628 116.572C197.513 114.945 197.436 113.319 197.492 111.683C197.306 111.668 197.362 111.59 197.523 111.497C197.703 111.099 198.723 110.917 198.919 111.13C199.617 111.122 200.314 111.111 201.011 111.091C200.846 110.173 200.728 109.249 200.713 108.302C200.704 107.712 202.174 107.448 202.185 108.166C202.2 109.142 202.336 110.098 202.525 111.047C202.835 111.037 203.146 111.029 203.458 111.02C203.454 110.682 203.488 110.341 203.584 109.994C203.735 109.444 205.216 109.241 205.051 109.838C204.944 110.228 204.919 110.607 204.946 110.98C205.398 110.969 205.852 110.962 206.304 110.958C205.535 108.262 204.582 105.614 203.478 103.048C201.961 99.5256 200.161 96.1561 198.162 93.0219C198.133 93.0487 198.103 93.0733 198.073 93.0985C196.31 94.6815 193.898 95.2414 191.649 96.148C191.333 96.276 189.937 96.3703 190.823 96.013C193.283 95.0207 195.971 94.5218 197.598 92.3063C197.615 92.2816 197.631 92.2549 197.65 92.2307C197.3 91.698 196.941 91.1638 196.569 90.6291C191.19 82.9033 183.557 75.2476 174.403 72.7127C173.418 72.44 172.416 72.2243 171.396 72.0777C169.983 71.873 168.537 71.798 167.062 71.863C166.053 73.7468 164.801 75.5404 163.828 77.0709C163.361 77.8062 162.887 78.5415 162.408 79.2758C161.202 81.1243 159.948 82.9542 158.604 84.708C157.729 85.849 156.814 86.9542 155.85 88.0105C157.858 87.5821 160.011 87.6865 162.33 88.5195C163.211 88.8355 162.152 89.7774 161.498 89.5411C156.51 87.7505 152.273 89.9654 148.571 93.5385C146.447 95.5876 144.499 98.0833 142.685 100.526C141.485 102.144 140.344 103.739 139.252 105.166C139.269 105.185 139.281 105.207 139.288 105.232C139.879 107.475 141.24 109.491 143.183 110.776C143.462 110.959 142.188 111.546 141.814 111.299C140.118 110.178 138.843 108.479 138.134 106.58C137.746 107.054 137.363 107.499 136.985 107.908C136.657 108.263 135.875 108.226 135.653 107.936C135.536 107.821 135.399 107.729 135.247 107.651C134.737 107.388 134.056 107.319 133.319 107.345C133.234 107.458 133.102 107.545 132.95 107.603C132.694 107.699 132.386 107.708 132.167 107.587C132.109 107.554 132.057 107.511 132.014 107.459C131.74 107.493 131.47 107.53 131.206 107.566C130.527 107.661 129.901 107.747 129.43 107.736C128.979 107.726 128.535 107.696 128.094 107.655C127.257 109.792 126.53 111.973 125.628 114.085C125.406 114.609 123.938 114.705 124.249 113.978C125.161 111.843 125.892 109.637 126.74 107.478C124.886 107.169 123.11 106.59 121.363 105.781C121.352 105.78 121.342 105.781 121.332 105.78C117.073 105.301 113.484 111.013 111.955 114.257C110.85 116.603 108.956 121.472 110.923 123.911C111.164 123.859 111.396 123.858 111.515 123.955C117.614 128.996 126.189 132.197 134.456 132.104C133.927 131.545 133.449 130.91 133.054 130.227C133.01 130.235 132.968 130.238 132.929 130.238C132.093 130.238 131.257 130.238 130.42 130.238C130.157 130.238 129.701 130.175 129.756 129.8C129.805 129.465 130.261 129.233 130.566 129.233C131.228 129.233 131.889 129.233 132.55 129.233C132.187 128.392 131.959 127.506 131.917 126.621C131.565 126.587 131.352 126.451 131.847 126.211C132.601 125.844 133.379 125.554 134.169 125.301C133.934 124.664 133.743 124.009 133.525 123.387C133.342 122.863 134.793 122.445 134.985 122.995C135.181 123.552 135.351 124.14 135.554 124.713C135.573 124.767 135.594 124.822 135.614 124.876C136.283 124.696 136.956 124.528 137.626 124.353C137.576 124.245 137.527 124.137 137.478 124.029C137.155 123.326 136.839 122.619 136.57 121.891C136.429 121.508 137.871 121.068 138.03 121.5C138.31 122.255 138.639 122.988 138.974 123.718C139.01 123.796 139.046 123.876 139.082 123.954C139.689 123.775 140.29 123.582 140.88 123.355C141.278 123.201 141.672 123.034 142.059 122.846C142.089 122.831 142.123 122.819 142.161 122.807C142.395 122.466 143.427 122.221 143.584 122.621C143.835 123.261 144.138 123.873 144.461 124.474C145.101 124.129 145.744 123.792 146.357 123.403C146.765 123.145 148.065 123.203 147.234 123.729C146.45 124.225 145.611 124.633 144.803 125.089C145.15 125.7 145.511 126.304 145.862 126.915C146.085 126.798 146.309 126.68 146.533 126.564C146.823 126.413 147.239 126.282 147.563 126.412C147.878 126.539 147.599 126.828 147.419 126.923C147.018 127.131 146.616 127.341 146.215 127.551C146.475 128.024 146.715 128.508 146.935 129.003C146.937 129.008 146.939 129.012 146.942 129.015C147.055 128.958 147.166 128.9 147.279 128.842C148.57 128.168 149.819 127.418 151.027 126.598C151.069 126.569 151.111 126.541 151.154 126.512C157.946 121.874 163.53 115.185 168.93 109.238C169.2 108.94 170.638 108.792 170.271 109.196C165.031 114.965 159.331 121.9 152.544 126.643C153.632 128.876 154.054 131.246 154.168 133.692C162.908 133.557 171.646 133.418 180.385 133.27C186.729 133.166 193.069 133.058 199.41 132.933ZM162.222 104.3C162.314 104.643 161.886 104.896 161.618 104.964C161.544 104.983 161.468 104.999 161.393 105.017C161.285 106.395 161.168 107.776 161.148 109.16C161.14 109.666 159.682 109.907 159.688 109.552C159.689 109.492 159.693 109.433 159.694 109.373C159.134 109.564 158.571 109.72 158.008 109.85C158.077 110.184 158.162 110.516 158.282 110.844C158.442 111.286 156.996 111.718 156.821 111.235C156.695 110.889 156.608 110.538 156.538 110.185C156.534 110.167 156.531 110.15 156.528 110.131C156.101 110.196 155.674 110.248 155.244 110.29C155.242 110.384 155.242 110.478 155.241 110.572C155.238 110.762 155.236 110.952 155.236 111.142C155.236 111.653 153.772 111.955 153.773 111.311C153.773 111.065 153.774 110.818 153.778 110.572C153.779 110.514 153.781 110.456 153.782 110.398C153.575 110.408 153.368 110.416 153.159 110.423C152.027 110.463 150.882 110.46 149.726 110.456C149.022 110.454 149.4 110.091 149.842 109.889C149.836 109.863 149.83 109.837 149.83 109.81C149.825 108.513 149.789 107.217 149.752 105.92C149.507 105.92 149.261 105.92 149.016 105.92C148.73 105.92 148.702 105.737 148.929 105.592C149.166 105.441 149.452 105.358 149.737 105.33C149.697 103.956 149.657 102.584 149.651 101.209C149.651 101.107 149.704 101.013 149.788 100.934C149.401 100.691 150.139 100.07 150.658 100.116C152.044 100.237 153.413 100.157 154.778 99.9998C154.718 99.6395 154.679 99.2736 154.672 98.8967C154.664 98.4577 156.128 98.2254 156.132 98.5061C156.141 98.9501 156.189 99.38 156.271 99.8013C157.622 99.5997 158.97 99.3593 160.327 99.187C160.413 99.1764 160.485 99.1754 160.55 99.1779C160.964 99.0312 161.485 99.0201 161.506 99.2515C161.647 100.842 161.58 102.425 161.469 104.007C161.744 103.964 162.14 103.994 162.222 104.3ZM159.714 108.721C159.721 108.545 159.725 108.368 159.735 108.191C159.787 107.224 159.866 106.258 159.941 105.291C159.598 105.336 159.255 105.368 158.909 105.373C158.646 105.377 158.191 105.306 158.245 104.934C158.294 104.594 158.748 104.371 159.056 104.366C159.38 104.361 159.697 104.333 160.013 104.291C160.045 103.82 160.071 103.349 160.09 102.877C160.129 101.951 160.13 101.023 160.069 100.095C160.01 100.103 159.952 100.111 159.892 100.119C159.456 100.177 159.021 100.239 158.585 100.306C158.32 100.347 158.054 100.387 157.789 100.429C157.35 100.498 156.912 100.567 156.475 100.634C156.62 101.115 156.804 101.588 157.024 102.056C157.154 102.335 155.743 102.83 155.564 102.448C155.317 101.92 155.114 101.388 154.963 100.845C153.688 101.007 152.408 101.107 151.116 101.072C151.121 102.136 151.147 103.202 151.175 104.265C151.186 104.611 151.193 104.957 151.205 105.304C151.205 105.307 151.205 105.312 151.205 105.315C151.506 105.315 151.807 105.315 152.109 105.315C152.396 105.315 152.423 105.498 152.197 105.641C151.913 105.822 151.556 105.906 151.22 105.915C151.247 106.833 151.268 107.752 151.281 108.672C151.285 108.998 151.293 109.325 151.295 109.65C151.295 109.687 151.287 109.722 151.275 109.756C151.522 109.758 151.769 109.759 152.014 109.759C152.612 109.76 153.207 109.755 153.8 109.736C153.825 109.2 153.87 108.666 153.95 108.131C154.029 107.605 155.505 107.353 155.414 107.962C155.329 108.525 155.285 109.09 155.261 109.655C155.653 109.623 156.044 109.581 156.433 109.527C156.383 109.01 156.389 108.487 156.462 107.958C156.526 107.492 157.992 107.219 157.919 107.759C157.849 108.268 157.849 108.767 157.905 109.26C157.973 109.245 158.041 109.226 158.108 109.209C158.611 109.085 159.112 108.935 159.609 108.75C159.643 108.741 159.679 108.731 159.714 108.721Z" fill="#175CD3"/>
</svg>
