<svg width="192" height="140" viewBox="0 0 192 140" fill="none" xmlns="http://www.w3.org/2000/svg">
<path d="M29.8271 68.709C30.03 68.5104 30.4357 68.4738 30.7107 68.5566C30.7439 68.541 30.77 68.5297 30.7737 68.5284C31.0051 68.4482 31.3109 68.3579 31.5528 68.4415C31.9866 68.591 32.3961 68.8018 32.8299 68.9522C33.0164 69.0164 32.4784 69.2588 32.4587 69.2663C32.2273 69.3461 31.9215 69.4364 31.6796 69.3532C31.5221 69.2986 31.3697 69.2327 31.216 69.168C31.2374 69.604 31.3945 70.0059 31.586 70.3948C31.7178 70.6631 31.2676 70.9092 31.0845 70.9575C30.8107 71.0319 30.5024 70.9928 30.3689 70.7211C30.2505 70.4804 30.1581 70.2444 30.0917 70.0017C29.1342 71.4023 28.6386 73.1141 27.4014 74.3219C27.1133 74.6033 26.6425 74.7163 26.3338 74.4055C25.9512 74.02 25.6165 73.6428 25.3876 73.1481C25.1457 72.6257 26.351 72.2746 26.6043 72.8218C26.687 73.0007 26.8033 73.1624 26.9302 73.3148C28.0238 71.8735 28.5021 70.005 29.8271 68.709ZM21.439 71.8449C21.4504 71.8504 21.4718 71.8571 21.5113 71.8731C21.5776 71.8995 21.6377 71.9646 21.6877 72.0138C21.8216 72.1452 21.8905 72.3308 21.9392 72.5085C22.0304 72.8445 23.247 72.5173 23.1559 72.1822C23.0769 71.8924 22.9207 71.6135 22.6658 71.4426C22.308 71.2036 21.859 71.2595 21.463 71.3452C21.3319 71.3733 20.8603 71.53 20.9174 71.7425C20.9615 71.9096 21.2459 71.8806 21.439 71.8449ZM24.7064 67.355C24.9147 67.3638 25.1117 67.4798 25.2944 67.5709C25.4981 67.6721 25.7937 67.5948 26.0104 67.5209C26.3787 67.7065 27.3615 67.2966 27.0725 67.0031C26.6479 66.5705 26.2859 66.0821 25.9231 65.5979C25.6833 65.277 24.5078 65.6898 24.7913 66.0666C24.9937 66.3374 25.199 66.6054 25.412 66.8674C25.147 66.8742 24.8555 66.9586 24.6367 67.0946C24.4381 67.2177 24.4771 67.3441 24.7064 67.355ZM28.833 66.3815C29.1715 66.5919 30.2962 66.0993 29.8015 65.7919C28.7024 65.109 28.8293 63.4732 27.8386 62.6551C27.5051 62.38 26.3745 62.8563 26.7088 63.1318C27.7625 64.0016 27.6147 65.6252 28.833 66.3815ZM33.6875 67.3827C33.8987 67.3546 34.3061 67.2496 34.3914 67.0153C34.4783 66.7771 33.9865 66.8217 33.8878 66.8347C33.2247 66.9241 32.6153 66.9191 32.0584 66.5046C31.7565 66.2799 30.6679 66.7587 30.9191 66.946C31.7334 67.5532 32.7258 67.5129 33.6875 67.3827ZM92.048 20.9713C90.644 20.9041 91.0421 18.6459 91.1652 17.7476C91.2441 17.1706 90.0065 17.3587 89.9376 17.861C89.7318 19.3637 89.5395 21.6907 91.6091 21.7898C91.8951 21.8029 92.2584 21.7033 92.4053 21.4312C92.5439 21.1742 92.2865 20.9835 92.048 20.9713ZM96.183 22.0057C95.5266 22.8465 94.7551 23.2656 93.6846 23.2862C93.0307 23.2988 92.7157 24.09 93.5489 24.0736C94.9911 24.0463 96.2909 23.4298 97.1813 22.2888C97.6445 21.6958 96.4807 21.6244 96.183 22.0057ZM93.2638 15.1576C93.2822 15.9552 93.525 16.7061 93.7749 17.457C93.8891 17.8014 95.0969 17.4482 94.9915 17.1319C94.7417 16.3806 94.4993 15.6305 94.4804 14.8322C94.4745 14.5504 93.255 14.7599 93.2638 15.1576ZM88.962 15.854C88.9557 15.5726 87.7361 15.7826 87.7453 16.179C87.7638 16.9765 88.0061 17.7274 88.256 18.4788C88.3703 18.8223 89.5781 18.4691 89.4727 18.1525C89.2232 17.4016 88.9809 16.6511 88.962 15.854ZM92.1991 13.3795C93.05 13.1208 93.9622 13.1531 94.8429 13.1527C95.5467 13.1523 95.7693 12.2376 94.9445 12.238C93.9487 12.2384 92.9307 12.2283 91.969 12.5215C91.2269 12.7474 91.4495 13.6084 92.1991 13.3795ZM190.937 138.098C187.693 140.33 182.26 139.171 178.847 138.173C177.19 137.689 174.247 137.297 173.029 135.871C172.061 134.738 172.275 133.035 172.273 131.647C172.273 131.504 172.405 131.385 172.582 131.301C172.269 131.176 171.967 130.94 171.677 130.554C171.62 130.546 171.572 130.529 171.543 130.499C167.668 126.597 163.799 122.689 159.975 118.74C157.532 116.218 155.49 113.642 153.431 110.787C150.654 106.939 145.783 104.31 144.174 99.7155C144.163 99.6844 144.174 99.6508 144.2 99.6168C143.84 99.5807 143.483 99.5353 143.134 99.4799C143.077 99.4711 143.029 99.458 142.986 99.4425C142.861 99.4689 142.736 99.4681 142.635 99.4236C136.323 96.6774 133.715 89.4648 128.124 85.8934C128.092 85.9408 128.053 85.9896 127.996 86.0408C123.429 90.1137 119.262 94.9022 117.089 100.697C124.978 106.655 123.147 118.151 127.912 126.03C127.996 126.08 128.042 126.161 128.029 126.274C128.073 126.285 128.114 126.301 128.146 126.324C129.332 127.2 130.675 128.208 131.241 129.629C131.485 130.242 131.957 131.716 131.378 132.309C129.998 133.723 128.556 135.138 126.966 136.318C124.986 137.789 122.678 137.89 120.26 137.938C117.365 137.995 114.486 137.746 111.594 137.717C111.321 137.714 111.23 137.633 111.243 137.525C111.215 137.505 111.205 137.481 111.223 137.449C113.262 133.935 119.562 133.579 120.164 129.281C120.173 129.215 120.231 129.152 120.315 129.098C120.279 129.044 120.242 128.993 120.207 128.935C120.124 128.796 120.146 128.663 120.224 128.55C120.083 128.521 119.963 128.45 119.902 128.325C116.841 122.087 111.192 117.472 106.94 112.092C103.184 107.34 99.9858 101.736 101.759 95.517C101.784 95.4301 101.843 95.3532 101.922 95.289C101.547 95.3852 101.144 95.3163 101.249 95.0093C104.03 86.8925 109.077 80.1587 114.134 73.3413C114.139 73.3337 114.146 73.3283 114.153 73.3211C111.84 71.7937 110.47 69.0635 111.218 66.1623C111.225 66.1358 111.236 66.1106 111.251 66.0863C110.386 66.13 109.522 66.203 108.656 66.3223C108.566 66.3345 108.495 66.3387 108.435 66.3379C105.26 67.4407 100.338 71.8025 98.8805 66.2476C98.8733 66.2207 98.8729 66.1934 98.8771 66.1673C98.7591 66.0934 98.6549 66.0052 98.5617 65.9065C96.2745 67.7296 93.6724 68.7678 90.7116 69.0899C87.5433 69.4347 84.5972 68.4994 81.4861 68.2764C78.0587 68.032 74.5603 68.2966 71.1733 68.8447C68.0718 69.3457 64.6709 69.9446 61.9562 71.6236C61.8344 71.6992 61.4778 71.7576 61.2078 71.7601C61.0196 71.871 60.8277 71.976 60.635 72.0793C59.0504 74.0754 56.8699 75.8128 55.1442 77.6704C52.9428 80.0398 50.7782 82.445 48.6914 84.9165C48.1366 85.573 47.599 86.2743 47.0606 86.9878C48.7246 86.9689 50.0861 87.7795 51.5464 88.519C53.6827 89.6026 56.1543 90.6244 58.4536 91.2976C62.3216 92.4315 66.087 92.2337 69.0844 95.3264C69.1041 95.3474 69.1171 95.3679 69.1297 95.3877C69.2456 95.4112 69.3414 95.4624 69.3901 95.554C69.9852 96.6833 70.2183 97.7891 70.2271 98.8835C70.4266 98.8403 70.6076 98.8398 70.6752 98.9175C72.8141 101.376 75.0198 103.767 77.4791 105.911C80.0229 108.129 82.783 110.106 85.2629 112.394C87.5396 114.495 89.6835 116.738 91.9942 118.801C93.3805 120.039 95.9419 122.713 98.1405 122.79C98.1275 122.733 98.119 122.676 98.1035 122.619C98.0733 122.505 98.3232 122.372 98.6054 122.289C100.894 119.505 104.324 114.922 108.449 116.24C111.345 117.165 107.618 123.533 106.877 125.003C105.8 127.136 104.976 129.43 103.615 131.406C102.695 132.743 101.678 134.048 100.473 135.144C100.009 135.565 99.4604 136.292 98.749 136.268C97.7075 136.23 96.3501 135.397 95.5123 134.87C93.8463 133.823 92.4331 132.482 92.1433 130.453C92.137 130.409 92.145 130.368 92.1588 130.328C89.7272 127.66 86.5846 125.82 83.4188 124.144C80.613 122.659 77.858 120.991 74.9929 119.631C71.1838 117.822 66.5032 116.301 63.786 112.94C61.1801 116.176 58.5242 119.368 55.7519 122.464C55.6507 122.577 55.489 122.642 55.3181 122.668C52.5387 125.231 50.0567 128.268 46.6516 130.025C43.1499 131.832 39.4516 132.383 35.5488 132.364C28.1208 132.327 19.7125 131.982 14.192 126.335C14.0085 126.42 13.7977 126.455 13.6326 126.388C11.3274 125.45 9.49086 122.766 8.15998 120.805C6.51453 118.381 5.13156 115.768 4.00688 113.05C3.55793 111.966 3.15266 110.864 2.78896 109.75C2.5101 108.896 2.2472 108.036 2.01958 107.168C0.23428 100.372 -0.20963 93.232 0.66097 86.2588C1.44464 79.9823 5.97319 74.6344 11.4223 71.6165C11.4962 71.5749 11.5714 71.5493 11.6445 71.5354C11.7646 71.4149 11.8843 71.3032 11.9821 71.2066C12.576 70.6186 13.2026 70.0647 13.838 69.5217C13.8153 69.509 13.7943 69.4948 13.7767 69.4771C10.6143 66.3303 9.55806 61.2461 11.0393 57.0502C11.1187 56.3094 11.5454 55.5228 12.1745 54.758C12.3971 54.4199 12.6381 54.0923 12.9035 53.7794C15.5943 50.607 20.702 48.3551 24.2436 51.1996C24.3091 51.2248 24.3667 51.247 24.4208 51.2693C24.4322 51.2453 24.4414 51.2231 24.457 51.1979C26.2389 48.3702 30.0241 47.0927 32.9803 49.0392C34.6198 50.119 35.5198 51.6817 36.2825 53.4498C36.553 54.0764 36.8091 54.6396 37.0872 55.1431C37.6629 55.7865 37.3496 56.3287 40.8703 57.0834C44.7907 57.9237 45.6298 59.9593 45.4055 62.0495C45.1813 64.1397 41.5002 66.1883 39.1202 66.4844C38.5369 66.5571 37.8944 66.4987 37.222 66.3345C35.3514 68.717 33.4721 71.0974 31.9614 73.7319C31.0434 75.3328 30.1505 76.9581 28.7045 78.0315C29.8376 78.7824 30.9997 79.485 32.1685 80.1767C32.9538 80.6408 33.7396 81.1053 34.5211 81.5761C35.3317 82.0649 36.1351 82.5655 36.9238 83.0905C39.8027 80.9524 42.1146 78.2667 44.8747 75.9976C47.4785 73.8566 50.3679 72.1389 53.2115 70.3461C52.9012 70.2041 52.6219 70.0134 52.5442 69.7388C52.3951 69.2121 52.7328 68.7888 53.0822 68.4285C53.2863 68.2176 53.5996 68.1169 53.8894 68.1118C53.9288 68.111 53.9885 68.1194 54.0485 68.1341C54.0767 68.1307 54.1078 68.1294 54.1363 68.1265C54.0796 68.0568 54.0317 67.9829 54.0082 67.8989C53.8591 67.3722 54.1968 66.9489 54.5462 66.5886C54.7503 66.3777 55.0636 66.2765 55.3534 66.2719C55.3563 66.2719 55.361 66.2723 55.3643 66.2728C55.172 66.1295 55.0275 65.9557 55.0241 65.739C55.0162 65.1951 55.3454 64.8532 55.7209 64.4963C55.812 64.4102 56.0283 64.3434 56.2437 64.3144C56.2282 64.2674 56.2135 64.2195 56.2127 64.1683C56.2047 63.6248 56.5339 63.2826 56.9094 62.926C57.0333 62.8084 57.3886 62.7261 57.6578 62.7299C57.8682 62.194 58.1811 61.7035 58.7027 61.4158C59.2881 61.0937 59.8874 61.1831 60.3909 61.5296C60.3939 61.5292 60.3968 61.5283 60.3998 61.5283C60.7798 61.5115 61.1356 61.4435 61.4816 61.3503C60.3636 57.2207 65.9774 57.2148 68.8647 57.7217C69.0755 57.7587 69.1877 57.8431 69.2301 57.9456C76.3393 61.2121 83.7397 56.7403 90.9942 57.5747C91.5377 55.4005 92.1479 53.0714 91.6931 50.835C90.1745 50.3789 88.7184 49.7414 87.6874 48.7037C87.4073 48.4219 88.036 48.0813 88.4879 48.0947C93.0471 41.8565 91.1736 27.9155 101.501 28.1784C100.056 27.2293 98.3429 27.27 96.5337 27.7454C94.16 28.3687 91.4655 28.9104 89.5554 26.9152C86.8685 24.1081 85.8542 19.9365 85.5048 15.9522C85.4153 15.9871 85.3238 16.0089 85.2369 16.0081C83.2126 15.9854 80.8595 15.9254 78.9755 15.072C78.2112 14.7255 77.4464 13.9502 78.4447 13.2972C80.0238 12.2653 82.1161 11.9764 84.0828 11.6853C84.9668 5.56341 90.0565 1.50271 96.0179 0.730801C102.046 -0.0499253 107.456 3.34554 108.527 9.46242C108.746 12.3212 108.889 15.1484 107.271 17.462C107.865 19.9231 109.649 21.7226 111.772 22.9859C117.564 23.1161 123.628 21.3959 128.312 25.8867C133.609 30.9662 136.943 37.0894 140.661 43.3247C140.673 43.3444 140.674 43.3633 140.682 43.3831C140.694 43.4053 140.703 43.4288 140.709 43.4557C140.714 43.4809 140.717 43.5036 140.718 43.5275C140.718 43.5317 140.719 43.5343 140.719 43.5372C140.717 43.5733 140.71 43.6077 140.708 43.6434C140.631 44.6388 140.259 45.5295 139.679 46.317C141.395 49.7834 143.182 53.4863 144.033 57.2677C144.429 59.0316 144.086 60.5019 143.235 61.6858C143.258 61.7228 143.272 61.7648 143.271 61.8173C143.233 63.0482 142.99 64.2854 142.583 65.4719C142.724 65.4471 142.858 65.4504 142.956 65.4975C147.161 67.4697 148.212 72.8734 149.489 76.869C150.291 79.3813 151.388 81.7911 152.378 84.2341C153.639 87.3524 155.021 90.3581 157.093 93.0312C157.177 93.1404 157.173 93.2492 157.116 93.3462C157.115 93.3496 157.115 93.3521 157.114 93.355C156.958 93.8166 156.768 94.2449 156.55 94.6494C158.869 96.4569 159.266 99.2917 160.654 101.755C162.531 105.089 166.203 106.707 168.6 109.555C173.243 115.071 175.594 122.037 180.072 127.661C180.278 127.609 180.483 127.599 180.601 127.673C182.462 128.858 195.083 135.247 190.937 138.098ZM85.2931 11.5001C85.5875 11.4493 85.8765 11.3955 86.1562 11.3338C89.4156 10.6182 92.664 9.87861 95.9806 9.4788C96.0436 9.47124 96.0982 9.4704 96.1481 9.47292C96.2099 9.44772 96.2758 9.42924 96.3489 9.42126C99.8981 9.03657 103.478 8.69261 107.05 8.65776C105.72 3.92552 101.533 0.837054 96.4211 1.20957C90.6738 1.62744 86.1146 5.80657 85.2931 11.5001ZM85.4481 15.1912C85.3797 14.1846 85.3494 13.196 85.3427 12.2523C85.3427 12.2208 85.3498 12.191 85.3612 12.1612C84.0047 12.4589 82.6549 12.7676 81.3202 13.0801C81.0283 13.1481 78.6105 13.7024 79.4438 14.1711C79.8755 14.4139 80.3467 14.5747 80.8284 14.6873C82.347 15.0409 83.893 15.1635 85.4481 15.1912ZM101.69 27.0747C103.853 28.1096 104.869 30.448 106.352 32.2228C110.444 31.3135 110.316 26.3894 109.869 23.0775C109.865 23.0523 109.867 23.0287 109.869 23.0044C108.419 21.9784 107.189 20.6723 106.483 19.0558C106.395 19.7736 106.152 20.464 105.606 20.9226C104.396 21.9406 102.849 21.6164 101.566 20.9213C101.04 20.6366 102.154 20.107 102.528 20.3086C103.296 20.7248 104.402 21.28 104.934 20.2859C105.212 19.7664 105.312 19.1558 105.309 18.5527C105.212 18.4691 105.188 18.3515 105.295 18.2087C105.281 18.0172 105.259 17.8278 105.228 17.6447C105.076 16.7481 104.778 15.7473 104.108 15.093C103.402 14.4021 102.892 14.7066 102.284 15.3672C102.259 15.3937 102.226 15.418 102.189 15.4403C102.1 15.5394 102.046 15.6062 102.046 15.6062L101.727 17.2949C101.727 17.2949 98.689 16.8375 97.1493 14.287C96.4367 13.1065 96.2859 12.146 96.327 11.451C96.2598 11.0844 96.196 10.7177 96.1297 10.3561C96.0192 10.354 95.9339 10.3297 95.8701 10.2906C95.8634 10.2914 95.8575 10.2935 95.8512 10.2944C92.7396 10.6698 89.5936 11.2549 86.4808 11.9197C86.5308 11.9692 86.5631 12.0335 86.564 12.12C86.5682 12.713 86.5883 13.3102 86.619 13.9082C87.1641 13.4152 87.8029 13.0385 88.5614 13.0175C88.8012 13.0103 89.1619 13.104 89.1245 13.4185C89.0893 13.7142 88.7222 13.904 88.4543 13.9116C88.0629 13.9225 87.7592 14.1451 87.4846 14.4118C87.2712 14.6188 86.9604 14.7347 86.6648 14.6486C86.8109 16.6872 87.1267 18.7257 87.6945 20.6706C88.5156 23.4802 90.2639 28.1474 94.0386 27.5859C96.4938 27.218 99.2341 25.9005 101.69 27.0747ZM91.5322 43.6657C90.9586 45.5715 90.2862 47.2665 89.3228 48.4467C89.2929 48.4832 89.2438 48.5168 89.1829 48.547C91.2466 50.2731 94.761 50.7527 97.2497 51.2378C99.557 51.6867 101.886 52.0551 104.226 52.2965C102.383 48.9729 100.709 45.5421 98.8826 42.2353C98.757 42.0068 99.9136 41.573 100.1 41.9102C102.016 45.3792 103.759 48.9922 105.712 52.4704C105.841 52.5229 105.876 52.6098 105.845 52.7068C106.973 54.7013 108.174 56.6479 109.518 58.4945C110.599 58.6528 111.679 58.8162 112.761 58.9325C116.25 59.3088 119.106 58.0392 122.345 56.8759C125.205 55.8482 128.042 55.1792 131 55.2578C130.374 53.8013 129.747 52.3448 129.12 50.8892C128.773 50.9031 128.441 50.906 128.131 50.8922C127.758 50.8754 127.71 50.7103 127.816 50.5369C127.811 50.5289 127.804 50.5243 127.8 50.5159C125.562 46.7265 122.213 43.4272 120.85 39.1708C120.674 38.6202 121.889 38.2867 122.067 38.8444C123.402 43.0152 126.719 46.2645 128.913 49.9808C128.942 50.0295 128.956 50.077 128.963 50.1244C132.702 50.1333 139.154 48.0044 139.485 43.7682C135.914 37.7659 132.722 31.3102 127.383 26.6245C124.867 24.4167 122.091 23.5172 118.76 23.6545C116.236 23.7578 113.737 24.0031 111.213 23.9224C111.541 27.7639 110.895 32.0837 106.49 33.0056C106.283 33.0493 106.121 33.0178 106.005 32.9518C105.752 33.0211 105.477 33.0148 105.351 32.8703C104.296 31.6545 103.54 30.1888 102.458 29.007C102.36 28.8991 102.258 28.7983 102.157 28.7026C101.969 28.7836 101.772 28.8407 101.662 28.8298C94.4019 28.1054 93.522 36.8706 91.6129 43.3868C91.5885 43.4784 91.5604 43.5721 91.5322 43.6657ZM103.673 57.9741C103.776 57.9724 103.876 57.9712 103.973 57.9708C105.291 57.967 106.601 58.098 107.908 58.2689C106.782 56.6642 105.755 54.9915 104.782 53.2839C104.614 54.0516 104.446 54.8189 104.271 55.5853C104.123 56.2363 104.062 57.3547 103.673 57.9741ZM59.9399 63.8403C59.4653 63.5606 58.9504 63.4086 58.4188 63.3468C58.3108 63.4002 58.1928 63.4371 58.0761 63.4476C57.969 63.4577 57.7556 63.4354 57.6259 63.3502C57.3466 63.7546 57.4852 64.0562 57.8031 64.2909C58.6161 64.3531 59.4771 64.5626 60.0705 65.0523C60.241 65.0695 60.4124 65.0838 60.5846 65.0725C60.5921 65.0712 60.5946 65.0712 60.6018 65.07C60.8668 64.574 60.3309 64.0704 59.9399 63.8403ZM59.0689 65.6403C58.4914 65.5483 57.927 65.3736 57.4478 65.1565C57.3016 65.0905 57.0744 65.0036 56.854 64.8894C56.7229 64.8839 56.5915 64.8856 56.46 64.8898C55.9363 65.6058 56.7099 66.0044 57.4931 66.2833C57.6506 66.34 57.8102 66.3916 57.9711 66.4391C58.0009 66.4479 58.0311 66.458 58.0614 66.4655C58.2982 66.5323 58.5389 66.5861 58.7846 66.6129C58.9874 66.6352 59.1915 66.6562 59.396 66.6419C59.4036 66.6406 59.4061 66.6406 59.4133 66.6394C59.6094 66.2728 59.3683 65.9019 59.0689 65.6403ZM54.7587 70.0113C55.3912 70.236 56.3458 70.564 57.0303 70.3524C56.9657 70.3725 56.9783 69.8938 56.9161 69.7829C56.7603 69.5078 56.4898 69.2726 56.2072 69.1328C55.4937 68.7808 54.7369 68.6565 53.9494 68.7241C53.5248 69.3528 53.9364 69.7178 54.7587 70.0113ZM58.4948 68.5125C58.4301 68.5326 58.4427 68.0534 58.3805 67.943C58.2247 67.6675 57.9543 67.4327 57.6716 67.2929C56.9581 66.9409 56.2013 66.8166 55.4139 66.8842C54.9897 67.5129 55.4013 67.8779 56.2236 68.171C56.856 68.3961 57.8106 68.725 58.4948 68.5125ZM39.5154 94.1551C35.7202 95.7039 31.3516 96.0621 27.1788 95.7379C28.9712 101.211 32.9798 104.859 36.9015 108.871C37.0133 108.985 37.0002 109.105 36.9196 109.211C36.957 109.194 36.996 109.177 37.0342 109.16C37.4635 108.91 37.9204 108.717 38.3924 108.559C38.4487 108.533 38.5042 108.508 38.5617 108.48C38.6831 108.421 38.8137 108.396 38.9342 108.394C39.3285 108.285 39.7292 108.192 40.1307 108.11C42.5812 107.611 44.8487 106.603 47.2379 105.896C47.2941 105.655 47.8745 105.437 48.2084 105.487C48.2576 105.446 48.2991 105.412 48.3239 105.39C48.8422 104.924 49.3654 104.461 49.9089 104.023C51.0189 103.129 52.1763 102.313 53.3846 101.565C53.0692 101.5 52.8281 101.336 52.7533 101.007C52.4938 99.8625 54.0427 98.645 54.8885 97.9738C52.1524 97.7924 49.1685 97.4997 46.5638 96.674C44.3913 95.9857 42.6102 94.5952 40.5616 93.644C40.2248 93.8317 39.8791 94.0072 39.5154 94.1551ZM27.6395 78.6661C27.5719 78.6972 27.5068 78.7308 27.4375 78.7598C25.8361 79.4267 24.1789 79.1411 22.6238 78.3893C22.4663 78.6581 22.2912 78.9164 22.1316 79.1835C23.9257 80.1196 25.8038 80.8785 27.6227 81.7647C27.8239 81.8621 27.8915 81.9939 27.8776 82.1254C28.101 82.1187 28.2783 82.1817 28.2615 82.3463C28.2287 82.6659 28.1918 82.9855 28.1514 83.3059C30.5621 83.7108 32.9521 83.5105 35.3682 83.4017C32.8261 81.7672 30.1547 80.346 27.6395 78.6661ZM12.3614 72.0894C12.3966 72.1129 12.4206 72.1427 12.4269 72.1826C12.5285 72.8159 12.77 73.3476 13.1358 73.8314C14.7733 73.5227 16.1982 74.19 17.5484 75.5226C18.7218 76.6809 19.8369 77.7737 21.203 78.6464C21.3357 78.4406 21.4684 78.2348 21.5806 78.0164C21.6079 77.9626 21.6486 77.9198 21.6889 77.8766C19.8188 76.7326 18.1553 75.0233 17.002 73.6735C16.6782 73.2951 17.8449 72.8558 18.1301 73.1897C20.3278 75.762 24.1374 79.2179 27.2754 77.9223C27.3984 77.7972 27.5925 77.6993 27.7898 77.6636C28.4215 77.2836 29.0204 76.6906 29.5638 75.8267C31.6973 72.4367 33.8509 69.213 36.2922 66.0447C34.4691 65.3648 32.5259 64.0062 30.9774 62.333C29.4395 60.6716 28.8776 59.3835 28.6714 58.6675C28.5807 58.5629 28.4887 58.4596 28.39 58.3613C27.2006 59.5948 25.716 60.5574 24.3952 61.6669C24.2121 61.8206 24.0319 61.9764 23.8564 62.1373C23.1828 62.7542 22.5751 63.43 22.1039 64.2283C21.8884 64.5929 20.9775 64.6647 20.8981 64.3371C20.6688 64.3182 20.492 64.2057 20.5269 63.968C20.7394 62.5384 18.5051 62.1642 17.5228 62.6522C15.9966 63.4119 16.6568 66.1766 18.3913 66.0451C19.2241 65.9826 18.9419 66.8443 18.2725 66.8947C18.2468 66.8968 18.2216 66.8939 18.196 66.8951C18.1952 66.9476 18.1549 67.0115 18.0558 67.0896C17.1243 67.8187 16.2049 68.5658 15.3016 69.3293C14.6011 69.921 13.8993 70.5174 13.2395 71.1558C13.0043 71.3846 12.5327 71.7353 12.3614 72.0894ZM9.4791 120.568C10.684 122.268 12.3135 124.765 14.344 125.592C14.4003 125.615 14.4432 125.641 14.4801 125.669C16.3994 124.27 18.6303 123.556 20.9452 123.049C24.2092 122.336 28.3152 121.913 30.6028 119.191C32.3461 117.117 33.9466 114.492 34.606 111.837C34.8916 110.686 35.3951 110.088 36.0864 109.649C36.1611 109.602 36.2371 109.555 36.3161 109.512C36.2594 109.52 36.2035 109.524 36.149 109.522C36.0028 109.518 35.8697 109.48 35.7827 109.391C31.7645 105.279 27.6802 101.521 25.8983 95.8824C25.8685 95.7875 25.8857 95.6997 25.9332 95.6216C25.417 95.5645 24.9059 95.4964 24.3998 95.4204C24.2297 95.7325 24.0555 96.042 23.8736 96.3473C23.7686 96.5229 23.3046 96.6522 22.9967 96.6375C21.56 96.6866 20.0477 96.9945 18.6152 96.7937C17.5913 96.6501 16.6644 96.3208 15.6758 96.0323C13.6347 95.4351 11.3518 94.9538 9.71471 93.5091C9.47826 93.3008 10.5882 92.8389 10.8562 93.0753C12.321 94.3671 14.3113 94.8346 16.1445 95.3709C17.1734 95.672 18.3195 96.1982 19.3904 96.2452C20.5663 96.2973 21.7301 96.1789 22.8997 96.1142C25.0441 92.4281 26.3111 88.1209 26.8877 83.8809C26.7361 83.8015 26.7891 83.6696 26.9331 83.5453C26.9717 83.2421 27.007 82.9401 27.0385 82.6378C26.999 82.6289 26.9604 82.6176 26.9239 82.6C24.4011 81.3707 21.5911 80.4464 19.3253 78.7484C17.2683 77.2063 15.2886 73.6012 12.3458 75.0149C11.7201 75.3156 11.0515 74.6369 11.8011 74.2762C11.8503 74.2526 11.8981 74.2341 11.9469 74.2131C11.6134 73.7667 11.3749 73.277 11.2526 72.7168C11.1758 72.763 11.0994 72.8121 11.0229 72.8604C10.3405 73.2888 9.67397 73.7596 9.03309 74.2719C7.00043 75.8964 5.21514 77.9085 3.92541 80.0827C2.13465 83.1014 1.7592 86.2861 1.57483 89.7437C1.23969 96.0176 1.81673 102.367 3.68098 108.386C5.01271 112.689 6.86646 116.882 9.4791 120.568ZM54.4706 122.541C54.4538 122.533 54.4366 122.526 54.4227 122.515C49.2899 118.652 50.8769 111.279 47.5004 106.365C45.7188 106.897 43.9617 107.845 42.1575 108.235C41.1999 108.441 40.1492 108.565 39.1732 108.849C39.132 108.875 39.0858 108.902 39.0287 108.93C38.7654 109.057 38.2303 109.252 37.6835 109.487C37.5172 109.591 37.3559 109.705 37.2035 109.833C37.1082 109.913 36.8797 109.975 36.6571 110C36.3228 110.207 36.078 110.428 36.0335 110.65C35.9658 110.988 35.9171 111.338 35.8189 111.669C35.503 112.732 35.0801 113.766 34.5766 114.754C33.5947 116.682 32.3965 119.051 30.5663 120.325C25.989 123.51 19.7499 122.62 15.3306 125.908C20.0254 130.72 26.9201 131.679 33.357 131.833C38.0636 131.946 42.9176 132.017 46.9913 129.252C49.785 127.355 51.981 124.792 54.4706 122.541ZM99.4021 122.622C100.294 126.661 97.2413 129.666 93.4414 129.993C93.4561 130.01 93.4721 130.025 93.4868 130.042C93.6031 130.173 93.5523 130.312 93.4229 130.424C93.9865 133.125 96.7714 134.771 99.2563 135.541C98.922 135.438 98.985 135.423 99.4945 134.926C99.822 134.617 100.139 134.296 100.446 133.966C101.33 132.978 102.168 131.932 102.851 130.793C103.721 129.342 104.311 127.782 105.075 126.282C105.824 124.81 106.598 123.338 107.217 121.805C107.676 120.668 108.435 119.101 108.224 117.831C107.511 113.553 100.554 121.354 99.6246 122.477C99.5772 122.534 99.4982 122.583 99.4021 122.622ZM67.861 108.29C67.8131 108.569 67.2625 108.753 66.9169 108.708C66.7602 108.819 66.5649 108.898 66.3907 108.891C64.7544 108.817 64.5953 107.615 64.7998 106.324C64.4193 106.8 64.0212 107.25 63.6134 107.646C62.5366 108.695 60.6891 109.542 60.1595 107.607C58.9899 108.162 57.7321 108.127 57.822 106.367C57.8249 106.309 57.8434 106.257 57.8694 106.208C57.7233 106.226 57.5729 106.234 57.415 106.224C55.6566 106.123 57.3462 102 58.0635 100.027C57.3462 100.473 56.56 100.836 55.8376 101.109C55.5651 101.212 54.9624 101.433 54.3593 101.539C52.5375 102.673 50.8475 103.971 49.2521 105.417C49.0773 105.575 48.8741 105.765 48.6515 105.932C51.8991 110.687 50.5603 117.77 55.1018 121.69C57.8825 118.565 60.5531 115.348 63.1712 112.086C62.857 111.602 62.574 111.088 62.343 110.528C62.162 110.089 63.3648 109.728 63.5596 110.201C65.9169 115.92 72.9262 117.087 77.7349 119.926C82.8854 122.968 88.857 125.137 93.0349 129.56C93.0832 129.55 93.1243 129.545 93.1525 129.546C96.7957 129.724 98.7793 126.456 98.2388 123.235C96.2166 123.506 94.3179 122.102 92.8232 120.898C90.1354 118.728 87.7462 116.231 85.2419 113.859C82.5423 111.302 79.537 109.118 76.7371 106.676C74.3772 104.618 72.2299 102.379 70.1603 100.038C69.8231 102.776 68.3481 105.464 67.861 108.29ZM46.4475 87.8059C44.986 89.7428 43.464 91.6852 41.5275 93.043C43.4497 93.9442 45.2174 95.5116 47.3042 95.9962C50.0277 96.6304 52.8159 97.1012 55.6071 97.2805C55.6596 97.2838 55.7045 97.2893 55.7444 97.2981C56.7032 96.5573 57.7451 95.8412 58.861 95.4318C59.3406 95.2558 60.1058 95.4553 59.2936 95.7539C58.3318 96.1071 57.4197 96.8131 56.612 97.4279C55.7427 98.0902 54.6063 98.9037 54.1136 99.92C53.7571 100.655 54.012 100.91 54.4526 100.936C54.6373 100.869 55.0817 100.793 55.3038 100.802C55.5327 100.732 55.7511 100.646 55.9212 100.563C56.7771 100.145 57.7384 99.6588 58.3957 98.9482C58.596 98.7319 59.6778 98.5941 59.5283 98.8449C59.5493 98.8726 59.5602 98.9062 59.5535 98.949C59.3939 99.9612 58.9042 100.943 58.5779 101.909C58.2772 102.798 57.5305 104.41 57.9358 105.354C58.1722 105.905 58.4633 105.215 58.7367 104.82C59.1739 104.189 59.5548 103.524 59.9143 102.847C60.4006 101.93 60.8139 100.904 61.4568 100.083C61.6622 99.8201 62.8629 99.6747 62.5731 100.045C61.4358 101.497 60.6417 104.847 58.7858 105.902C58.9496 105.955 59.0655 106.075 59.055 106.277C59.0021 107.318 59.5275 107.052 60.1532 106.563C60.5119 106.282 60.879 105.986 61.1578 105.622C62.3014 104.129 63.2652 102.564 64.1148 100.888C64.3593 100.405 65.5931 100.41 65.279 101.03C64.2454 103.069 63.0431 105.512 61.1721 106.97C61.2586 107.014 61.322 107.083 61.3455 107.182C61.5026 107.846 61.6194 108.177 62.1939 107.711C62.7566 107.253 63.2333 106.68 63.6697 106.104C64.4609 105.059 65.2698 103.911 65.78 102.695C65.9715 102.238 67.1945 102.179 66.9345 102.8C66.819 103.075 66.6855 103.353 66.5444 103.63C66.5864 103.682 66.6057 103.749 66.5868 103.837C66.3827 104.783 65.1072 107.845 66.7115 108.077C67.5443 103.971 70.335 100.135 68.2234 95.984C68.1239 95.9643 68.0348 95.9257 67.9702 95.8589C65.069 92.8653 61.3749 93.3651 57.7481 92.1018C55.7263 91.3975 53.6475 90.6231 51.698 89.7361C50.1336 89.0251 48.5511 87.761 46.757 87.8513C46.6272 87.8546 46.5269 87.837 46.4475 87.8059ZM59.1558 72.4921C59.0815 72.4543 59.0672 72.388 59.1701 72.2767C59.4229 72.0037 59.6951 71.7349 59.9827 71.4989C60.0512 71.4422 60.2641 71.3741 60.4854 71.3355C61.9285 70.4783 63.185 69.3406 64.6948 68.5603C65.9782 67.8968 66.7795 67.1602 67.2298 65.9901C67.0118 65.9406 66.7909 65.757 66.9278 65.5143C67.0437 65.3098 67.1277 65.1027 67.184 64.8932C67.0895 64.9263 66.9925 64.9528 66.8992 64.9662C66.8316 64.9763 66.2575 64.9986 66.3919 64.7722C66.8106 64.0662 67.1264 63.1087 66.8795 62.3128C66.8047 62.4535 66.717 62.5858 66.6162 62.7068C66.2424 63.1536 65.0883 62.9134 65.5889 62.3145C65.8959 61.947 66.2113 61.3276 65.8027 60.869C65.518 60.5485 65.3449 60.8774 65.111 60.9828C64.5856 61.2213 64.0292 61.3767 63.4975 61.6044C63.2812 61.698 63.0666 61.7858 62.8516 61.8694C62.7109 62.1012 62.3014 62.236 61.9948 62.168C61.4531 62.3301 60.8991 62.4405 60.307 62.4674C60.1591 62.4741 60.0462 62.4477 59.9622 62.4036C59.8072 62.4048 59.656 62.3649 59.5392 62.2549C59.4582 62.1785 59.3687 62.1062 59.2679 62.0546C59.2373 62.0898 59.1646 62.144 59.1319 62.1869C59.0155 62.3418 58.9315 62.5228 58.8593 62.7072C59.8727 62.766 60.9919 63.0486 61.5841 63.8105C62.1032 64.4782 61.8823 65.2123 61.0889 65.5084C60.9201 65.5706 60.742 65.6138 60.5606 65.6462C60.8449 66.2329 60.5892 66.8212 59.9004 67.0783C59.7148 67.1471 59.5182 67.1912 59.3175 67.2236C59.8895 67.875 59.6951 68.612 58.8988 68.9471C58.601 69.0727 58.2709 69.1378 57.9295 69.1659C58.3969 69.79 58.189 70.4691 57.4344 70.7866C56.4903 71.1839 55.2396 71.0277 54.2648 70.7198C51.0214 72.7701 47.5188 74.6671 44.7466 77.3558C42.3364 79.6921 40.0076 82.0372 37.2531 83.9775C37.2518 83.9792 37.2497 83.9791 37.2484 83.9808C37.004 84.1484 36.6319 84.2286 36.398 84.0787C33.5749 84.1236 30.8346 84.455 28.0439 84.0905C27.5064 87.7576 26.4455 91.4345 24.7627 94.7367C29.5747 95.5103 35.8281 95.7228 40.1101 93.1807C42.2192 91.9288 43.4854 89.8785 45.0053 88.01C46.7016 85.9253 48.4335 83.87 50.2176 81.8591C52.0024 79.8479 53.815 77.8619 55.673 75.9182C56.7431 74.8011 58.0824 73.6928 59.1558 72.4921ZM98.198 65.3408C97.9389 64.7604 97.8742 64.0473 97.8675 63.4594C97.4458 62.7681 97.1187 61.8891 97.5067 61.1067C97.9296 60.2542 98.77 59.8207 99.6444 59.5507C99.775 59.51 99.8871 59.5037 99.9829 59.5184C100.369 58.5449 101.409 58.1824 102.461 58.0497C102.455 57.9435 102.489 57.8469 102.551 57.7633C102.469 57.8519 102.57 57.6381 102.59 57.5625C102.648 57.3412 102.703 57.1191 102.756 56.8965C102.896 56.3043 103.032 55.7109 103.165 55.1171C103.321 54.4258 103.473 53.7328 103.624 53.0403C100.901 52.7614 98.1737 52.3314 95.5073 51.7443C94.7362 51.5746 93.8849 51.4037 93.021 51.195C93.2701 53.3372 92.7006 55.5261 92.1861 57.5907C92.1714 57.6491 92.1391 57.7024 92.0937 57.7503C93.0256 57.9313 93.9546 58.2043 94.8802 58.6108C95.291 58.7914 94.1768 59.242 93.8895 59.116C85.5951 55.4736 76.9538 62.1339 68.6152 58.6142C68.5598 58.6196 68.5035 58.6205 68.4477 58.6104C67.0853 58.3718 65.5503 58.1509 64.1837 58.4718C62.7335 58.8124 62.3917 59.7363 62.6798 60.9383C63.0368 60.7947 63.395 60.6443 63.7679 60.5095C64.3441 60.3016 65.2009 59.5629 65.8636 59.6565C66.7275 59.7779 67.118 60.3839 67.16 61.071C67.3318 61.0471 67.4868 61.0613 67.5666 61.1369C68.1025 61.6489 68.2436 62.3317 68.1604 63.0163C68.2608 63.0596 68.3393 63.131 68.3725 63.2418C68.4947 63.6475 68.5287 64.054 68.4821 64.4509C68.6623 64.4774 68.7883 64.5664 68.7576 64.7407C68.4405 66.5327 67.6254 67.8031 66.0106 68.6788C65.1438 69.1491 64.3307 69.6985 63.5218 70.252C67.6695 68.4923 72.6012 67.9598 76.9164 67.7229C79.3136 67.5915 81.8473 67.484 84.2125 67.9888C89.2005 69.0525 94.2171 68.9228 98.1926 65.345C98.193 65.3434 98.1955 65.3421 98.198 65.3408ZM124.039 66.1018C128.774 66.3412 134.013 65.9397 138.512 64.2476C139.765 63.7764 141.151 63.0839 142.053 62.0268C142.054 62.0092 142.056 61.992 142.057 61.9748C142.061 61.8534 142.174 61.7459 142.331 61.6686C142.627 61.2398 142.846 60.7581 142.952 60.2126C143.242 58.7162 142.778 57.2304 142.305 55.8138C141.334 52.9088 140.125 50.0745 138.789 47.3161C136.687 49.2698 133.256 50.4151 130.433 50.7754C130.967 52.0168 131.5 53.2579 132.034 54.4993C132.135 54.7336 132.235 54.9667 132.336 55.2011C132.356 55.2447 132.337 55.293 132.297 55.3401C132.457 55.3564 132.616 55.372 132.776 55.3938C132.989 55.4207 133.203 55.4518 133.416 55.4879C134.23 55.6257 133.54 56.4093 132.979 56.3148C128.746 55.6009 124.989 56.7234 121.066 58.1996C119.244 58.8855 117.296 59.7157 115.32 59.8804C115.061 59.9018 114.802 59.9148 114.542 59.9115C114.205 59.9073 113.869 59.8917 113.534 59.8707C111.588 59.751 109.655 59.3882 107.726 59.1437C106.52 58.9913 101.575 57.9359 101.129 59.6435C101.052 59.9367 100.589 60.1114 100.252 60.0933C100.181 60.2046 100.054 60.3041 99.8619 60.3638C98.4966 60.7867 98.3089 61.8685 99.0333 63.0129C99.0426 63.0293 99.0476 63.044 99.0552 63.0596C99.0724 63.0751 99.0837 63.0927 99.0842 63.1154C99.0842 63.1255 99.0846 63.1381 99.0846 63.1482C99.085 63.1818 99.0858 63.2158 99.0867 63.2506C99.1068 64.1582 99.258 65.5294 100.243 65.8318C100.476 65.9036 100.296 66.0737 100.165 66.1598C100.422 67.0841 100.873 68.2983 101.951 68.41C102.895 68.5078 103.845 68.0009 104.647 67.5654C105.749 66.9666 106.823 66.2534 108.016 65.8494C108.259 65.7671 108.544 65.8003 108.709 65.886C108.764 65.8683 108.821 65.8545 108.877 65.8461C113.973 65.1481 118.945 65.8444 124.039 66.1018ZM112.43 66.0472C112.43 66.0518 112.429 66.056 112.427 66.0602C111.508 69.7514 114.144 73.0251 117.656 73.8037C121.613 74.6814 125.863 74.4164 129.837 73.768C133.936 73.099 138.037 71.9932 140.235 68.1005C141.109 66.5533 141.751 64.7777 141.973 62.9844C141.359 63.4589 140.642 63.8634 139.845 64.1931C136.644 65.5177 132.873 66.3093 129.307 66.5814C128.743 66.6243 128.186 66.6545 127.636 66.6709C127.45 66.6768 127.26 66.6889 127.076 66.6915C122.347 66.757 117.649 66.0107 112.937 66.0409C112.768 66.0418 112.599 66.0439 112.43 66.0472ZM127.651 127.298C126.453 129.622 123.25 131.522 121.15 129.99C119.895 133.507 114.619 133.975 112.594 137.002C114.501 137.044 116.405 137.19 118.313 137.216C120.621 137.246 123.923 137.613 125.877 136.162C127.369 135.054 128.726 133.758 130.034 132.443C131.551 130.919 129.055 128.443 127.651 127.298ZM116.127 101.25C115.987 101.216 115.877 101.143 115.834 101.027C111.905 98.9003 107.597 95.7514 102.997 95.2743C103.006 95.3142 103.007 95.3587 102.992 95.4116C101.045 102.24 105.201 108.286 109.452 113.255C113.491 117.976 118.352 122.353 121.123 127.999C121.167 128.09 121.157 128.176 121.112 128.253C121.204 128.279 121.28 128.331 121.329 128.41C122.934 131.088 126.161 128.789 126.779 126.494C121.971 118.714 123.797 107.252 116.127 101.25ZM155.176 94.8602C155.19 94.8375 155.203 94.8157 155.217 94.7934C155.476 94.3747 155.698 93.9186 155.88 93.4222C154.105 91.1019 152.792 88.5354 151.682 85.8384C150.633 83.2887 149.435 80.7429 148.574 78.1243C147.259 74.1317 146.359 68.4461 142.272 66.3047C141.711 67.6511 140.939 68.9085 140.011 69.9811C137.96 72.3506 134.97 73.4144 131.959 74.0359C131.762 74.0767 131.565 74.1149 131.369 74.1514C130.8 74.2589 130.231 74.3538 129.671 74.4399C125.299 75.106 120.266 75.6083 115.983 74.2056C115.65 74.0968 115.331 73.9603 115.021 73.81C110.146 80.3804 105.265 86.9055 102.549 94.7098C107.458 94.7766 111.899 97.7593 116.095 100.119C118.377 94.3432 122.6 89.566 127.188 85.4738C127.219 85.447 127.252 85.4234 127.287 85.4029C126.729 85.1001 126.143 84.83 125.521 84.6066C124.808 84.3513 125.768 83.6726 126.239 83.8422C133.804 86.5565 136.147 95.4637 143.278 98.6231C143.369 98.5971 143.464 98.587 143.558 98.6017C147.736 99.2665 152.85 98.5358 155.176 94.8602ZM161.41 118.622C164.912 122.226 168.443 125.803 171.983 129.371C172.199 129.349 172.397 129.389 172.47 129.533C173.093 130.756 173.689 130.968 174.781 130.137C175.41 129.657 176.032 129.124 176.73 128.746C177.446 128.36 178.181 128.113 178.929 128.086C176.763 125.365 175.079 122.355 173.428 119.305C171.629 115.978 169.795 112.125 166.986 109.522C164.655 107.361 161.302 105.394 159.713 102.572C158.406 100.252 157.883 97.4573 155.977 95.5725C153.71 98.7012 149.464 99.8175 145.518 99.7004C147.236 104.098 151.972 106.651 154.648 110.461C156.726 113.421 158.899 116.039 161.41 118.622ZM190.58 136.666C189.953 134.514 187.147 132.919 185.401 131.778C183.781 130.72 182.104 129.756 180.456 128.747C180.2 128.914 179.748 129.045 179.549 128.958C177.532 128.076 175.377 131.046 173.491 131.378C173.482 132.53 173.216 134.542 174.166 135.413C175.29 136.445 177.105 136.804 178.521 137.232C181.425 138.109 184.515 138.937 187.578 138.533C188.513 138.409 191.024 138.19 190.58 136.666Z" fill="#175CD3"/>
</svg>
