<svg width="192" height="148" viewBox="0 0 192 148" fill="none" xmlns="http://www.w3.org/2000/svg">
<path d="M38.8809 62.829C38.9514 62.9667 38.7578 63.1545 38.6604 63.212C38.1153 63.5345 37.6357 63.7344 37.0149 63.8478C36.1838 63.9986 36.5496 63.1956 37.1577 63.086C37.2884 63.0293 37.4181 62.9734 37.5492 62.918C36.5958 60.9853 35.9869 58.9413 35.4102 56.8696C35.2775 56.3887 36.4929 56.0607 36.6273 56.5433C37.2275 58.699 37.8583 60.8282 38.8809 62.829ZM31.4083 58.6381C31.263 58.1723 31.2366 57.681 31.0917 57.214C30.9569 56.781 29.744 57.1203 29.8746 57.5403C30.0203 58.006 30.0464 58.4974 30.1913 58.9644C30.3261 59.397 31.5385 59.0581 31.4083 58.6381ZM37.5051 55.445C37.6504 55.9108 37.6764 56.4022 37.8213 56.8692C37.9561 57.3022 39.169 56.9628 39.0384 56.5428C38.8931 56.0771 38.8666 55.5857 38.7221 55.1187C38.5882 54.6853 37.3753 55.0242 37.5051 55.445ZM36.3228 52.7946C36.4388 52.7199 36.5593 52.6371 36.6886 52.5863C36.7096 52.575 36.7323 52.5716 36.7537 52.5649C36.7424 52.5733 36.8591 52.5519 36.8852 52.551C37.1771 52.5451 37.4925 52.4708 37.7457 52.3205C37.9376 52.2071 37.9149 52.0769 37.6819 52.0819C36.8722 52.0991 36.0784 52.3478 35.3981 52.7875C35.2112 52.9072 35.225 53.0239 35.4619 53.0252C35.7424 53.0277 36.0856 52.9479 36.3228 52.7946ZM29.9536 54.1364C29.9418 54.144 30.0586 54.1226 30.085 54.1217C30.3769 54.1158 30.6923 54.0407 30.9455 53.8911C31.1375 53.7778 31.1148 53.6476 30.8821 53.6526C30.072 53.6698 29.2782 53.9184 28.5983 54.3582C28.4123 54.4787 28.4249 54.5946 28.6621 54.5967C28.9418 54.5992 29.2854 54.5194 29.5227 54.3661C29.639 54.2905 29.7591 54.2087 29.888 54.157C29.9086 54.1457 29.9313 54.1415 29.9536 54.1364ZM32.6804 69.1995C30.9182 69.3028 30.7313 67.2819 30.8166 65.967C30.8288 65.7742 30.998 65.6272 31.2059 65.5479C31.2517 65.4807 31.3101 65.4206 31.3621 65.387C31.62 65.2174 31.9425 65.1745 32.2285 65.2879C33.1865 65.6642 34.333 65.6915 35.2948 65.3135C35.5228 65.2241 35.9159 65.1329 36.1078 65.3538C36.2943 65.5697 35.9738 65.8221 35.7966 65.8918C35.6433 65.9527 35.4875 66.0035 35.3313 66.051C35.0314 67.3781 34.2284 69.1088 32.6804 69.1995ZM32.7938 68.3302C33.0865 68.2882 33.3898 67.8619 33.5263 67.6313C33.7753 67.2114 33.942 66.77 34.06 66.3051C33.3826 66.3681 32.6985 66.3164 32.0333 66.1526C32.0076 66.7171 32.0286 67.3134 32.2651 67.8266C32.347 68.0064 32.5494 68.3646 32.7938 68.3302ZM18.6954 65.4626C18.4799 65.665 18.8802 65.7373 19.002 65.7335C19.2922 65.7247 19.5979 65.6251 19.8117 65.4244C19.8671 65.3727 19.933 65.316 20.0023 65.2745C20.0233 65.2736 20.0548 65.2728 20.0964 65.285C20.3001 65.3425 20.4542 65.5063 20.5819 65.6655C20.802 65.9363 21.9653 65.5227 21.7213 65.2215C20.9322 64.2502 19.4728 64.731 18.6954 65.4626ZM89.8776 57.7007C89.6159 57.5613 89.2493 57.6579 89.0128 57.8049C88.4833 58.1329 87.9705 58.5217 87.7609 59.1294C87.5681 59.6872 88.002 60.255 88.3602 60.6279C88.6769 60.9576 89.8351 60.499 89.4866 60.1365C89.2111 59.8484 88.9108 59.5108 88.9608 59.0841C89.0091 58.6738 89.471 58.4075 89.7822 58.2148C89.9603 58.1043 90.1346 57.8376 89.8776 57.7007ZM94.9634 56.2354C95.3985 56.3799 96.3964 55.7474 95.6921 55.5135C94.832 55.2279 93.9941 55.0326 93.0992 55.2905C92.9022 55.3472 92.5108 55.5269 92.5834 55.8008C92.6557 56.07 93.0882 56.041 93.2852 55.9847C93.8501 55.8222 94.4288 56.0582 94.9634 56.2354ZM87.5114 55.5769C86.6803 55.5778 85.7589 55.6983 85.1231 56.2879C84.9538 56.4454 84.9555 56.6071 85.218 56.6407C85.4826 56.6743 85.8761 56.5966 86.0785 56.4101C86.3565 56.1519 86.6471 56.1724 87.0129 56.1716C87.2784 56.1716 87.6433 56.0716 87.8218 55.8591C88.007 55.6382 87.6626 55.5769 87.5114 55.5769ZM95.7756 51.3625C96.0537 51.4108 96.3754 51.3213 96.6256 51.205C96.7109 51.1647 97.0549 50.9459 96.7768 50.8976C95.3729 50.6507 94.055 50.9597 92.7455 51.4725C92.6973 51.4914 92.1954 51.6922 92.3806 51.8106C92.5771 51.9353 92.9723 51.8115 93.163 51.7367C94.0407 51.3936 94.8328 51.1966 95.7756 51.3625ZM97.0439 59.903C97.4307 60.8421 97.7474 62.4665 96.797 63.2095C95.6156 64.1338 94.32 63.4497 93.383 62.5539C93.2348 62.5522 92.9286 62.5048 93.1118 62.3078C93.2797 62.1272 93.5817 62.0369 93.8341 62.0142C93.979 61.9722 94.1281 61.9521 94.2524 61.9642C94.9722 61.8076 95.5123 61.2259 95.9587 60.6476C95.9629 60.6426 95.9688 60.638 95.9734 60.6329C95.9293 60.496 95.8806 60.3608 95.8265 60.2294C95.6824 59.8791 96.8793 59.5036 97.0439 59.903ZM96.1658 61.5124C95.7366 61.8593 95.2586 62.1293 94.7396 62.3074C95.0558 62.606 95.4283 62.9113 95.8311 62.9907C95.8491 62.994 95.8592 62.9974 95.8731 63.0003C95.9566 62.892 96.0238 62.7815 96.0663 62.6492C96.1826 62.2776 96.2044 61.8937 96.1658 61.5124ZM125.196 118.738C126.15 123.948 127.662 128.998 127.729 134.333C127.735 134.766 126.514 135.017 126.508 134.47C126.444 129.388 125.026 124.554 124.081 119.601C120.47 122.947 113.993 123.755 109.405 124.036C103.114 124.422 95.9365 123.761 90.8393 119.688C89.2329 124.535 89.0448 129.67 87.8663 134.623C87.7853 134.965 86.5783 135.158 86.6597 134.813C87.8831 129.669 88.0347 124.326 89.8221 119.314C89.8511 119.233 89.9418 119.162 90.0598 119.106C89.7856 119.1 89.5739 118.987 89.6961 118.716C91.0623 115.693 92.0538 112.407 92.6527 109.146C93.1643 106.364 94.005 102.119 91.7607 99.8532C91.6574 99.7491 91.6843 99.6357 91.78 99.5357C91.3361 99.0435 90.8876 98.5563 90.434 98.0746C90.3315 98.1212 90.2245 98.1502 90.1253 98.1502C86.1528 98.157 83.7401 95.9462 80.8423 93.6061C79.5017 96.1029 77.5716 98.3531 75.8152 100.492C75.9517 100.794 76.0546 101.103 76.1038 101.418C76.4019 103.342 74.8396 104.676 73.5281 105.84C73.4861 105.878 73.4319 105.908 73.3698 105.934C72.253 108.816 70.2615 111.221 69.8416 114.399C69.548 116.626 68.6669 118.919 67.4087 120.782C65.1665 124.102 61.7903 125.544 58.7182 122.987C59.0147 127.195 59.1588 131.422 59.1659 135.662C59.1667 136.077 57.9497 136.283 57.9492 135.989C57.9488 135.801 57.9455 135.612 57.9446 135.423C57.8854 122.555 56.5877 109.818 53.4413 97.3195C53.351 96.9604 54.5702 96.6413 54.6584 96.9932C56.7108 105.15 57.9745 113.408 58.6233 121.737C58.827 121.704 59.0227 121.722 59.1218 121.827C61.1604 123.994 63.5252 124.313 65.4806 121.84C66.6708 120.336 67.5863 118.594 68.1344 116.753C68.6211 115.118 68.8349 113.454 69.3628 111.845C69.4943 111.445 69.6396 111.048 69.8197 110.655C70.5429 109.085 71.5685 107.623 72.1829 106.009C72.214 105.927 72.2908 105.856 72.3891 105.797C72.3866 105.775 72.3895 105.752 72.3979 105.727C72.2753 105.79 72.1266 105.85 71.9813 105.891C71.7965 105.943 71.6172 105.963 71.5084 105.91C67.6493 104.068 65.0846 100.579 61.8667 97.8869C61.6534 97.7088 61.438 97.5341 61.2192 97.3636C61.2066 97.4283 61.194 97.4934 61.1818 97.5589C60.7719 99.6218 60.152 101.852 59.1432 103.647C59.0962 103.732 59.0189 103.8 58.9282 103.853C59.0067 104.229 59.0819 104.605 59.1655 104.98C59.244 105.332 58.0219 105.637 57.9484 105.306C56.8204 100.258 56.2597 95.0941 55.1178 90.0444C54.529 87.4376 53.9007 85.1013 51.879 83.1795C50.181 81.5635 48.1555 80.33 46.474 78.7232C46.9343 79.842 47.3383 80.9658 47.7015 82.0469C48.287 83.7851 48.7981 85.5297 49.1311 87.2767C49.1349 87.2948 49.1383 87.3129 49.1412 87.3318C49.777 90.7037 49.7287 94.0857 48.1648 97.443C48.1148 97.5505 47.9426 97.6299 47.7435 97.6824C48.4545 100.689 48.9988 103.696 49.4444 106.581C50.2806 111.997 50.7929 117.476 50.8887 122.958C50.953 126.679 50.984 130.533 50.2377 134.198C50.1546 134.611 49.4285 134.798 49.1265 134.607C49.027 134.544 48.9732 134.441 49.0039 134.289C49.7212 130.764 49.7245 127.051 49.6615 123.469C49.565 117.928 49.0967 112.382 48.2265 106.907C46.5706 96.4951 43.7945 84.5688 36.2044 76.7468C35.3493 78.9311 33.8496 80.5404 31.2903 80.5963C29.6197 80.6332 27.9898 79.9835 26.4964 79.1008C30.8439 84.5234 33.399 91.4488 35.0478 98.3816C35.1356 98.4883 35.2192 98.5983 35.3095 98.7033C35.4619 98.8814 35.3981 99.062 35.2389 99.1964C35.8689 101.963 36.3619 104.722 36.771 107.377C37.6071 112.793 38.1195 118.272 38.2152 123.754C38.2799 127.476 38.3106 131.329 37.5647 134.995C37.5324 135.155 37.4009 135.281 37.2375 135.363C38.2043 135.586 39.1656 135.801 40.1778 135.83C40.6208 135.842 40.764 136.121 40.6918 136.373C40.6926 136.374 40.6939 136.375 40.6947 136.376C41.0513 136.776 41.218 137.12 41.2478 137.42C41.9723 137.238 42.8988 137.067 43.4615 137.527C43.9088 137.892 43.5384 138.53 43.2759 138.883C42.9617 139.307 42.5649 139.704 42.1256 140.068C41.7808 142.32 38.9279 143.78 37.0024 144.408C34.3822 145.26 31.5293 145.607 28.9553 144.489C28.3572 145.342 27.6836 146.139 26.9226 146.851C26.7236 147.037 25.7047 147.168 25.7883 146.984C25.7585 146.984 25.7274 146.981 25.6997 146.976C24.4108 146.706 23.2462 145.552 21.8998 145.672C20.8624 145.766 20.1061 145.667 19.2569 145.023C18.9537 144.793 19.1557 144.512 19.4639 144.361C19.4131 144.334 19.3673 144.3 19.3308 144.253C18.6538 143.377 17.0991 142.926 16.1428 142.458C14.3919 141.6 12.6491 140.711 11.0032 139.662C6.79089 136.974 3.00275 133.286 1.39132 128.438C0.283015 125.104 0.247738 121.77 0.597994 118.303C1.10784 113.256 1.83775 108.212 2.00448 103.137C2.14097 98.9717 1.56813 94.4011 3.08423 90.4207C4.69187 86.1995 7.89331 82.542 10.7756 79.115C9.43797 77.8812 8.69084 76.2483 9.63241 74.4445C11.844 70.2062 17.9424 72.4127 21.1581 69.7665C20.3337 69.9143 19.4694 69.7934 18.6962 69.3268C17.3191 68.4956 16.1264 66.867 16.4695 65.1699C16.5309 64.8646 16.6359 64.5656 16.7728 64.2766C16.6862 64.1603 16.588 64.0238 16.4784 63.8713C16.3326 63.8781 16.21 63.8491 16.1546 63.7739C13.9669 60.7678 10.7386 56.6428 11.5807 52.6695C12.1451 50.011 13.7322 47.4337 16.5724 47.1426C16.4242 43.7115 21.392 42.4112 25.1907 41.7363C30.1799 40.059 36.7021 38.2838 40.1303 38.7819C44.6584 39.4387 42.1558 41.867 41.1336 42.7027C41.1781 42.701 41.2193 42.7027 41.2516 42.7115C42.168 42.9635 44.1314 43.5943 43.7521 44.9432C43.8244 45.254 43.7677 45.6043 43.5157 45.994C42.4935 47.5723 41.7841 48.2644 39.6469 48.7326C39.8132 52.8723 41.5128 56.584 42.8395 60.4696C43.7211 63.0524 45.0545 66.3328 43.055 68.7401C42.4943 69.4141 41.7623 70.0567 40.9282 70.6333C42.8706 72.1288 44.3254 74.227 45.4648 76.4957C45.7243 76.4226 45.9948 76.4155 46.0788 76.5335C48.1467 79.438 51.5938 80.8134 53.7873 83.5713C54.8293 84.8812 55.4143 86.265 55.8465 87.766C56.0279 88.3951 56.185 89.0423 56.3332 89.7172C56.526 90.5941 56.699 91.4752 56.8666 92.3559C57.4856 95.6245 57.9736 98.9196 58.5943 102.186C59.2642 100.617 59.7123 98.8604 60.018 97.238C59.9282 97.2112 59.8639 97.1608 59.8458 97.0814C59.6052 96.0143 59.7186 94.8774 60.4573 94.0278C61.1498 93.2298 62.288 92.9501 63.3047 93.032C63.3631 93.0371 63.4101 93.0451 63.4526 93.0551C64.3811 92.3307 65.4315 92.24 66.4898 92.513C66.4881 92.4999 66.4839 92.4873 66.4839 92.4726C66.4856 89.469 66.3239 84.6948 69.6891 83.3307C69.9361 83.2308 70.427 83.1388 70.5526 83.4701C70.9159 84.4365 71.0356 85.4364 71.0981 86.446C71.8003 85.4314 72.3152 84.1715 73.0497 83.224C73.7372 82.3383 74.5721 81.6113 75.6208 81.1989C75.8644 81.1023 76.3604 81.002 76.483 81.3342C76.8513 82.3324 76.895 83.2421 76.7476 84.1106C76.9366 83.9443 77.1352 83.7889 77.3515 83.6595C77.9726 83.2862 79.1158 82.9935 79.6353 83.6826C80.2119 84.4462 80.1653 85.3764 79.8314 86.3163C80.1027 86.1563 80.3736 86.0299 80.6348 85.9513C80.8662 85.2042 81.5953 84.9169 82.3168 85.0236C82.3441 84.6511 82.523 84.3559 82.9237 84.1912C83.2147 84.0707 83.5167 84.0249 83.8186 84.0321C83.9278 81.6559 84.462 78.8685 85.7434 76.8753C81.2224 76.5011 77.1411 74.4286 76.9672 69.4053C76.8106 64.8734 78.5682 60.5065 80.0872 56.3198C81.8187 51.5469 82.972 46.2758 86.7232 42.5763C90.5294 38.8226 95.5728 38.0704 100.687 38.8163C104.82 38.5807 108.759 39.6184 111.271 43.1277C113.767 46.6139 114.82 50.8569 117.051 54.4909C119.686 58.7868 124.379 61.9332 125.711 67.0152C126.978 71.8508 124.599 76.523 122.313 80.6601C122.262 80.7521 122.154 80.826 122.023 80.8798C122.639 84.5104 122.2 88.4804 122.508 92.0107C122.516 92.0951 122.416 92.174 122.272 92.2379C122.489 92.2446 122.601 92.2992 122.368 92.4411C122.018 92.6545 121.65 92.8351 121.277 92.9997C121.44 93.0316 121.559 93.1211 121.559 93.2886C121.567 97.4195 121.71 101.613 120.948 105.695C120.765 106.674 120.529 107.714 120.2 108.73C120.334 108.754 120.434 108.818 120.452 108.933C120.97 112.282 122.673 115.661 124.322 118.622C124.665 118.463 125.145 118.457 125.196 118.738ZM19.7936 43.7291C20.5134 43.4297 21.5033 43.0433 22.6637 42.62C21.628 42.8934 20.6222 43.2499 19.7936 43.7291ZM31.0283 136.079C31.1887 134.601 31.4928 132.729 30.6658 131.4C29.7692 129.958 28.4005 130.905 27.0705 131.234C27.007 131.249 26.9436 131.262 26.8802 131.275C26.8932 131.284 26.905 131.295 26.918 131.304C26.9256 131.308 26.9306 131.313 26.9377 131.317C26.9466 131.323 26.9461 131.33 26.952 131.336C26.9583 131.342 26.9617 131.348 26.9659 131.354C26.9919 131.39 26.9995 131.427 26.9776 131.468C26.9029 136.726 25.2293 141.487 20.4366 144.139C20.3753 144.215 20.2862 144.28 20.1829 144.33C20.1892 144.333 20.1955 144.336 20.201 144.339C21.2236 145.117 22.1413 144.586 23.247 144.918C24.3436 145.246 25.2889 145.949 26.4107 146.184C26.4565 146.192 26.4955 146.205 26.5287 146.219C29.0174 143.517 30.6381 139.67 31.0283 136.079ZM32.137 136.389C31.7153 138.968 30.8267 141.534 29.4353 143.76C29.4811 143.765 29.5222 143.771 29.5525 143.787C31.8812 144.948 34.6661 144.846 37.0481 143.848C38.3853 143.287 40.0459 142.419 40.6876 141.031C40.0723 141.354 39.4277 141.593 38.8032 141.715C38.0615 141.86 37.8536 141.155 38.6129 141.006C39.8464 140.765 41.0698 139.962 41.9143 139.047C42.0823 138.864 42.5552 138.407 42.4246 138.111C42.2986 137.826 41.1937 138.189 41.0164 138.234C40.9744 138.245 40.9408 138.243 40.9026 138.248C39.9984 139.104 37.6012 139.379 36.7365 139.726C36.5177 139.813 36.1187 139.91 35.9285 139.704C35.7382 139.498 36.0919 139.26 36.2489 139.198C37.1237 138.848 38.0876 138.781 38.9876 138.51C39.3093 138.414 39.8191 138.294 39.9875 137.963C40.1887 137.567 39.8099 137.131 39.5671 136.857C39.5318 136.817 39.5167 136.776 39.5129 136.735C36.9566 136.524 34.7139 135.484 32.137 136.389ZM36.5954 116.385C36.3564 113.478 36.0121 110.579 35.5543 107.701C35.0944 104.808 34.5472 101.801 33.8358 98.7953C32.6435 97.3351 31.6003 95.7522 30.4802 94.2386C29.0221 92.2698 27.3174 90.7654 25.5132 89.12C23.7623 87.5229 22.733 85.2756 20.8671 83.7851C19.1158 82.3858 17.0621 81.7798 14.9098 81.2783C13.8548 81.033 12.6226 80.4997 11.5739 79.7559C8.4502 83.4391 4.5999 87.6572 3.73602 92.4798C2.97167 96.7458 3.41684 101.135 3.11068 105.445C2.75581 110.429 1.90705 115.385 1.6391 120.373C1.4749 123.426 1.82977 126.534 3.08884 129.348C5.1677 133.994 9.06755 137.372 13.429 139.837C14.9778 140.712 16.5787 141.473 18.1696 142.265C18.8722 142.616 19.7546 142.961 20.3093 143.559C24.3818 140.97 25.7022 136.445 25.7606 131.756C21.3425 128.715 19.9419 122.577 13.7947 122.557C12.9724 122.554 13.8292 121.883 14.2735 121.884C15.7972 121.889 17.1877 122.159 18.4283 122.763C18.427 117.411 19.5177 112.047 19.8747 106.718C20.1754 102.236 21.077 94.2621 16.5649 91.3946C16.0118 91.0426 17.1054 90.4753 17.514 90.7344C21.88 93.5083 21.4386 100.602 21.1963 105.053C20.8616 111.191 19.5219 117.366 19.668 123.522C20.1976 123.918 20.6919 124.392 21.1493 124.955C22.8905 127.097 24.3054 129.351 26.5291 131.012C26.6534 130.939 26.8109 130.877 26.9583 130.854C27.8755 130.715 29.8691 129.31 30.9098 129.982C32.5124 131.016 32.491 133.125 32.3369 134.818C32.3201 135.002 32.2974 135.185 32.2756 135.369C33.4431 134.994 34.6488 134.825 35.8777 135.064C36.0259 135.093 36.1729 135.124 36.3199 135.155C36.3216 135.156 36.3237 135.156 36.3254 135.157C36.3254 135.156 36.3254 135.155 36.3254 135.154C36.3254 135.131 36.3254 135.109 36.3308 135.083C36.6605 133.463 36.8348 131.803 36.9259 130.134C37.033 128.172 37.0221 126.199 36.9881 124.264C36.944 121.635 36.8121 119.007 36.5954 116.385ZM23.1068 77.1046C22.8518 76.8527 23.1479 76.5763 23.5141 76.4705C23.3483 76.4121 23.2265 76.2861 23.2231 76.0799C23.184 74.0439 22.7788 71.9894 22.3697 69.9781C21.1232 71.1881 19.6701 71.7433 17.9352 72.0419C15.6321 72.4371 11.508 72.2305 10.5803 75.0136C10.0415 76.6305 10.6559 77.7812 11.8028 78.6514C11.9578 78.6892 12.0808 78.766 12.1228 78.8786C14.4226 80.4052 18.3758 81.0204 20.0292 81.9045C21.5315 82.7058 22.754 83.833 23.8069 85.1651C25.3633 87.1344 26.9831 88.729 28.7991 90.4543C30.4533 92.0275 31.7359 93.8968 33.0521 95.7434C31.1127 88.7832 28.133 82.0628 23.1068 77.1046ZM35.3086 75.9867C35.2679 75.9291 35.2439 75.8586 35.2439 75.7708C35.2444 74.8284 35.249 73.8843 35.3628 72.9482C34.0768 73.1745 32.8115 73.1829 31.6914 72.8881C31.0035 72.7075 32.0543 72.1301 32.4377 72.2317C33.3696 72.4761 34.5459 72.4513 35.7702 72.2103C35.8999 72.1536 36.0448 72.1225 36.1813 72.1217C37.345 71.8487 38.5306 71.3834 39.5747 70.7706C39.6335 70.7085 39.7611 70.6312 39.914 70.5648C41.4465 69.5872 42.6127 68.2789 42.832 66.7792C43.2704 63.7878 41.4591 60.3453 40.4533 57.607C39.4155 54.7819 38.5336 51.9635 38.4349 48.9519C38.08 49.0069 37.7041 49.0602 37.2846 49.1127C34.85 49.4172 32.0274 49.2635 30.1304 49.0879C30.502 49.2799 30.7343 49.5268 30.5394 49.8317C30.1631 50.4167 29.4467 50.6675 28.8133 50.8758C26.4644 51.651 23.6733 51.4436 21.1652 51.2407C23.0534 54.8021 24.3999 59.363 23.1567 63.2935C23.0719 63.5618 22.6897 63.6945 22.3815 63.6609C22.0636 63.7915 21.6268 63.8037 21.4928 63.5484C20.2417 61.1688 17.7446 63.3098 17.6623 65.2816C17.5766 67.3495 20.1057 70.2411 22.1375 68.5641C22.2832 68.1021 23.2323 67.9194 23.3415 68.436C23.3419 68.4377 23.3428 68.4394 23.3432 68.4411C23.3491 68.4696 23.355 68.4994 23.3609 68.528C23.8484 70.9764 24.412 73.4946 24.4595 75.9972C24.4616 76.108 24.4171 76.203 24.3457 76.2811C24.3931 76.2949 24.4381 76.3138 24.475 76.3424C26.0268 77.5746 27.7613 78.8517 29.681 79.4363C32.6477 80.3409 34.3754 78.9147 35.2477 76.0963C35.2595 76.0589 35.2822 76.0219 35.3086 75.9867ZM36.8919 75.77C42.3948 81.1985 45.5076 88.7832 47.4483 96.4724C49.1462 91.7847 48.103 87.0197 46.4836 82.3707C45.1128 78.4343 43.3418 73.9246 40.0022 71.2183C38.9552 71.8269 37.7961 72.3233 36.6181 72.6563C36.4808 73.6416 36.4761 74.6373 36.4761 75.6305C36.6382 75.6289 36.7903 75.67 36.8919 75.77ZM118.067 93.4491C118.993 93.3374 119.898 93.1227 120.729 92.7452C120.958 92.641 121.182 92.5264 121.398 92.3958C121.335 92.387 121.293 92.3681 121.29 92.3349C120.856 87.3607 122.171 80.7882 119.099 76.4415C116.308 72.4946 111.462 70.994 107.038 69.5078C106.751 71.7429 105.521 74.1258 104.527 76.0329C103.493 78.021 102.208 80.5744 100.053 81.5475C95.3893 83.6524 96.8474 72.5467 96.4039 70.383C96.3959 70.3452 96.3892 70.304 96.38 70.2713C96.335 70.181 96.2867 70.1008 96.2405 70.0155C95.9718 70.3217 95.6887 70.6018 95.3909 70.8605C93.3784 72.6101 90.7776 73.4387 88.6832 75.1396C88.3833 75.3832 88.1103 75.6515 87.8525 75.9346C87.4346 76.4709 87.2616 76.8354 87.2616 76.8354C87.2616 76.8354 87.2229 76.827 87.1536 76.814C85.6787 78.9441 85.1008 81.7554 85.0353 84.3357C85.5888 84.5931 86.0936 84.9837 86.4745 85.3961C87.3233 86.3171 87.9889 87.5262 88.8957 88.4237C89.0162 88.5434 89.1405 88.6601 89.2715 88.7664C89.2657 88.7551 89.2619 88.7425 89.2564 88.7311C88.5828 87.2759 87.4279 85.7111 87.9751 84.2051C88.2456 83.4634 89.4702 83.5655 90.0031 83.8162C90.098 83.8603 90.1904 83.9115 90.282 83.9649C90.6259 83.3668 90.8683 82.736 90.8049 82.0141C90.7763 81.6844 92.0022 81.4581 92.0215 81.6878C92.1051 82.6441 91.6964 83.4563 91.1837 84.2345C91.1249 84.3231 91.0274 84.3844 90.9208 84.4348C91.9073 85.2995 92.662 86.6455 93.0362 87.7669C93.5431 89.2851 93.53 91.5802 94.8299 92.662C94.8609 92.6885 94.8714 92.7179 94.8655 92.749C99.6919 95.706 105.322 97.49 109.885 100.847C109.84 98.2481 109.684 95.651 109.666 93.0514C109.666 93.0488 109.665 93.0472 109.665 93.0455C109.376 90.6701 108.764 88.3296 108.715 85.9291C108.708 85.578 109.929 85.3894 109.932 85.6027C109.979 88.0046 110.591 90.3438 110.882 92.7192C110.911 93.3588 113.931 93.4722 114.344 93.4961C115.538 93.5654 116.822 93.599 118.067 93.4491ZM97.8352 75.7183C97.8562 76.8619 97.9607 82.4101 100.31 80.2872C102.066 78.7001 103.206 76.3663 104.147 74.2312C104.782 72.7915 105.583 71.1503 105.803 69.5393C105.752 69.5107 105.709 69.4704 105.681 69.4171C104.811 67.7666 104.697 65.9645 104.682 64.1418C104.405 64.1254 104.134 64.1006 103.875 64.0696C103.055 63.973 103.839 63.2762 104.337 63.3363C104.455 63.3493 104.584 63.3649 104.718 63.38C104.921 62.9928 105.905 62.8722 105.906 63.4085C105.906 63.4182 105.906 63.4291 105.906 63.4396C106.696 63.4165 107.474 63.2254 107.873 62.5799C108.318 61.8614 108.236 60.9609 107.952 60.1962C107.694 59.5032 107.252 58.7133 106.6 58.3151C106.403 58.3676 106.217 58.4571 106.048 58.5587C105.98 58.7431 105.938 58.94 105.902 59.1248C105.815 59.5687 104.582 59.7636 104.681 59.2643C104.697 59.1824 104.718 59.1 104.741 59.019C103.561 58.6095 100.793 57.4735 99.5982 55.4761C98.3282 53.3515 98.5071 49.3529 98.6096 48.0183C94.2616 49.5235 89.0351 48.4865 85.0529 50.9203C84.974 50.9686 84.8807 50.9967 84.7837 51.0114C84.7619 51.3764 84.7485 51.743 84.7401 52.1105C84.7409 52.1105 84.7413 52.1096 84.7421 52.1088C85.9038 51.2928 87.2708 51.1727 88.4543 52.0055C88.9624 52.3625 87.8466 52.871 87.4938 52.6233C86.7983 52.1344 86.2301 52.0139 85.5107 52.5191C85.3095 52.6611 84.9563 52.6783 84.7304 52.6035C84.719 54.3834 84.8602 56.1758 85.1411 57.9237C85.5111 60.226 85.9689 63.0545 88.0629 64.4685C89.8536 65.676 91.8804 65.6146 93.827 66.3593C95.5858 67.0333 96.6706 68.1622 97.5223 69.8026C97.5471 69.8509 97.574 69.8946 97.5987 69.9437C97.6092 69.9815 97.6143 70.021 97.6248 70.0584C98.088 71.8584 97.8007 73.8876 97.8352 75.7183ZM85.0303 46.5106C85.4771 45.7643 85.9718 44.976 86.4913 44.2154C86.2503 44.5312 86.0159 44.8601 85.7938 45.2095C85.5216 45.6362 85.2696 46.0709 85.0303 46.5106ZM81.4592 89.154C81.3769 89.2918 81.3013 89.4157 81.243 89.5131C81.2098 89.569 81.1737 89.6231 81.1401 89.6782C81.3736 89.6798 81.623 89.7315 81.9183 89.8587C81.9296 89.8638 81.9418 89.8718 81.9531 89.8776C81.7906 89.6349 81.623 89.3959 81.4592 89.154ZM74.7762 101.382C74.1265 99.9124 72.8759 98.768 71.76 97.65C70.2771 96.1621 65.9631 91.3505 63.8003 93.9761C63.4912 94.352 62.3216 94.2697 62.8012 93.688C62.802 93.6872 62.8029 93.6864 62.8041 93.6855C61.2246 93.5709 60.816 95.1701 61.0104 96.4695C61.0432 96.4762 61.0747 96.4859 61.1049 96.4972C61.3506 96.4145 61.6139 96.3767 61.7378 96.4653C65.5852 99.2199 68.2864 103.385 72.6235 105.466C73.7347 104.488 75.5074 103.037 74.7762 101.382ZM80.0506 92.6994C80.1061 92.5848 80.7793 90.6504 80.5496 90.7965C80.4971 90.8293 80.4379 90.8532 80.3774 90.8704C79.8037 91.7259 79.1968 92.5587 78.5791 93.3836C78.3275 93.7191 77.0945 93.7951 77.4397 93.3344C78.1087 92.4428 78.8508 91.5126 79.5026 90.5374C79.5034 90.4555 79.5568 90.3652 79.676 90.2749C80.1397 89.5547 80.5475 88.8101 80.8263 88.034C80.9444 87.706 81.1791 87.1701 81.009 86.8215C80.8226 86.4393 80.584 86.8009 80.2115 87.1071C79.8079 87.4359 79.2384 87.842 78.7899 88.2964C78.5812 88.6106 78.3661 88.9117 78.1583 89.1922C78.1415 89.2242 78.1192 89.2536 78.0919 89.2825C77.8475 89.6097 77.6157 89.9117 77.4237 90.1691C77.2074 90.4585 76.1348 90.4996 76.2234 90.3808C76.4591 90.0641 76.7039 89.7353 76.9458 89.3972C76.9412 89.3695 76.9424 89.338 76.9567 89.301C77.0806 88.986 77.4132 88.5052 77.858 88.0016C78.2591 87.3167 78.5959 86.604 78.7769 85.8699C78.9029 85.3596 78.6988 83.1762 77.8135 84.043C77.134 84.7082 76.6279 85.5078 76.2382 86.3726C76.1924 86.4734 76.0399 86.5531 75.8598 86.6073C75.5267 87.2793 75.1483 87.9517 74.7876 88.6522C74.5776 89.06 73.3483 89.1418 73.6411 88.5749C74.7435 86.4339 76.0647 84.5663 75.4247 82.159C73.7784 83.2005 73.2118 85.1719 72.1145 86.7115C72.2157 86.8921 72.1031 87.1734 71.6999 87.3078C71.6353 87.3301 71.5639 87.3931 71.4975 87.4565C71.4916 87.4624 71.4879 87.4678 71.4824 87.4737C71.4824 87.4729 71.4824 87.472 71.4824 87.4712C71.4459 87.5056 71.4106 87.5392 71.3795 87.5648C71.3148 87.6173 71.2392 87.6535 71.1599 87.6803C71.2035 88.6555 71.2623 89.6311 71.5021 90.5857C71.6269 91.0829 70.4085 91.4051 70.2851 90.912C69.7425 88.75 70.1209 86.4746 69.5144 84.3441C67.4759 85.9404 67.7115 90.1221 67.7102 92.3475C67.7102 92.5428 67.4973 92.6944 67.2499 92.7666C68.947 93.4579 70.595 94.9122 71.7188 95.9954C72.7327 96.9714 74.2954 98.1821 75.2647 99.5437C76.2848 98.2968 77.2982 97.0411 78.2108 95.7148C78.8743 94.748 79.5404 93.759 80.0506 92.6994ZM102.273 109.213C105.529 112.255 112.666 117.167 116.762 112.819C121.238 108.063 120.351 99.4387 120.34 93.4293C120.34 93.4037 120.345 93.3802 120.353 93.3554C118.645 93.927 116.788 94.0992 115.007 94.0723C114.635 94.0664 112.562 94.079 111.11 93.8098C111.039 93.7968 110.97 93.7834 110.903 93.7687C110.903 93.7817 110.903 93.7955 110.903 93.8107C110.951 96.4036 111.107 98.9948 111.122 101.589C111.122 101.651 111.094 101.708 111.047 101.761C111.547 102.18 112.036 102.615 112.501 103.085C112.819 103.407 111.667 103.858 111.37 103.559C109.881 102.048 108.189 100.835 106.394 99.7692C104.902 98.8843 103.341 98.1007 101.76 97.3456C98.925 95.9895 96.0385 94.7111 93.4213 93.0442C93.2831 92.9556 93.2772 92.854 93.344 92.7578C91.9732 91.1762 92.2571 88.3292 91.1035 86.5624C90.6553 85.8749 90.1316 85.158 89.4664 84.6603C89.3656 84.5759 89.2598 84.4995 89.1497 84.4289C89.1338 84.4193 89.1174 84.4109 89.1015 84.4012C89.1015 84.4079 89.1015 84.4134 89.101 84.4201C89.0855 84.7384 89.104 85.0551 89.1775 85.3667C89.5433 86.7946 90.497 87.9613 90.838 89.4001C90.8536 89.4665 90.8233 89.5307 90.7629 89.5904C91.1211 89.8923 90.3719 90.5009 89.8822 90.3459C88.4686 89.8982 87.5413 88.7874 86.6929 87.6283C86.1986 86.9525 85.6342 86.0773 84.9055 85.5171C84.5943 85.8165 83.8115 85.8434 83.8006 85.3432C83.7985 85.2315 83.7993 85.1143 83.7989 84.9997C83.7271 84.9866 83.6527 84.9791 83.5792 84.9732C83.5746 85.0035 83.5746 85.0593 83.6028 85.1685C83.6536 85.3726 83.7166 85.5729 83.8035 85.7657C84.0337 86.2768 84.3268 86.7615 84.6384 87.2268C85.1436 87.9823 85.6829 88.7198 86.2771 89.4077C86.6984 89.8949 85.5472 90.3967 85.1659 89.9566C84.7132 89.4325 83.0102 87.4645 82.4743 85.9404C82.3282 85.9757 82.1753 85.979 82.0455 85.9299C81.9691 85.9013 81.9107 85.8799 81.8565 85.8669C81.8456 85.8946 81.8364 85.9228 81.8297 85.9547C81.8238 85.9786 81.8078 85.9958 81.7998 86.0177C81.9157 86.0849 82.0258 86.1743 82.1236 86.2923C82.4651 86.7056 82.3256 87.3708 82.0573 88.0117C82.1089 88.0289 82.1518 88.0554 82.1795 88.0953C82.788 88.955 83.3495 89.8457 83.9585 90.7054C84.0744 90.8696 82.9665 91.3484 82.7418 91.0309C82.5524 90.7634 82.3706 90.4904 82.1879 90.2187C82.187 90.2228 82.1896 90.2262 82.1883 90.23C81.9821 91.0519 81.6885 91.846 81.3362 92.6163C81.3799 92.6301 81.4202 92.6482 81.4538 92.6755C84.2037 94.8715 86.4271 97.131 90.0472 97.3271C90.2799 97.0843 90.9296 96.9185 91.1501 97.149C94.9319 101.095 98.2715 105.475 102.273 109.213ZM122.371 120.147C122.706 119.891 123.024 119.62 123.314 119.323C121.896 116.791 120.411 113.963 119.63 111.088C119.58 110.903 119.532 110.719 119.487 110.534C119.292 110.941 119.076 111.335 118.835 111.709C118.136 112.791 117.231 113.706 116.039 114.299C112.829 115.897 109.111 115.029 106.003 113.336C105.825 113.238 105.65 113.137 105.476 113.035C104.632 112.539 103.839 111.988 103.124 111.415C99.8439 108.782 97.0792 105.594 94.3154 102.415C94.6535 104.437 94.2902 106.742 93.9689 108.493C93.323 112.008 92.3125 115.511 90.8376 118.772C90.8212 118.809 90.7939 118.842 90.7612 118.874C91.0312 118.776 91.342 118.732 91.4697 118.843C96.136 122.898 102.912 123.827 108.888 123.535C111.439 123.409 114.679 123.177 117.617 122.364C119.386 121.872 121.038 121.164 122.371 120.147ZM148.031 59.9799C146.15 59.2407 146.497 56.5496 146.712 54.9566C146.795 54.3472 145.554 54.5177 145.481 55.054C145.205 57.093 145.025 59.882 147.325 60.7858C147.828 60.984 148.749 60.2621 148.031 59.9799ZM154.297 59.903C154.829 61.3196 154.649 63.0314 153.114 63.6924C151.521 64.3791 150.245 63.1591 149.6 61.811C149.445 61.4863 150.221 61.1726 150.622 61.3196C151.428 60.7627 152.46 60.6313 153.197 59.9471C153.414 59.7439 154.143 59.4944 154.297 59.903ZM153.267 60.8522C153.097 60.9483 152.924 61.0374 152.741 61.113C152.279 61.3041 151.714 61.4271 151.334 61.7677C151.259 61.8357 151.166 61.8874 151.067 61.9294C151.484 62.598 152.264 63.569 152.843 63.0058C153.423 62.4392 153.441 61.6073 153.267 60.8522ZM142.365 52.6993C142.869 53.2326 142.957 53.8294 142.958 54.5358C142.958 54.8369 144.175 54.6295 144.174 54.2095C144.174 53.446 144.043 52.8223 143.502 52.2507C143.247 51.9803 142.099 52.4179 142.365 52.6993ZM150.589 51.3247C151.093 51.8581 151.181 52.4548 151.182 53.1612C151.182 53.4624 152.399 53.2549 152.398 52.8349C152.397 52.0714 152.267 51.4469 151.726 50.8762C151.471 50.6053 150.323 51.0433 150.589 51.3247ZM143.18 49.384C142.996 49.1816 142.584 49.2584 142.371 49.3576C141.764 49.6415 141.084 49.7061 140.473 49.9909C140.317 50.0639 139.96 50.2912 140.154 50.5045C140.339 50.7078 140.751 50.6309 140.964 50.5314C141.571 50.2483 142.251 50.1836 142.862 49.8981C143.019 49.8254 143.374 49.5982 143.18 49.384ZM150.771 48.9926C150.947 48.7637 150.622 48.6776 150.453 48.6776C149.925 48.6776 149.398 48.6776 148.871 48.6776C148.601 48.6776 148.237 48.7738 148.064 48.9985C147.888 49.2282 148.213 49.3143 148.383 49.3143C148.91 49.3143 149.437 49.3143 149.965 49.3143C150.234 49.3135 150.598 49.2173 150.771 48.9926ZM187.89 117.536C186.786 118.341 185.671 119.13 184.55 119.913C184.5 119.947 184.45 119.982 184.401 120.016C184.452 120.003 184.505 119.991 184.557 119.987C184.859 119.952 185.152 120.052 185.143 120.348C185.022 124.382 186.701 128.158 187.273 132.102C187.323 132.445 186.86 132.69 186.49 132.698C186.271 132.702 186.084 132.621 186.056 132.428C185.473 128.405 183.791 124.572 183.915 120.458C183.917 120.412 183.931 120.369 183.951 120.328C181.474 122.05 178.978 123.746 176.528 125.505C174.224 127.159 171.667 128.831 169.405 130.748C168.214 131.757 167.105 132.835 166.161 134.015C166.205 134.075 166.181 134.158 166.04 134.269C162.849 136.768 157.653 140.016 153.521 137.945C153.241 137.804 153.444 137.586 153.745 137.446C152.591 137.258 151.581 136.712 151.02 135.643C149.695 135.494 148.443 135.074 147.432 134.174C147.221 133.987 147.493 133.753 147.832 133.64C147.309 133.49 146.802 133.293 146.325 133.037C146.193 132.965 146.163 132.848 146.24 132.721C146.24 132.72 146.241 132.72 146.241 132.719C147.567 130.538 150.745 130.2 153.109 129.448C150.766 129.362 146.632 129.367 146.764 127.973C146.839 127.186 148.013 126.522 149.205 126.058C150.138 125.694 151.081 125.453 151.52 125.369C154.434 124.812 157.351 125.122 160.29 125.186C161.66 124.594 162.874 123.691 163.988 122.666C163.75 122.688 163.541 122.632 163.519 122.462C162.466 114.162 162.296 105.927 162.055 97.5816C161.836 89.9801 161.077 82.2955 162.324 74.7423C161.86 74.8007 161.836 74.5428 162.026 74.3156C161.918 74.3089 161.851 74.2887 161.869 74.2526C162.515 73.0074 162.976 71.6803 163.464 70.3679C160.692 72.1192 156.474 72.4039 153.601 71.7433C153.007 73.0523 152.998 74.6339 152.395 75.9405C152.384 75.9653 152.366 75.9879 152.345 76.0102C152.363 76.0455 152.384 76.0749 152.401 76.111C152.437 76.1832 152.327 76.279 152.161 76.363C150.969 84.8569 151.537 93.531 150.817 102.071C150.192 109.484 148.782 117.765 151.215 124.982C151.342 125.359 150.477 125.665 150.126 125.459C150.067 125.424 150.02 125.376 149.998 125.309C147.606 118.215 148.934 110.059 149.548 102.777C150.295 93.9178 149.702 84.9014 151.002 76.0988C150.017 74.3828 148.506 73.7785 146.567 74.8784C146.473 74.9317 145.333 75.2391 145.498 74.9565C146.154 73.8276 146.919 72.6164 147.851 71.595C147.099 71.9806 146.342 72.3686 145.59 72.792C142.866 74.3227 141.854 77.0597 141.125 79.9554C139.548 86.2247 137.552 92.5793 136.674 99.0313C140.068 99.0742 143.591 101.033 145.709 103.775C145.635 96.1234 145.436 88.446 146.679 80.8718C146.741 80.5009 147.96 80.2805 147.891 80.6979C146.527 89.0037 146.908 97.4354 146.942 105.818C148.067 108.315 148.007 111.159 145.902 113.725C145.818 113.827 145.693 113.893 145.559 113.928C144.5 116.516 142.757 118.817 140.542 120.52C140.722 120.549 140.837 120.642 140.78 120.816C139.576 124.503 139.801 128.524 140.065 132.339C140.07 132.403 140.055 132.464 140.026 132.521C139.821 132.925 138.877 133.086 138.847 132.666C138.587 128.902 138.349 124.941 139.451 121.285C137.679 122.411 135.018 123.278 132.997 122.306C129.769 120.75 128.567 116.621 128.009 113.354C127.278 109.062 127.315 104.681 126.511 100.402C126.497 100.323 126.543 100.248 126.623 100.181C125.331 98.5761 123.653 97.1276 123.215 95.1147C122.65 92.5176 122.505 88.6568 123.779 86.2411C124.425 85.019 126.344 83.2765 128.175 82.8221C128.231 81.655 128.609 80.642 129.668 80.0486C130.388 79.6459 131.436 79.6337 132.12 80.1158C133.865 81.348 132.976 84.4852 132.949 86.3154C132.949 86.3679 132.929 86.4162 132.896 86.4616C132.927 86.4855 132.946 86.5149 132.949 86.5527C133.329 91.6079 131.529 96.6757 134.598 101.21C134.785 101.486 134.974 101.756 135.163 102.024C135.222 101.297 135.298 100.57 135.386 99.8435C135.276 99.6949 135.308 99.4736 135.449 99.3014C136.315 92.6096 138.301 85.9123 140.09 79.5086C140.802 76.9623 141.82 74.4286 144.184 73.0074C146.716 71.4833 149.416 70.4636 151.8 68.6569C151.867 68.6053 152.029 68.5553 152.206 68.5217C152.054 68.1294 151.848 67.772 151.605 67.426C148.541 67.6284 145.464 66.4915 143.292 63.9171C139.566 59.5015 138.435 53.089 138.84 47.4593C138.84 47.4543 138.842 47.4505 138.842 47.4463C138.297 44.0684 139.775 41.2929 142.222 39.2405C144.881 36.2473 149.491 34.861 154.288 35.205C155.75 35.223 157.133 35.4225 158.336 35.8236C166.908 38.6848 170.521 51.8778 165.226 58.9984C165.214 59.0148 165.199 59.0278 165.184 59.0425C164.634 60.5666 164.365 62.1751 165.071 63.7063C165.364 64.343 165.729 64.9393 166.04 65.5634C166.309 65.3795 166.854 65.222 167.07 65.3757C168.141 66.1354 169.346 66.77 170.606 67.36C171.026 67.1534 171.888 67.1576 171.579 67.5272C171.523 67.5935 171.475 67.6641 171.421 67.733C175.562 69.5817 180.141 71.0919 182.688 74.7272C185.99 79.4397 186.247 85.6876 187.214 91.1842C187.875 94.9383 188.441 98.7214 189.305 102.437C189.782 104.487 190.486 106.468 191.01 108.502C191.092 108.588 191.177 108.668 191.258 108.756C191.405 108.915 191.34 109.08 191.184 109.205C192.003 112.761 191.937 116.471 187.89 117.536ZM181.101 74.6226C180.769 74.243 180.417 73.8788 180.023 73.5487C177.314 71.283 174.029 70.0176 170.852 68.5519C169.312 71.1234 169.145 74.3282 167.307 76.7766C167.093 77.0605 166.338 77.3402 166.128 76.9152C165.563 75.7708 164.692 74.9204 163.523 74.7268C162.274 82.4299 163.147 90.222 163.288 97.9722C163.435 106.02 163.712 113.974 164.716 121.969C165.401 121.286 166.051 120.571 166.68 119.876C168.106 118.296 169.55 116.811 170.515 114.898C171.818 112.313 173.214 108.849 176.305 108.213C176.075 108.154 176.068 107.993 176.179 107.829C174.805 104.166 172.924 100.592 172.77 96.6064C172.596 92.0934 173.414 87.5539 172.534 83.0838C172.469 82.7524 173.693 82.4622 173.75 82.7574C174.638 87.2616 173.653 91.7549 173.987 96.2801C174.183 98.9318 175.003 101.353 175.936 103.759C180.818 102.664 185.468 103.845 189.228 106.865C189.077 106.392 188.935 105.955 188.819 105.572C187.135 99.9985 186.29 94.0013 185.427 88.2515C185.012 85.4789 184.648 82.2522 183.679 79.3511C183.094 77.5952 182.277 75.9669 181.101 74.6226ZM165.156 68.8644C164.463 70.5531 163.936 72.3233 163.1 73.9574C164.651 73.8549 165.926 74.5021 166.815 75.7154C168.141 73.311 168.406 70.4296 169.954 68.129C168.77 67.56 167.611 66.9438 166.513 66.2202C166.473 66.2811 166.436 66.3416 166.398 66.4025C166.416 66.4508 166.435 66.4987 166.451 66.5478C166.482 66.6461 166.335 66.757 166.131 66.8422C166.127 66.8498 166.122 66.8578 166.118 66.8662C165.935 67.6217 165.604 68.2869 165.156 68.8644ZM129.279 82.7218C129.965 82.7826 130.594 83.1014 131.08 83.7939C131.409 84.2622 131.636 84.7989 131.788 85.3705C131.85 84.4419 131.928 83.5126 131.869 82.5823C131.829 81.9566 131.823 81.1624 131.255 80.7622C129.906 79.8097 129.431 81.4963 129.387 82.5202C129.384 82.5945 129.342 82.6625 129.279 82.7218ZM144.528 113.654C143.373 109.844 140.776 106.482 137.168 104.822C138.391 106.591 139.432 108.406 139.909 110.757C139.988 111.146 138.766 111.446 138.692 111.084C137.853 106.949 135.131 104.498 133.049 101.022C130.919 97.4632 131.585 93.649 131.75 89.784C131.604 90.4559 131.411 91.0922 131.198 91.6558C130.643 93.1152 128.988 95.3209 127.511 93.3915C127.123 92.8846 128.279 92.4 128.623 92.8502C129.541 94.0479 130.417 90.2632 130.523 89.6324C130.792 88.0327 131.109 85.4826 129.845 84.1858C129.03 83.3492 127.851 83.7927 126.975 84.3055C124.606 85.6918 124.203 88.2658 124.177 90.8074C124.153 93.0182 124.097 95.2974 125.612 97.0785C126.687 98.3392 127.797 99.4631 128.623 100.917C128.84 101.298 128.383 101.632 127.979 101.66C128.754 107.453 128.215 113.93 131.244 119.055C135.428 126.133 142.639 118.698 144.528 113.654ZM136.555 99.988C136.421 101.117 136.32 102.251 136.267 103.387C140.651 104.684 143.925 108.256 145.463 112.479C146.573 110.675 146.661 108.747 146.062 106.958C145.872 106.962 145.725 106.917 145.725 106.807C145.724 106.577 145.723 106.348 145.722 106.119C144.16 102.75 140.258 100.065 136.555 99.988ZM151.343 74.6898C151.439 74.6167 151.568 74.56 151.702 74.5256C151.967 73.3879 152.146 72.2208 152.79 71.2397C152.622 70.5401 152.539 69.832 152.385 69.1294C152.375 69.0819 152.356 69.0399 152.344 68.9941C152.098 69.1705 151.85 69.341 151.6 69.5044C151.592 69.6035 151.448 69.7383 151.132 69.8358C151.089 69.8488 151.048 69.8685 151.005 69.8832C150.628 70.1113 150.247 70.3263 149.864 70.5371C148.704 71.4527 147.75 72.957 147.034 74.1749C148.607 73.608 150.161 73.6374 151.343 74.6898ZM164.144 68.6544C164.359 68.1597 164.593 67.6742 164.857 67.2026C164.889 67.0934 164.918 66.9837 164.942 66.8687C164.961 66.7801 165.039 66.7024 165.144 66.6373C164.727 65.5365 163.954 64.5924 163.634 63.4556C163.434 62.7492 163.397 62.0642 163.464 61.3893C163.294 61.6321 163.182 61.7887 163.182 61.7887L162.141 56.3522C162.036 56.3597 161.934 56.3644 161.835 56.3686C161.027 56.4022 162.021 55.8705 162.355 55.8566C162.472 55.8516 162.593 55.8444 162.716 55.8352C163.365 55.461 164.308 54.645 164.453 52.9979C164.507 52.3767 164.405 51.9316 164.212 51.6191C164.211 51.6183 164.21 51.6174 164.21 51.6166C164.089 51.4822 163.952 51.3457 163.809 51.2138C163.103 50.7817 162.026 51.1 161.596 51.6044C160.902 52.4175 160.804 53.897 160.33 55.0053C159.856 56.1136 159.5 55.5391 159.5 55.5391L158.749 53.0193C158.749 53.0193 158.351 51.5494 157.528 50.6259C156.892 50.4848 156.208 50.4209 155.667 50.2059C154.238 49.6398 153.663 48.4857 153.47 47.1309C153.458 47.1095 153.45 47.0973 153.45 47.0973C153.45 47.0973 149.498 45.561 146.324 45.829C145.971 45.9201 145.644 46.007 145.361 46.0767C144.825 46.2082 144.287 46.3522 143.749 46.4976C142.06 47.1611 140.721 48.0431 140.012 48.563C139.87 53.0285 140.717 57.9854 143.165 61.7127C145.188 64.7919 148.341 66.6759 151.648 66.5335C151.907 66.439 152.203 66.3958 152.327 66.4743C153.654 66.3047 154.994 65.804 156.285 64.9166C156.789 64.5706 157.78 65.0301 157.099 65.4975C155.81 66.384 154.385 66.9657 152.927 67.2487C153.216 67.6738 153.453 68.1299 153.565 68.6393C153.727 69.3801 153.819 70.1256 153.994 70.8622C154.041 70.8907 154.056 70.9353 154.026 70.9957C154.029 71.0096 154.033 71.0243 154.036 71.0386C157.078 71.9138 162.101 71.4266 164.144 68.6544ZM187.133 117.248C187.136 117.246 187.14 117.245 187.143 117.242C187.207 117.177 187.318 117.118 187.468 117.074C187.494 117.066 187.512 117.056 187.541 117.049C191.196 116.197 190.766 112.322 189.869 109.001C186.234 105.214 181.407 103.427 176.238 104.53C176.62 105.5 177.012 106.471 177.381 107.457C182.671 107.839 185.807 111.919 188.173 116.351C188.37 116.72 187.855 117.035 187.449 117.042C187.276 117.045 187.122 116.993 187.053 116.864C185.232 113.454 182.955 110.102 179.42 108.803C178.815 108.58 178.174 108.412 177.489 108.321C177.52 108.399 177.515 108.489 177.476 108.579C177.395 108.767 177.174 108.946 176.877 108.965C173.092 109.202 172.131 115.21 169.992 117.614C167.358 120.573 164.634 124.188 160.901 125.823C160.744 125.951 160.541 126.046 160.351 126.044C157.855 126.016 155.291 125.638 152.806 125.982C151.381 126.18 150.029 126.612 148.776 127.327C148.553 127.455 148.277 127.604 148.154 127.745C148.026 127.89 148.06 128.025 148.482 128.116C148.698 128.163 148.915 128.199 149.134 128.231C151.151 128.52 153.263 128.224 155.229 128.788C155.929 128.989 155.085 129.656 154.58 129.584C154.532 129.615 154.477 129.646 154.405 129.676C152.437 130.491 149.519 130.605 147.93 132.081C147.135 132.819 148.172 132.921 148.894 133.061C149.801 133.236 150.734 133.325 151.658 133.238C153.027 133.109 154.328 132.826 155.58 132.244C156.13 131.99 156.833 132.404 156.065 132.76C153.924 133.755 151.227 134.28 148.791 133.862C150.912 135.503 154.16 134.929 156.607 134.498C157.439 134.351 157.069 135.144 156.461 135.252C155.234 135.468 153.856 135.688 152.493 135.71C153.732 137.281 156.467 137.064 158.06 136.138C158.431 135.922 159.515 136.047 158.804 136.46C157.779 137.055 156.306 137.496 154.887 137.524C158.243 138.843 162.37 136.15 164.966 134.129C164.973 134.117 164.977 134.106 164.988 134.093C167.776 130.577 171.96 127.943 175.566 125.365C179.398 122.625 183.335 120.031 187.133 117.248ZM39.7641 18.5775C38.2056 12.5274 40.2449 4.62224 47.0871 3.13848C47.2538 3.10153 47.3887 3.10992 47.4932 3.13848C51.7156 1.35865 56.8934 0.99495 61.4031 0.933635C66.9446 0.85888 73.6188 1.3914 78.0415 5.14636C82.1883 8.66698 85.045 17.1794 81.5957 22.0099C78.3317 26.5821 71.8406 27.4607 66.6023 27.9479C63.3828 30.5849 59.2293 31.3446 55.2652 32.2794C55.0905 32.3613 54.9129 32.4403 54.731 32.5125C54.348 32.6641 53.7374 32.6087 54.0578 32.3911C53.876 32.2551 53.9742 31.9779 54.4467 31.862C54.8389 31.7658 55.2341 31.6751 55.631 31.5848C57.2798 30.5357 58.5939 28.9633 60.0844 27.7043C55.7625 27.0588 51.2852 27.5657 47.0699 26.255C43.5279 25.1546 40.6893 22.1703 39.7641 18.5775ZM41.549 19.8701C45.1733 27.7685 54.025 25.9522 61.0633 27.0735C61.2519 27.1029 61.3086 27.1717 61.2863 27.2532C61.4652 27.249 61.5711 27.278 61.477 27.3523C59.8883 28.6253 58.5452 30.1321 56.9245 31.2912C60.0029 30.5924 63.1057 29.805 65.5873 27.8067C65.5646 27.6073 65.8531 27.3221 66.226 27.2885C71.2279 26.8375 79.3119 26.1059 81.2606 20.4182C83.045 15.2089 80.445 7.67879 75.7296 4.78015C71.1233 1.9487 65.342 1.47204 60.055 1.68034C56.0984 1.83531 51.5804 2.13223 47.8884 3.713C47.6818 3.80162 47.4546 3.79658 47.2887 3.73946C47.2744 3.74366 47.2656 3.74828 47.2505 3.75164C40.5692 5.20096 39.0648 14.4559 41.549 19.8701ZM111.836 26.7581C110.543 24.4629 110.482 21.5525 110.867 19.01C111.319 16.0211 112.004 12.5563 114.015 10.1684C117.051 6.56335 121.804 5.30595 126.371 5.29293C129.984 5.28243 134.365 5.66041 137.591 7.48392C137.701 7.45999 137.803 7.4562 137.88 7.47804C143.843 9.2373 144.327 18.3679 143.035 23.3147C142.226 26.4087 140.366 29.5307 137.216 30.6798C134.295 31.7452 131.202 31.4475 128.188 31.9535C129.346 33.2987 130.314 34.8925 131.72 35.9718C131.988 36.0562 132.254 36.1415 132.521 36.2284C132.699 36.2876 132.663 36.3947 132.53 36.5022C132.556 36.5169 132.582 36.5342 132.609 36.548C132.734 36.6135 131.768 37.1171 131.461 36.955C131.243 36.8403 131.035 36.7097 130.836 36.5711C127.849 35.6186 124.857 34.7535 122.708 32.3101C118.57 31.7721 114.028 30.6516 111.836 26.7581ZM113.144 26.5913C115.385 30.1783 119.686 31.1682 123.618 31.6474C123.945 31.6869 124.012 31.8187 123.947 31.9598C125.437 33.5956 127.319 34.4847 129.314 35.1877C128.397 34.1559 127.619 32.9674 126.694 31.975C126.63 31.9061 126.75 31.7994 126.935 31.7058C126.999 31.6066 127.132 31.5138 127.363 31.4647C130.052 30.8961 132.889 31.2178 135.545 30.537C139.112 29.6223 141.222 26.4981 141.92 23.0145C142.82 18.5258 142.684 9.78032 137.134 8.14244C137.125 8.13992 137.121 8.13739 137.113 8.13403C136.942 8.17183 136.775 8.17351 136.671 8.11346C133.943 6.55746 130.223 6.11272 127.15 6.02998C122.645 5.90693 117.297 6.79685 114.647 10.8958C112.097 14.8397 110.469 22.3106 113.144 26.5913Z" fill="#175CD3"/>
</svg>
