<svg width="56" height="56" viewBox="0 0 56 56" fill="none" xmlns="http://www.w3.org/2000/svg">
<rect x="4" y="4" width="48" height="48" rx="24" fill="#D1E0FF"/>
<path d="M28 36.3125H28.0001C30.2039 36.31 32.3167 35.4334 33.8751 33.8751C35.4334 32.3167 36.31 30.2039 36.3125 28.0001V28C36.3125 26.3559 35.825 24.7488 34.9116 23.3818C33.9982 22.0148 32.7 20.9494 31.1811 20.3203C29.6621 19.6911 27.9908 19.5265 26.3783 19.8472C24.7658 20.168 23.2847 20.9597 22.1222 22.1222C20.9597 23.2847 20.168 24.7658 19.8472 26.3783C19.5265 27.9908 19.6911 29.6621 20.3203 31.1811C20.9494 32.7 22.0148 33.9982 23.3818 34.9116C24.7488 35.825 26.3559 36.3125 28 36.3125ZM27.3125 28V27.9375H27.25C27.0677 27.9375 26.8928 27.8651 26.7639 27.7361C26.6349 27.6072 26.5625 27.4323 26.5625 27.25C26.5625 27.0677 26.6349 26.8928 26.7639 26.7639C26.8928 26.6349 27.0677 26.5625 27.25 26.5625C27.6313 26.5625 27.9969 26.714 28.2665 26.9835C28.5361 27.2531 28.6875 27.6188 28.6875 28V31.75V31.8125H28.75C28.9323 31.8125 29.1072 31.8849 29.2361 32.0139C29.3651 32.1428 29.4375 32.3177 29.4375 32.5C29.4375 32.6823 29.3651 32.8572 29.2361 32.9861C29.1072 33.1151 28.9323 33.1875 28.75 33.1875C28.3688 33.1875 28.0031 33.036 27.7335 32.7665C27.464 32.4969 27.3125 32.1312 27.3125 31.75V28ZM22.6179 19.9451C24.211 18.8807 26.084 18.3125 28 18.3125C30.5684 18.3152 33.0309 19.3367 34.8471 21.1529C36.6633 22.9691 37.6848 25.4316 37.6875 28.0001C37.6875 29.916 37.1193 31.789 36.0549 33.3821C34.9904 34.9752 33.4774 36.2169 31.7072 36.9501C29.9371 37.6833 27.9893 37.8752 26.1101 37.5014C24.2309 37.1276 22.5047 36.2049 21.1499 34.8501C19.7951 33.4953 18.8724 31.7691 18.4986 29.8899C18.1249 28.0107 18.3167 26.0629 19.0499 24.2928C19.7831 22.5226 21.0248 21.0096 22.6179 19.9451ZM26.5625 23.875C26.5625 23.6649 26.6248 23.4594 26.7416 23.2847C26.8583 23.11 27.0243 22.9738 27.2184 22.8934C27.4125 22.813 27.6262 22.7919 27.8323 22.8329C28.0384 22.8739 28.2277 22.9751 28.3763 23.1237C28.5249 23.2723 28.6261 23.4616 28.6671 23.6677C28.7081 23.8738 28.687 24.0875 28.6066 24.2816C28.5262 24.4757 28.39 24.6417 28.2153 24.7584C28.0406 24.8752 27.8351 24.9375 27.625 24.9375C27.3432 24.9375 27.073 24.8256 26.8737 24.6263C26.6744 24.427 26.5625 24.1568 26.5625 23.875Z" fill="#2E90FA" stroke="#2970FF" stroke-width="0.125"/>
<rect x="4" y="4" width="48" height="48" rx="24" stroke="#EFF4FF" stroke-width="8"/>
</svg>
