<svg width="54" height="36" viewBox="0 0 54 36" fill="none" xmlns="http://www.w3.org/2000/svg">
<path d="M17.48 12.4693C17.0627 11.1245 16.7513 11.2242 16.5519 11.2242C15.3449 11.1961 14.1408 11.3558 12.9828 11.6973C12.4845 11.8094 11.681 11.8842 11.4568 11.9091C11.4132 11.9091 11.3758 11.9838 11.3447 11.9838C11.0508 11.9935 10.7577 12.0184 10.4664 12.0585C10.429 11.7347 10.4103 11.4359 10.373 11.0872C10.2359 9.96652 10.1363 8.84584 9.94316 7.73139C9.90579 7.50725 10.3356 7.24576 9.32028 7.10879H9.27668C8.92426 7.08093 8.57018 7.08093 8.21777 7.10879C6.6045 7.10879 6.09997 7.25202 6.34912 7.53219C6.40518 7.59445 6.34915 7.66914 6.29931 7.74385C6.21511 7.92699 6.1766 8.12786 6.18716 8.32913C6.18716 8.51591 6.45502 8.70885 6.44257 8.88318C6.27174 9.62054 6.15723 10.3699 6.09999 11.1246C6.16563 11.7031 6.293 12.2729 6.47994 12.8243C6.03146 12.8554 5.583 12.8554 5.13453 12.8678C3.85762 12.9052 2.58068 12.8678 1.29131 12.8118C1.02347 12.8118 0.830396 12.3262 0.450437 13.2601V13.3037C0.34201 13.6418 0.268927 13.9902 0.232406 14.3434C-0.103951 15.9248 -0.0790145 16.4416 0.332088 16.2486C0.419292 16.205 0.494047 16.2859 0.575022 16.3482C0.788158 16.4745 1.02617 16.5531 1.27265 16.5786C1.50934 16.6221 1.78963 16.3855 2.00141 16.4353C2.89362 16.7275 3.81117 16.936 4.74211 17.0579C5.5127 17.0468 6.27956 16.9487 7.02808 16.7653C7.01448 17.6469 7.15789 18.5239 7.45163 19.3553C7.75685 20.0215 7.45162 20.7499 7.39556 21.4535C7.36441 21.7461 8.23022 21.8644 9.694 21.7585C11.1578 21.6527 11.083 21.3787 11.1391 21.2106C11.4388 20.1729 11.4964 19.0802 11.3073 18.0167C11.2574 17.5622 11.2699 16.8463 11.2574 16.6408C11.2574 16.5972 11.1889 16.5661 11.1889 16.5349C11.1889 16.5038 11.1889 16.3295 11.1889 16.2299H11.3197C12.5655 15.9808 13.8113 15.9497 14.9885 15.3022C15.7609 14.8539 16.6827 14.966 17.5548 14.8415C17.9472 14.7543 17.916 13.8702 17.48 12.4693Z" fill="#84CAFF"/>
<path d="M36.6962 28.6074C36.1792 27.3 35.9549 27.3622 35.8054 27.3622C34.9072 27.3009 34.0054 27.4064 33.1457 27.6735C32.7737 27.7431 32.3967 27.7826 32.0183 27.7918C31.9872 27.7918 31.9622 27.8603 31.9373 27.8603C31.4025 27.8537 30.8679 27.8808 30.3365 27.9413C30.3365 27.7358 30.3365 27.5303 30.3365 27.3187C30.2618 26.4221 30.2182 25.5318 30.0811 24.6415C30.0811 24.4609 30.5047 24.2679 29.5205 24.1185H29.4769C29.1243 24.0953 28.7706 24.0953 28.418 24.1185C26.8048 24.1185 26.3002 24.1683 26.5494 24.3986C26.6054 24.4484 26.5494 24.5045 26.4871 24.5605C26.3947 24.6962 26.3468 24.8572 26.3501 25.0212C26.3501 25.1769 26.5992 25.3325 26.5681 25.4695C26.3621 26.0435 26.2099 26.6355 26.1134 27.2377C26.1261 27.4994 26.1699 27.7585 26.2442 28.0097C25.6773 27.9039 25.1105 27.7793 24.5437 27.6486C24.3444 27.5988 24.3382 27.1131 23.8025 27.9537L23.7713 27.991C23.5993 28.3018 23.4494 28.6243 23.3228 28.9561C22.6314 30.413 22.5193 30.9173 22.9055 30.8239C22.9865 30.8239 23.0301 30.8861 23.0799 30.9608C23.2169 31.1211 23.3959 31.2396 23.5969 31.3032C23.7775 31.3842 24.0641 31.2036 24.2198 31.3032C24.8841 31.7428 25.6049 32.0905 26.3625 32.3368C26.4835 32.3629 26.6064 32.3796 26.73 32.3865C26.7052 32.891 26.7991 33.3943 27.0041 33.8559C27.2782 34.3976 26.9543 34.9641 26.8359 35.5182C26.7861 35.7486 27.6457 35.8731 29.1157 35.8358C30.5857 35.7984 30.5234 35.5743 30.5919 35.4435C30.9406 34.6496 31.0551 33.7726 30.922 32.9158C30.9096 32.6856 30.9096 32.4549 30.922 32.2247C31.2516 32.2176 31.5804 32.1885 31.9062 32.1376C32.9339 31.9695 34.024 31.9943 34.9583 31.3779C35.5812 30.9608 36.3598 31.0854 37.0886 30.9546C37.3689 30.8301 37.2381 29.9709 36.6962 28.6074Z" fill="#84CAFF"/>
<path d="M53.1833 10.4584C53.1148 9.05131 52.7847 9.06378 52.5916 9.00152C51.3713 8.68952 50.102 8.61764 48.8543 8.78986C48.3186 8.83344 47.484 8.78986 47.2473 8.78986C47.1975 8.78986 47.1538 8.85211 47.1227 8.85211C46.793 8.8272 46.462 8.8272 46.1323 8.85211C46.0825 8.64665 45.9891 8.44119 45.9205 8.22951C46.014 7.97424 45.7773 7.76879 45.6963 7.53843C45.4609 6.70194 45.3045 5.84524 45.2291 4.97956C45.0049 3.57872 44.8243 2.17781 44.544 0.789415C44.4879 0.50302 44.899 0.166817 43.9211 0.0111673H43.8775C43.5219 -0.0128037 43.1648 0.00185147 42.8124 0.0547918C41.1991 0.123278 40.707 0.28518 40.9935 0.627609C41.0558 0.708547 40.9935 0.801888 40.9561 0.889052C40.8835 1.12888 40.8622 1.38139 40.8939 1.62998C40.8939 1.86657 41.1866 2.09692 41.1866 2.31483C41.0722 3.24848 41.016 4.18835 41.0185 5.12898C41.1306 6.19985 41.579 7.22087 41.7846 8.27929C41.8656 8.6902 41.9216 9.10734 41.9714 9.52448C41.5603 9.52448 41.143 9.5743 40.7257 9.61166C39.4114 9.72995 38.0971 9.81088 36.7891 9.99143C36.5212 9.99143 36.2285 9.58678 36.0229 10.5767C36.0229 10.5767 36.0229 10.6078 36.0229 10.6203C35.9872 10.9722 35.9872 11.3268 36.0229 11.6787C35.9855 13.2913 36.1101 13.7956 36.4465 13.5465C36.5212 13.4905 36.6084 13.5465 36.6894 13.6025C36.9048 13.6895 37.1362 13.7297 37.3684 13.7208C37.5926 13.7208 37.8231 13.4593 38.0286 13.478C38.8891 13.6605 39.7611 13.7832 40.6385 13.8454C41.2829 13.7966 41.9212 13.6861 42.5445 13.5154C42.6091 14.1734 42.7664 14.8189 43.0117 15.4329C43.373 16.261 43.1425 17.1763 43.1176 18.0604C43.1176 18.4277 43.9834 18.5584 45.4347 18.384C46.886 18.2097 46.805 17.8736 46.8486 17.6557C47.0673 16.3298 47.042 14.9753 46.7739 13.6585C46.7739 13.4842 46.7241 13.285 46.7054 13.0796H46.7988C47.9823 12.9364 49.172 13.0795 50.343 12.6437C51.1341 12.3449 51.975 12.6437 52.7972 12.7309C53.0775 12.7869 53.2519 11.9526 53.1833 10.4584Z" fill="#84CAFF"/>
</svg>
