<svg width="62" height="62" viewBox="0 0 62 62" fill="none" xmlns="http://www.w3.org/2000/svg">
<rect x="15.0293" y="0.606445" width="48" height="48" rx="10" transform="rotate(15 15.0293 0.606445)" fill="#F79009"/>
<g filter="url(#filter0_b_1103_42851)">
<rect y="14" width="48" height="48" rx="10" fill="white" fill-opacity="0.6"/>
<path d="M33.361 31.7812L33.3608 31.7811L29.8714 31.4858L29.834 31.4827L29.8192 31.4482L28.458 28.2749L33.361 31.7812ZM33.361 31.7812C33.5922 31.7999 33.8127 31.8869 33.9945 32.031C34.1762 32.1752 34.311 32.3701 34.3818 32.591C34.4514 32.8104 34.4543 33.0455 34.3902 33.2666C34.3261 33.4877 34.1977 33.6848 34.0215 33.8329L34.0211 33.8332L31.3821 36.0832L31.353 36.1079L31.3618 36.1451L32.1521 39.4948L32.1521 39.4949C32.205 39.7177 32.1909 39.9512 32.1118 40.1661C32.0327 40.381 31.892 40.5678 31.7072 40.7031L31.7072 40.7032C31.5202 40.8405 31.297 40.9196 31.0653 40.9307C30.8336 40.9418 30.6038 40.8843 30.4046 40.7655L30.4045 40.7654L27.4045 38.9842L27.3726 38.9652L27.3407 38.9842L24.3407 40.7654L24.3406 40.7655C24.1414 40.8843 23.9116 40.9418 23.6799 40.9307C23.4482 40.9196 23.225 40.8405 23.038 40.7032L23.038 40.7032C22.8534 40.5677 22.7127 40.3809 22.6336 40.166C22.5544 39.9511 22.5404 39.7177 22.5931 39.4948L22.5931 39.4948L23.3834 36.1451L23.3922 36.1079L23.3631 36.0832L20.7233 33.8333C20.7232 33.8332 20.7232 33.8332 20.7231 33.8332C20.5479 33.6831 20.4211 33.4844 20.3586 33.2623C20.2961 33.0401 20.3008 32.8044 20.3721 32.5849C20.4434 32.3654 20.5781 32.1719 20.7592 32.0289C20.9403 31.8858 21.1597 31.7996 21.3898 31.7812L21.39 31.7811L24.8804 31.4868L24.9178 31.4836M33.361 31.7812L24.9178 31.4836M24.9178 31.4836L24.9325 31.4491M24.9178 31.4836L24.9325 31.4491M24.9325 31.4491L26.2937 28.2749L24.9325 31.4491ZM30.3699 35.1509L30.3701 35.1507L32.6407 33.2082L32.7543 33.1111L32.6054 33.0985L29.597 32.8435C29.385 32.8255 29.182 32.7502 29.0095 32.6258C28.837 32.5013 28.7017 32.3322 28.6179 32.1367L28.5604 32.1614L28.6179 32.1367L27.4329 29.373L27.3755 29.2392L27.318 29.3729L26.1302 32.1367L26.1301 32.1368C26.0465 32.3324 25.9112 32.5015 25.7387 32.626C25.5662 32.7505 25.3631 32.8257 25.1511 32.8435L25.1511 32.8435L22.1426 33.0985L21.9931 33.1111L22.1074 33.2084L24.3818 35.1415L24.382 35.1416C24.5462 35.2802 24.6686 35.4618 24.7353 35.666C24.8021 35.8703 24.8106 36.0891 24.76 36.2979L24.7599 36.2983L24.0746 39.2045L24.0409 39.3473L24.1672 39.2727L26.7716 37.7342L26.7718 37.7341C26.9543 37.6253 27.1629 37.5678 27.3754 37.5678C27.5879 37.5678 27.7965 37.6253 27.979 37.7341L27.9791 37.7342L30.5835 39.282L30.71 39.3572L30.6763 39.2139L29.9909 36.3076L29.9909 36.3075C29.941 36.0985 29.9499 35.8798 30.0168 35.6756C30.0837 35.4714 30.206 35.2898 30.3699 35.1509ZM28.2368 42.0137L28.2369 42.0137C28.3008 42.0776 28.3515 42.1534 28.3861 42.2368C28.4207 42.3203 28.4385 42.4098 28.4385 42.5001C28.4385 42.5905 28.4207 42.6799 28.3861 42.7634C28.3515 42.8469 28.3008 42.9227 28.2369 42.9865L28.2368 42.9865L22.9868 48.2365C22.923 48.3004 22.8471 48.3511 22.7637 48.3857C22.6802 48.4202 22.5908 48.438 22.5004 48.438C22.4101 48.438 22.3206 48.4202 22.2372 48.3857C22.1537 48.3511 22.0779 48.3004 22.014 48.2365C21.9501 48.1727 21.8994 48.0968 21.8649 48.0134C21.8303 47.9299 21.8125 47.8405 21.8125 47.7501C21.8125 47.6598 21.8303 47.5703 21.8649 47.4869C21.8994 47.4034 21.9501 47.3276 22.014 47.2637L27.264 42.0137L27.264 42.0137C27.3279 41.9497 27.4037 41.899 27.4871 41.8644C27.5706 41.8298 27.6601 41.812 27.7504 41.812C27.8408 41.812 27.9302 41.8298 28.0137 41.8644C28.0972 41.899 28.173 41.9497 28.2368 42.0137ZM28.0234 27.7573C28.2157 27.8837 28.3667 28.0635 28.458 28.2748L26.2938 28.2748C26.385 28.0635 26.5361 27.8837 26.7284 27.7573C26.9207 27.6308 27.1458 27.5635 27.3759 27.5635C27.606 27.5635 27.8311 27.6308 28.0234 27.7573ZM19.9868 37.7366L14.7368 42.9865C14.6078 43.1156 14.4329 43.188 14.2504 43.188C14.068 43.188 13.893 43.1156 13.764 42.9865C13.635 42.8575 13.5625 42.6826 13.5625 42.5001C13.5625 42.3177 13.635 42.1427 13.764 42.0137L19.014 36.7637C19.143 36.6347 19.318 36.5622 19.5004 36.5622C19.6829 36.5622 19.8578 36.6347 19.9868 36.7637C20.1159 36.8927 20.1883 37.0677 20.1883 37.2501C20.1883 37.4326 20.1159 37.6075 19.9868 37.7366ZM21.4868 42.9865L16.2368 48.2365C16.173 48.3004 16.0971 48.3511 16.0137 48.3857C15.9302 48.4202 15.8408 48.438 15.7504 48.438C15.6601 48.438 15.5706 48.4202 15.4872 48.3857C15.4037 48.3511 15.3279 48.3004 15.264 48.2365C15.2001 48.1727 15.1494 48.0968 15.1149 48.0134C15.0803 47.9299 15.0625 47.8405 15.0625 47.7501C15.0625 47.6598 15.0803 47.5703 15.1149 47.4869C15.1494 47.4034 15.2001 47.3276 15.264 47.2637L15.2198 47.2195L15.264 47.2637L20.514 42.0137C20.643 41.8847 20.818 41.8122 21.0004 41.8122C21.1829 41.8122 21.3578 41.8847 21.4868 42.0137C21.6159 42.1427 21.6883 42.3177 21.6883 42.5001C21.6883 42.6826 21.6159 42.8575 21.4868 42.9865Z" fill="#DB7200" stroke="white" stroke-width="0.125"/>
<rect x="0.5" y="14.5" width="47" height="47" rx="9.5" stroke="white" stroke-opacity="0.6"/>
</g>
<defs>
<filter id="filter0_b_1103_42851" x="-16" y="-2" width="80" height="80" filterUnits="userSpaceOnUse" color-interpolation-filters="sRGB">
<feFlood flood-opacity="0" result="BackgroundImageFix"/>
<feGaussianBlur in="BackgroundImageFix" stdDeviation="8"/>
<feComposite in2="SourceAlpha" operator="in" result="effect1_backgroundBlur_1103_42851"/>
<feBlend mode="normal" in="SourceGraphic" in2="effect1_backgroundBlur_1103_42851" result="shape"/>
</filter>
</defs>
</svg>
