<svg width="62" height="62" viewBox="0 0 62 62" fill="none" xmlns="http://www.w3.org/2000/svg">
<rect x="15.0293" y="0.606445" width="48" height="48" rx="10" transform="rotate(15 15.0293 0.606445)" fill="#F04438"/>
<g filter="url(#filter0_b_1103_42858)">
<rect y="14" width="48" height="48" rx="10" fill="white" fill-opacity="0.6"/>
<path d="M25.8281 28.4576L25.8281 28.4576C25.9296 28.3786 26.0512 28.3296 26.1791 28.3162C26.307 28.3029 26.4361 28.3256 26.5517 28.382C26.6674 28.4385 26.7649 28.5264 26.8331 28.6356C26.9014 28.7448 26.9375 28.871 26.9375 28.9998V46.9998C26.9374 47.1284 26.9012 47.2545 26.833 47.3636C26.7649 47.4727 26.6675 47.5605 26.5519 47.617C26.4363 47.6734 26.3072 47.6964 26.1793 47.6831C26.0513 47.6699 25.9296 47.621 25.8281 47.5421L19.2806 42.4505L19.2636 42.4373H19.2422H15C14.6188 42.4373 14.2531 42.2859 13.9835 42.0163C13.714 41.7467 13.5625 41.3811 13.5625 40.9998V34.9998C13.5625 34.6186 13.714 34.253 13.9835 33.9834C14.2531 33.7138 14.6188 33.5623 15 33.5623H19.2422H19.2636L19.2806 33.5492L25.8281 28.4576ZM15 34.9373H14.9375V34.9998V40.9998V41.0623H15H18.75H18.8125V40.9998V34.9998V34.9373H18.75H15ZM25.4616 45.5154L25.5625 45.5939V45.4661V30.5336V30.4058L25.4616 30.4843L20.2116 34.5671L20.1875 34.5858V34.6164V41.3833V41.4139L20.2116 41.4326L25.4616 45.5154ZM29.4844 36.4735L29.4837 36.4728C29.4223 36.4053 29.375 36.3264 29.3444 36.2404C29.3139 36.1545 29.3007 36.0634 29.3057 35.9723C29.3107 35.8812 29.3338 35.7921 29.3736 35.71C29.4134 35.628 29.4691 35.5547 29.5375 35.4944C29.6059 35.434 29.6856 35.3879 29.772 35.3587C29.8584 35.3295 29.9498 35.3178 30.0407 35.3243C30.1317 35.3307 30.2205 35.3552 30.3019 35.3963C30.3833 35.4373 30.4557 35.4942 30.515 35.5636L30.5156 35.5643C31.1089 36.237 31.4367 37.1029 31.4375 37.9999C31.4382 38.8981 31.1104 39.7655 30.516 40.4388C30.3945 40.572 30.2256 40.6522 30.0456 40.6621C29.8654 40.672 29.6885 40.6107 29.5532 40.4914C29.4178 40.372 29.3348 40.2042 29.322 40.0242C29.3093 39.8444 29.3677 39.6667 29.4847 39.5295C29.8563 39.1073 30.0613 38.5642 30.0613 38.0017C30.0613 37.4391 29.8562 36.8958 29.4844 36.4735L29.4844 36.4735Z" fill="#DB2C3E" stroke="white" stroke-width="0.125"/>
<rect x="0.5" y="14.5" width="47" height="47" rx="9.5" stroke="white" stroke-opacity="0.6"/>
</g>
<defs>
<filter id="filter0_b_1103_42858" x="-16" y="-2" width="80" height="80" filterUnits="userSpaceOnUse" color-interpolation-filters="sRGB">
<feFlood flood-opacity="0" result="BackgroundImageFix"/>
<feGaussianBlur in="BackgroundImageFix" stdDeviation="8"/>
<feComposite in2="SourceAlpha" operator="in" result="effect1_backgroundBlur_1103_42858"/>
<feBlend mode="normal" in="SourceGraphic" in2="effect1_backgroundBlur_1103_42858" result="shape"/>
</filter>
</defs>
</svg>
